<?xml version="1.0" standalone="no"?>
<!DOCTYPE svg PUBLIC "-//W3C//DTD SVG 1.1//EN" "http://www.w3.org/Graphics/SVG/1.1/DTD/svg11.dtd" >
<svg>
<metadata>
Created by FontForge 20090914 at Tue Mar 23 11:20:36 2021
 By www-data
Copyright (c) ParaGraph Intl., 1990-1995. All Rights Reserved. ITC Franklin Gothic is a registered trade mark of International Typeface Corporation.
</metadata>
<defs>
<font id="FranklinGothicBookC" horiz-adv-x="1228" >
  <font-face 
    font-family="FranklinGothBookCTT"
    font-weight="400"
    font-stretch="normal"
    units-per-em="2048"
    panose-1="0 0 0 0 0 0 0 0 0 0"
    ascent="1638"
    descent="-410"
    x-height="1044"
    cap-height="1404"
    bbox="-131 -392.997 2131 1841"
    underline-thickness="81"
    underline-position="-123"
    unicode-range="U+0020-U+F002"
  />
<missing-glyph horiz-adv-x="900" 
d="M100 0v1024h800v-1024h-800zM110 10h780v1004h-780v-1004z" />
    <glyph glyph-name=".notdef" horiz-adv-x="900" 
d="M100 0v1024h800v-1024h-800zM110 10h780v1004h-780v-1004z" />
    <glyph glyph-name="space" unicode=" " horiz-adv-x="477" 
 />
    <glyph glyph-name="space" unicode="&#x45d;" horiz-adv-x="477" 
 />
    <glyph glyph-name="space" unicode="&#x40d;" horiz-adv-x="477" 
 />
    <glyph glyph-name="space" unicode="&#xa0;" horiz-adv-x="477" 
 />
    <glyph glyph-name="exclam" unicode="!" horiz-adv-x="614" 
d="M407 219v-219h-217v219h217zM419 1404l-73 -1054h-95l-73 1054h241z" />
    <glyph glyph-name="quotedbl" unicode="&#x22;" horiz-adv-x="739" 
d="M110 1404h193l-56 -503h-82zM436 1404h192l-55 -503h-82z" />
    <glyph glyph-name="numbersign" unicode="#" 
d="M757 0h-139l82 423h-270l-82 -423h-140l82 423h-217v129h242l59 326h-225v129h252l74 397h139l-74 -397h271l73 397h140l-74 -397h205v-129h-232l-59 -326h223v-129h-248zM724 552l60 326h-270l-60 -326h270z" />
    <glyph glyph-name="dollar" unicode="$" horiz-adv-x="1193" 
d="M686 1550l0.000976562 -170c87.333 -2.66699 167 -26.834 239 -72.501s124.667 -111.5 158 -197.5l-139 -48c-17.333 52.667 -48.333 95.5 -93 128.5s-99.667 51.167 -165 54.5v-441c150 -25.333 259.167 -71 327.5 -137s102.5 -148.667 102.5 -248
c0 -95.333 -36.5 -178.666 -109.5 -249.999s-179.167 -113.333 -318.5 -126v-196h-127v196c-101.333 6.66699 -191.833 37.5 -271.5 92.5s-136.167 131.833 -169.5 230.5l140 53c23.333 -68.667 61.166 -125.167 113.499 -169.5s114.833 -68.166 187.5 -71.499v485
c-131.333 28 -228.333 70 -291 126s-94 130.667 -94 224c0 98.667 35 183.167 105 253.5s163.333 108.166 280 113.499v170h125zM686.001 634v-456c77.333 -1.33301 141 20 191 64s75 96.333 75 157c0 68 -26 122.333 -78 163s-114.667 64.667 -188 72zM561.001 823
l-0.00195312 422c-69.333 -2 -125.666 -23.5 -168.999 -64.5s-65 -88.5 -65 -142.5c0 -56.667 21.333 -105.5 64 -146.5s99.334 -63.833 170.001 -68.5z" />
    <glyph glyph-name="percent" unicode="%" horiz-adv-x="1486" 
d="M79 1056c0 108.667 24.833 197.334 74.5 266.001s120.5 103 212.5 103s162.833 -34.333 212.5 -103s74.5 -157.334 74.5 -266.001s-24.833 -197.167 -74.5 -265.5s-120.5 -102.5 -212.5 -102.5s-162.833 34.167 -212.5 102.5s-74.5 156.833 -74.5 265.5zM526 1056
c0 86.667 -13.667 152 -41 196s-67 66 -119 66s-91.667 -22 -119 -66s-41 -109.333 -41 -196c0 -86 13.667 -151.167 41 -195.5s67 -66.5 119 -66.5s91.667 22.167 119 66.5s41 109.5 41 195.5zM1243 1404l-850 -1404h-150l850 1404h150zM833 348
c0 108 24.833 196.333 74.5 265s120.5 103 212.5 103s162.667 -34.333 212 -103s74 -157 74 -265c0 -108.667 -24.667 -197.167 -74 -265.5s-120 -102.5 -212 -102.5s-162.833 34.167 -212.5 102.5s-74.5 156.833 -74.5 265.5zM960 348c0 -86.667 13.667 -152 41 -196
s67 -66 119 -66s91.667 22 119 66s41 109.333 41 196c0 86 -13.667 151.167 -41 195.5s-67 66.5 -119 66.5s-91.667 -22.167 -119 -66.5s-41 -109.5 -41 -195.5z" />
    <glyph glyph-name="ampersand" unicode="&#x26;" horiz-adv-x="1415" 
d="M1159 768l151.001 -31c-24 -104.667 -56.833 -199.334 -98.5 -284.001s-93.5 -160 -155.5 -226c21.333 -28.667 42.666 -49.167 63.999 -61.5s54.666 -18.5 99.999 -18.5c24 0 44.5 0.666992 61.5 2s34.833 4 53.5 8v-147c-110 -9.33301 -162.667 -14 -158 -14
s5.33398 0 2.00098 0c-32.667 0 -61.834 4.16699 -87.501 12.5s-65.5 37.5 -119.5 87.5l-24 22c-52 -44.667 -109.5 -78.834 -172.5 -102.501s-132.5 -35.5 -208.5 -35.5c-134 0 -246.333 38.167 -337 114.5s-136 175.833 -136 298.5c0 92.667 30 176.167 90 250.5
s148 131.5 264 171.5l-29 41c-41.333 59.333 -71 109.833 -89 151.5s-27 81.834 -27 120.501c0 88.667 31.167 160.334 93.5 215.001s143.833 82 244.5 82c110 0 199.167 -26.5 267.5 -79.5s102.5 -125.5 102.5 -217.5c0 -82.667 -28.167 -153.834 -84.5 -213.501
s-142.833 -110.167 -259.5 -151.5l289 -432c51.333 58.667 93.833 124.334 127.5 197.001s58.834 152.667 75.501 240zM851.001 225l-327.002 477.002c-23.333 -6 -45.166 -14.167 -65.499 -24.5s-40.166 -22.5 -59.499 -36.5c-38 -28.667 -67 -61.334 -87 -98.001
s-30 -79.334 -30 -128.001c0 -78 27.5 -144.833 82.5 -200.5s131.167 -83.5 228.5 -83.5c47.333 0 93 7.83301 137 23.5s84.333 39.167 121 70.5zM601.999 868.002l41 22c68.667 38 109.167 62.333 121.5 73s23.5 22.667 33.5 36c11.333 15.333 20.333 32.666 27 51.999
s10 40.333 10 63c0 47.333 -17.833 85.666 -53.5 114.999s-81.167 44 -136.5 44c-49.333 0 -89.333 -13.5 -120 -40.5s-46 -63.167 -46 -108.5c0 -23.333 4 -46.666 12 -69.999s36 -71.666 84 -144.999z" />
    <glyph glyph-name="quotesingle" unicode="'" horiz-adv-x="614" 
d="M210 1404h193l-55 -503h-82z" />
    <glyph glyph-name="parenleft" unicode="(" horiz-adv-x="569" 
d="M389 1404h105.998c-81.333 -124.667 -144.666 -260.334 -189.999 -407.001s-68 -299.667 -68 -459c0 -163.333 22.833 -320.166 68.5 -470.499s109.5 -289.5 191.5 -417.5h-106c-103.333 126.667 -180 265 -230 415s-75 305 -75 465c0 156 26.833 309.667 80.5 461
s127.834 289 222.501 413z" />
    <glyph glyph-name="parenright" unicode=")" horiz-adv-x="569" 
d="M73 1404h106.998c94.667 -124 168.834 -261.667 222.501 -413s80.5 -305 80.5 -461c0 -160 -25.167 -315 -75.5 -465s-126.833 -288.333 -229.5 -415h-107c82.667 128 146.667 267.167 192 417.5s68 307.166 68 470.499c0 159.333 -22.667 312.333 -68 459
s-108.666 282.334 -189.999 407.001z" />
    <glyph glyph-name="asterisk" unicode="*" horiz-adv-x="1118" 
d="M499 1404h119l-14 -352l301 189l63 -105l-313 -164l313 -164l-63 -104l-301 188l14 -350h-119l15 350l-302 -188l-63 104l313 164l-313 164l63 105l302 -189z" />
    <glyph glyph-name="plus" unicode="+" horiz-adv-x="1316" 
d="M591 1120h133v-463h463v-133h-463v-463h-133v463h-462v133h462v463z" />
    <glyph glyph-name="comma" unicode="," horiz-adv-x="528" 
d="M376 202v-176l-164 -273h-77l121 247h-84v202h204z" />
    <glyph glyph-name="hyphen" unicode="-" horiz-adv-x="641" 
d="M538 589v-127h-436v127h436z" />
    <glyph glyph-name="hyphen" unicode="&#xad;" horiz-adv-x="641" 
d="M538 589v-127h-436v127h436z" />
    <glyph glyph-name="period" unicode="." horiz-adv-x="530" 
d="M151 231h227v-231h-227v231z" />
    <glyph glyph-name="slash" unicode="/" horiz-adv-x="1067" 
d="M1030 1404l-848 -1754h-139l847 1754h140z" />
    <glyph glyph-name="zero" unicode="0" horiz-adv-x="1220" 
d="M610 -20c-78 0 -152.17 19 -222.503 57s-130.166 97.333 -179.499 178c-40 65.333 -70.833 140.5 -92.5 225.5s-32.5 170.167 -32.5 255.5c0 88.667 10.333 175.667 31 261s50.667 160 90 224c51.333 83.333 111.5 144.833 180.5 184.5s144.167 59.5 225.5 59.5
s156.333 -19.833 225 -59.5s128.667 -101.167 180 -184.5c40 -64 70.167 -138.667 90.5 -224s30.5 -172.333 30.5 -261c0 -85.333 -10.833 -170.5 -32.5 -255.5s-52.5 -160.167 -92.5 -225.5c-49.333 -80.667 -109.166 -140 -179.499 -178s-144.166 -57 -221.499 -57z
M609.997 1282c-43.333 0 -86.001 -11.167 -128.001 -33.5s-78 -52.166 -108 -89.499c-38 -48 -66.5 -111.333 -85.5 -190s-28.5 -165.667 -28.5 -261c0 -88 7 -166.333 21 -235s35 -129 63 -181c28 -52.667 64.333 -94.167 109 -124.5s97 -45.5 157 -45.5
s112.333 15.167 157 45.5s81 71.833 109 124.5c28 52 49 112.333 63 181s21 147 21 235c0 95.333 -9.66699 182.333 -29 261s-48 142 -86 190c-29.333 37.333 -65.166 67.166 -107.499 89.499s-84.833 33.5 -127.5 33.5z" />
    <glyph glyph-name="one" unicode="1" 
d="M751 1404l-0.00195312 -1253h387v-151h-983v151h420v1040c-60 -62.667 -122 -118.834 -186 -168.501s-131 -93.167 -201 -130.5v175c88.667 44 168.834 94 240.501 150s134.834 118.333 189.501 187h133z" />
    <glyph glyph-name="two" unicode="2" 
d="M282 964l-163.999 49.001c8 42.667 20.833 83.667 38.5 123s39.167 75 64.5 107c49.333 62 108 107.833 176 137.5s144.333 44.5 229 44.5c75.333 0 138.666 -8.33301 189.999 -25s98 -41 140 -73c52.667 -40.667 92.167 -88.167 118.5 -142.5
s39.5 -114.166 39.5 -179.499c0 -92 -27 -179.333 -81 -262s-129.667 -161.334 -227 -236.001l-464 -356h774v-151h-998v145l568 446c86.667 68.667 150.167 136 190.5 202s60.5 133.333 60.5 202c0 41.333 -8.33301 79.666 -25 114.999s-41 66 -73 92
c-28 22.667 -60.667 40.167 -98 52.5s-78.333 18.5 -123 18.5c-58 0 -110.667 -12.667 -158 -38s-86 -59 -116 -101c-18 -24.667 -32.167 -51.667 -42.5 -81s-16.833 -59 -19.5 -89z" />
    <glyph glyph-name="three" unicode="3" 
d="M290 1060l-164.005 45.0059c21.333 51.333 49.166 97.333 83.499 138s72.833 74.667 115.5 102c40.667 26 86.334 45.833 137.001 59.5s105.334 20.5 164.001 20.5c56 0 109.833 -7 161.5 -21s98.167 -34.333 139.5 -61c52.667 -34.667 92.5 -77.334 119.5 -128.001
s40.5 -106.334 40.5 -167.001c0 -78 -25.667 -144.833 -77 -200.5s-115.666 -92.5 -192.999 -110.5c100.667 -12.667 180 -51.667 238 -117s87 -141 87 -227c0 -57.333 -13.667 -113.333 -41 -168s-66.666 -101 -117.999 -139
c-47.333 -35.333 -104.833 -61.833 -172.5 -79.5s-137.167 -26.5 -208.5 -26.5c-52.667 0 -105.334 6.33301 -158.001 19s-102.667 32.667 -150 60c-49.333 28.667 -92.166 64.5 -128.499 107.5s-64.5 93.833 -84.5 152.5l164 55
c9.33301 -36.667 23.833 -69.334 43.5 -98.001s46.834 -55.334 81.501 -80.001c33.333 -23.333 68.833 -40.833 106.5 -52.5s82.834 -17.5 135.501 -17.5s101.167 5.5 145.5 16.5s81.166 26.833 110.499 47.5c29.333 21.333 53 48.666 71 81.999s27 71.666 27 114.999
c0 46 -11.167 86.5 -33.5 121.5s-52.166 63.833 -89.499 86.5c-32 20 -71.5 35 -118.5 45s-100.833 15 -161.5 15h-135v143h135c52.667 0 97 3 133 9s66.667 15.333 92 28c40.667 20.667 72 48.334 94 83.001s33 72 33 112c0 37.333 -7.5 71.666 -22.5 102.999
s-38.167 58.333 -69.5 81c-27.333 19.333 -58.5 34 -93.5 44s-72.167 15 -111.5 15c-34.667 0 -69.5 -5 -104.5 -15s-67.167 -24.667 -96.5 -44c-26 -18 -50 -40.333 -72 -67s-40.333 -55.667 -55 -87z" />
    <glyph glyph-name="four" unicode="4" 
d="M937 1404v-933h230v-144h-230v-327h-176v327h-692v117l643 960h225zM761 471v796l-514 -796h514z" />
    <glyph glyph-name="five" unicode="5" 
d="M1038 1404l-14 -151h-691l-30 -453c48 49.333 100.5 87 157.5 113s117.167 39 180.5 39c58.667 0 116.5 -9.83301 173.5 -29.5s108.833 -49.5 155.5 -89.5c52.667 -45.333 92.5 -99 119.5 -161s40.5 -127.667 40.5 -197c0 -66.667 -11.667 -129.167 -35 -187.5
s-59.333 -111.166 -108 -158.499c-51.333 -50 -110.333 -87.333 -177 -112s-140.334 -37 -221.001 -37c-72 0 -137.833 11.333 -197.5 34s-113.167 55.334 -160.5 98.001c-30.667 27.333 -57.167 57.833 -79.5 91.5s-40.166 69.5 -53.499 107.5l151 51
c8.66699 -24.667 19.667 -47.167 33 -67.5s29 -39.5 47 -57.5c36 -36.667 75.5 -63.5 118.5 -80.5s93.167 -25.5 150.5 -25.5c58.667 0 110.667 9.33301 156 28s84.666 48 117.999 88c25.333 30 45.333 63.833 60 101.5s22 76.834 22 117.501
c0 45.333 -8.16699 89.166 -24.5 131.499s-40.833 79.166 -73.5 110.499c-32.667 30.667 -69.167 53.667 -109.5 69s-81.166 23 -122.499 23c-62 0 -122 -15.333 -180 -46s-106.333 -75.334 -145 -134.001l-140 29l47 755h832z" />
    <glyph glyph-name="six" unicode="6" 
d="M1107 1114l-147.001 -42.999c-27.333 66.667 -67.666 117 -120.999 151s-114.666 51 -183.999 51c-66 0 -126.167 -16.667 -180.5 -50s-100.166 -86.333 -137.499 -159c-27.333 -54 -48.333 -118.833 -63 -194.5s-20 -154.167 -16 -235.5
c38.667 85.333 96.5 153.833 173.5 205.5s162.5 77.5 256.5 77.5c128.667 0 237.167 -44.333 325.5 -133s132.5 -197.334 132.5 -326.001c0 -136 -49.333 -249.667 -148 -341s-218.667 -137 -360 -137c-91.333 0 -174 19 -248 57s-134.667 91.667 -182 161
c-39.333 58 -70.333 126.167 -93 204.5s-34 165.833 -34 262.5c0 98.667 10.333 191.167 31 277.5s48.667 159.833 84 220.5c51.333 86.667 114.666 152 189.999 196s163.666 66 264.999 66c119.333 0 217.333 -28.333 294 -85s130.667 -132 162 -226zM304.999 432.001
c0 -42.667 9.33203 -84.501 27.999 -125.501s43.334 -74.5 74.001 -100.5c28.667 -23.333 64.334 -41.666 107.001 -54.999s84 -20 124 -20c93.333 0 172 30.5 236 91.5s96 136.167 96 225.5c0 88.667 -30.333 163.667 -91 225s-135.334 92 -224.001 92
c-94 0 -175.833 -32.5 -245.5 -97.5s-104.5 -143.5 -104.5 -235.5z" />
    <glyph glyph-name="seven" unicode="7" 
d="M1087 1404l-0.000976562 -106c-68.667 -82 -134.334 -172.833 -197.001 -272.5s-114.334 -197.834 -155.001 -294.501c-51.333 -122 -89.166 -242.333 -113.499 -361s-35.833 -242 -34.5 -370h-180c0.666992 156 20.334 305.833 59.001 449.5
s93.334 279.834 164.001 408.501c34.667 62.667 75.5 128 122.5 196s97.167 134.333 150.5 199h-762l18 151h928z" />
    <glyph glyph-name="eight" unicode="8" 
d="M405 729c-76 26.667 -139.001 70 -189.001 130s-75 127.667 -75 203c0 104.667 44.667 191.334 134 260.001s207 103 353 103c136.667 0 248.667 -31.833 336 -95.5s131 -147.834 131 -252.501c0 -76.667 -24 -143.5 -72 -200.5s-114.667 -98.167 -200 -123.5
c115.333 -45.333 199.833 -98.833 253.5 -160.5s80.5 -133.834 80.5 -216.501c0 -121.333 -50.167 -217.666 -150.5 -288.999s-227.166 -107 -380.499 -107c-174 0 -310 37.667 -408 113s-147 164.333 -147 267c0 85.333 31.167 160.333 93.5 225s142.5 112.667 240.5 144z
M564.999 829l47.001 -13.999c98.667 20.667 175.167 51.667 229.5 93s81.5 90.666 81.5 147.999c0 70.667 -27.667 126 -83 166s-131.333 60 -228 60c-93.333 0 -166.5 -20.333 -219.5 -61s-79.5 -92 -79.5 -154c0 -54 22.167 -101.167 66.5 -141.5
s106.166 -72.5 185.499 -96.5zM657 641.001l-56.999 17.999c-38 -8 -76.167 -19.333 -114.5 -34s-71.833 -30.667 -100.5 -48c-44 -26 -78 -56.5 -102 -91.5s-36 -72.167 -36 -111.5c0 -71.333 30.667 -131.166 92 -179.499s151.666 -72.5 270.999 -72.5
c118 0 209.167 22.833 273.5 68.5s96.5 102.834 96.5 171.501c0 57.333 -24.667 108.666 -74 153.999s-132.333 87 -249 125z" />
    <glyph glyph-name="nine" unicode="9" 
d="M133 262l141.004 51c32 -62 73.833 -107.833 125.5 -137.5s109.5 -44.5 173.5 -44.5c66 0 123.833 14 173.5 42s92.167 71.333 127.5 130c32 52 55.5 110.167 70.5 174.5s23.5 161.833 25.5 292.5c-38.667 -85.333 -96.5 -153.833 -173.5 -205.5
s-162.5 -77.5 -256.5 -77.5c-128.667 0 -237.334 44.333 -326.001 133s-133 196.667 -133 324c0 138.667 49.833 253.5 149.5 344.5s220.5 136.5 362.5 136.5c88 0 169.167 -17.667 243.5 -53s135.166 -87.333 182.499 -156c37.333 -53.333 67.833 -123.666 91.5 -210.999
s35.5 -176 35.5 -266c0 -91.333 -9.83301 -181.5 -29.5 -270.5s-47.834 -164.833 -84.501 -227.5c-51.333 -86.667 -114.833 -151.834 -190.5 -195.501s-163.834 -65.5 -264.501 -65.5c-112.667 0 -206.5 25 -281.5 75s-129.167 119 -162.5 207zM581.004 1273
c-40 0 -78.501 -6.5 -115.501 -19.5s-71.5 -33.833 -103.5 -62.5c-34.667 -30 -60.667 -65.833 -78 -107.5s-26 -84.167 -26 -127.5c0 -39.333 7.5 -78.666 22.5 -117.999s35.5 -73 61.5 -101c29.333 -32.667 64.333 -57.334 105 -74.001s82.667 -25 126 -25
c96 0 178.333 32.167 247 96.5s103 143.5 103 237.5s-32.167 167.667 -96.5 221s-146.166 80 -245.499 80z" />
    <glyph glyph-name="colon" unicode=":" horiz-adv-x="528" 
d="M376 231v-231h-225v231h225zM376 1040v-232h-225v232h225z" />
    <glyph glyph-name="semicolon" unicode=";" horiz-adv-x="528" 
d="M376 235v-211l-153 -288h-88l123 264h-107v235h225zM376 1040v-232h-225v232h225z" />
    <glyph glyph-name="less" unicode="&#x3c;" 
d="M305 589l809 -331v-127l-1002 424v69l1002 424v-127z" />
    <glyph glyph-name="equal" unicode="=" horiz-adv-x="1316" 
d="M129 722v134h1058v-134h-1058zM129 325v133h1058v-133h-1058z" />
    <glyph glyph-name="greater" unicode="&#x3e;" 
d="M915 589l-801 332v127l1002 -424v-69l-1002 -424v127z" />
    <glyph glyph-name="question" unicode="?" horiz-adv-x="1069" 
d="M196 978l-153 33c16 128.667 67.5 229.834 154.5 303.501s195.833 110.5 326.5 110.5c138 0 249 -36.833 333 -110.5s126 -168.5 126 -284.5c0 -78 -21.167 -147 -63.5 -207s-108.166 -114 -197.499 -162c-72 -38.667 -118.333 -69.667 -139 -93s-31 -62 -31 -116v-104
h-147v88c0 90 9.83301 154.5 29.5 193.5s54.167 72.833 103.5 101.5l90 51c63.333 36 108.166 74 134.499 114s39.5 84 39.5 132c0 25.333 -4 50.666 -12 75.999s-19.667 48.333 -35 69c-24 32.667 -57.167 58.667 -99.5 78s-90.166 29 -143.499 29
c-56.667 0 -106.834 -11.833 -150.501 -35.5s-80.5 -59.167 -110.5 -106.5c-14 -22.667 -25.667 -48 -35 -76s-16 -56 -20 -84zM583 200v-200h-209v200h209z" />
    <glyph glyph-name="at" unicode="@" horiz-adv-x="1654" 
d="M1134 163l46.998 -113.999c-50 -23.333 -105.167 -40.666 -165.5 -51.999s-130.166 -17 -209.499 -17c-90.667 0 -173.334 12 -248.001 36s-142 58 -202 102c-86 64 -152.5 141.667 -199.5 233s-70.5 196 -70.5 314c0 111.333 20.167 214.166 60.5 308.499
s97.833 176.5 172.5 246.5c75.333 71.333 159.166 123.333 251.499 156s192.833 49 301.5 49c114 0 217 -18 309 -54s169.333 -87 232 -153c48 -50.667 85.833 -109.667 113.5 -177s41.5 -139.333 41.5 -216c0 -70 -10.5 -137.667 -31.5 -203s-50.167 -119.333 -87.5 -162
c-40 -46 -87.5 -82 -142.5 -108s-109.833 -39 -164.5 -39c-54 0 -98.167 10 -132.5 30s-57.5 49 -69.5 87c-30.667 -36.667 -66.167 -65.334 -106.5 -86.001s-84.166 -31 -131.499 -31c-32.667 0 -65 6.5 -97 19.5s-59 30.5 -81 52.5
c-25.333 24.667 -45.333 57.167 -60 97.5s-22 82.833 -22 127.5c0 68 17.5 136.833 52.5 206.5s83.833 127.834 146.5 174.501c32 24 65.833 42.667 101.5 56s71.834 20 108.501 20c54 0 99 -11.667 135 -35s62 -59 78 -107l37 115h135l-159 -496
c-5.33301 -16 -8.33301 -26.167 -9 -30.5s-1 -8.5 -1 -12.5c0 -28 6.83301 -49 20.5 -63s33.834 -21 60.501 -21c40.667 0 79.167 9.66699 115.5 29s66.833 45.333 91.5 78c27.333 34.667 47.833 76 61.5 124s20.5 96 20.5 144c0 54 -8 105.667 -24 155
s-37.333 92.666 -64 129.999c-47.333 65.333 -117 119.166 -209 161.499s-195.667 63.5 -311 63.5c-80 0 -157.5 -14.333 -232.5 -43s-140.833 -71.667 -197.5 -129c-56 -56 -98.333 -121.833 -127 -197.5s-43 -162.167 -43 -259.5c0 -93.333 13.5 -175.166 40.5 -245.499
s70.833 -132.5 131.5 -186.5c50.667 -44.667 110.167 -79 178.5 -103s144.5 -36 228.5 -36c62 0 120.167 5.16699 174.5 15.5s104.833 25.5 151.5 45.5zM869.998 954.001c-37.333 0 -71.333 -7.33203 -102 -21.999s-58 -35.334 -82 -62.001
c-30.667 -33.333 -55.167 -75.833 -73.5 -127.5s-27.5 -100.834 -27.5 -147.501c0 -26.667 3.5 -50.167 10.5 -70.5s17.833 -39.166 32.5 -56.499c15.333 -17.333 31.833 -30.166 49.5 -38.499s36.167 -12.5 55.5 -12.5c29.333 0 56.833 6.66699 82.5 20
s51.167 36.666 76.5 69.999c35.333 46 63.333 99.167 84 159.5s31 112.5 31 156.5c0 36.667 -12.667 67.667 -38 93s-58.333 38 -99 38z" />
    <glyph glyph-name="A" unicode="A" horiz-adv-x="1146" 
d="M681 1404l457 -1404h-192l-131 407h-504l-127 -407h-160l455 1404h202zM772 550l-209 666l-211 -666h420z" />
    <glyph glyph-name="B" unicode="B" horiz-adv-x="1288" 
d="M180 1404h536c80 0 142.833 -6.16699 188.5 -18.5s84.5 -29.833 116.5 -52.5c42 -29.333 74.5 -66.333 97.5 -111s34.5 -96.334 34.5 -155.001c0 -56 -9.83301 -105.333 -29.5 -148s-46.167 -77.334 -79.5 -104.001c-17.333 -14 -38 -27 -62 -39s-48.333 -21.667 -73 -29
v-4c28 -5.33301 55.667 -14.166 83 -26.499s53 -28.166 77 -47.499c43.333 -34.667 76 -77 98 -127s33 -104 33 -162s-12 -112.5 -36 -163.5s-57.333 -93.167 -100 -126.5c-39.333 -32 -84.833 -55 -136.5 -69s-121.5 -21 -209.5 -21h-538v1404zM356 1253l-0.00195312 -447
h295c64 0 114.833 5.33301 152.5 16s70.167 27.334 97.5 50.001c26 22 45 47.167 57 75.5s18 59.166 18 92.499c0 38 -6.66699 70.5 -20 97.5s-34 49.833 -62 68.5c-23.333 16 -50.666 27.833 -81.999 35.5s-75.666 11.5 -132.999 11.5h-323zM355.998 663
l0.00195312 -511.999h350c47.333 0 89.166 4.66699 125.499 14s66.833 23.666 91.5 42.999c26.667 21.333 48 48.5 64 81.5s24 70.833 24 113.5c0 35.333 -5.83301 68.333 -17.5 99s-28.834 57.667 -51.501 81c-28.667 28.667 -62.167 49.167 -100.5 61.5
s-91.833 18.5 -160.5 18.5h-325z" />
    <glyph glyph-name="C" unicode="C" horiz-adv-x="1236" 
d="M1179 976l-165.997 -30.002c-6.66699 32.667 -16.334 64.834 -29.001 96.501s-27.334 60.167 -44.001 85.5c-34 50.667 -72.833 87.5 -116.5 110.5s-95.167 34.5 -154.5 34.5c-71.333 0 -132.666 -15.667 -183.999 -47s-94.333 -77.666 -129 -138.999
c-24.667 -43.333 -43.834 -95.666 -57.501 -156.999s-20.5 -132.666 -20.5 -213.999c0 -74.667 5.66699 -142.667 17 -204s27.666 -114 48.999 -158c34 -72.667 78.667 -128 134 -166s119 -57 191 -57c50 0 93.333 8.5 130 25.5s71.334 43.167 104.001 78.5
c28 31.333 52.167 67.333 72.5 108s34.833 84 43.5 130l160 -35c-12 -59.333 -31.333 -116 -58 -170s-60 -102 -100 -144c-44.667 -47.333 -93.667 -83.166 -147 -107.499s-119 -36.5 -197 -36.5c-104.667 0 -193.5 20.333 -266.5 61s-135.5 100.667 -187.5 180
c-43.333 65.333 -76.333 142.166 -99 230.499s-34 179.166 -34 272.499c0 109.333 14.167 208 42.5 296s67.166 161 116.499 219c52.667 61.333 114.5 107.666 185.5 138.999s150.5 47 238.5 47c73.333 0 137.833 -9.83301 193.5 -29.5s106.5 -51.5 152.5 -95.5
c41.333 -38.667 76.333 -86.167 105 -142.5s47 -116.833 55 -181.5z" />
    <glyph glyph-name="D" unicode="D" horiz-adv-x="1368" 
d="M180 1404h465c100 0 187.667 -16.667 263 -50s141.666 -82.666 198.999 -147.999c54.667 -62 96.667 -135.5 126 -220.5s44 -177.5 44 -277.5c0 -70.667 -7.5 -141.834 -22.5 -213.501s-37.5 -136.167 -67.5 -193.5c-51.333 -100 -120.166 -175.167 -206.499 -225.5
s-194.833 -75.5 -325.5 -75.5h-475v1404zM356 151h246.003c91.333 0 168.166 14.5 230.499 43.5s114.5 73.833 156.5 134.5c34 50 59.167 108.667 75.5 176s24.5 137 24.5 209c0 82.667 -11.5 158 -34.5 226s-53.833 124.667 -92.5 170
c-40.667 46.667 -88.334 82.167 -143.001 106.5s-122.334 36.5 -203.001 36.5h-260v-1102z" />
    <glyph glyph-name="E" unicode="E" horiz-adv-x="1161" 
d="M180 1404h889v-151h-713v-447h565v-143h-565v-512h733v-151h-909v1404z" />
    <glyph glyph-name="F" unicode="F" horiz-adv-x="1077" 
d="M1040 1404v-151h-684v-447h567v-143h-567v-663h-176v1404h860z" />
    <glyph glyph-name="G" unicode="G" horiz-adv-x="1372" 
d="M1220 708l0.00292969 -718.001h-108l-48 173c-16.667 -26 -36 -48.833 -58 -68.5s-46.333 -36.834 -73 -51.501c-37.333 -21.333 -77.833 -37.166 -121.5 -47.499s-92.5 -15.5 -146.5 -15.5c-86.667 0 -165.334 16.833 -236.001 50.5s-132.667 84.167 -186 151.5
c-46.667 59.333 -83.834 133 -111.501 221s-41.5 183 -41.5 285c0 82.667 11.333 168.334 34 257.001s55.667 164.667 99 228c55.333 82 125.5 144.5 210.5 187.5s177.167 64.5 276.5 64.5c70.667 0 136.667 -11.5 198 -34.5s114.333 -55.833 159 -98.5
c34 -33.333 63.167 -73.5 87.5 -120.5s41.5 -97.167 51.5 -150.5l-166 -41c-4.66699 26.667 -11.834 52.167 -21.501 76.5s-21.5 46.833 -35.5 67.5c-33.333 48 -75.666 84.833 -126.999 110.5s-108 38.5 -170 38.5c-72 0 -135.667 -17.333 -191 -52s-100.333 -82 -135 -142
c-26 -45.333 -46.167 -102 -60.5 -170s-21.5 -141.667 -21.5 -221c0 -72.667 7.33301 -139.334 22 -200.001s35.334 -113.667 62.001 -159c38 -64 86 -113 144 -147s123.333 -51 196 -51c47.333 0 91.666 8.33301 132.999 25s79 42.334 113 77.001
c33.333 34.667 57.666 72.5 72.999 113.5s23 86.5 23 136.5v78h-354v147h530z" />
    <glyph glyph-name="H" unicode="H" horiz-adv-x="1368" 
d="M1187 1404v-1404h-176v671h-655v-671h-176v1404h176v-589h655v589h176z" />
    <glyph glyph-name="I" unicode="I" horiz-adv-x="536" 
d="M356 1404v-1404h-176v1404h176z" />
    <glyph glyph-name="J" unicode="J" horiz-adv-x="792" 
d="M626 1404l0.00292969 -946c0 -92.667 -7 -163 -21 -211s-35.667 -90.333 -65 -127c-38 -47.333 -84.833 -82.5 -140.5 -105.5s-120.834 -34.5 -195.501 -34.5c-36 0 -71 2.5 -105 7.5s-67 11.833 -99 20.5v151c27.333 -9.33301 56.166 -16.333 86.499 -21
s61.5 -7 93.5 -7c39.333 0 76.166 5.16699 110.499 15.5s62.833 26.166 85.5 47.499c27.333 24.667 46.5 53.834 57.5 87.501s16.5 84.5 16.5 152.5v970h176z" />
    <glyph glyph-name="K" unicode="K" horiz-adv-x="1304" 
d="M356 1404v-813h4l625 813h194l-379 -491l490 -913h-195l-418 774l-321 -400v-374h-176v1404h176z" />
    <glyph glyph-name="L" unicode="L" horiz-adv-x="1044" 
d="M356 1404v-1253h659v-151h-835v1404h176z" />
    <glyph glyph-name="M" unicode="M" horiz-adv-x="1720" 
d="M438 1404l422 -1124h4l418 1124h258v-1404h-177v1226h-4l-450 -1226h-119l-461 1226h-2v-1226h-147v1404h258z" />
    <glyph glyph-name="N" unicode="N" horiz-adv-x="1392" 
d="M401 1404l668.001 -1144h4c-2.66699 14.667 -4.83398 32.834 -6.50098 54.501s-2.5 40.834 -2.5 57.501v1032h148v-1404h-172l-686 1177l-31 47h-4c2.66699 -21.333 4.66699 -42.333 6 -63s2 -42 2 -64v-1097h-147v1404h221z" />
    <glyph glyph-name="O" unicode="O" horiz-adv-x="1335" 
d="M667 1425c74 0 142.667 -12.167 206 -36.5s120.333 -61.5 171 -111.5c62 -60.667 111 -140 147 -238s54 -210.333 54 -337s-18 -239 -54 -337s-85 -177.667 -147 -239c-50.667 -49.333 -107.667 -86 -171 -110s-132 -36 -206 -36c-73.333 0 -141.833 12 -205.5 36
s-120.834 60.667 -171.501 110c-62 61.333 -110.833 141 -146.5 239s-53.5 210.333 -53.5 337s17.833 239 53.5 337s84.5 177.333 146.5 238c50.667 50 107.834 87.167 171.501 111.5s132.167 36.5 205.5 36.5zM667 1273c-54 0 -104.167 -11.833 -150.5 -35.5
s-86.833 -58.167 -121.5 -103.5c-36.667 -47.333 -65.334 -107.833 -86.001 -181.5s-31 -157.167 -31 -250.5s10.333 -176.833 31 -250.5s49.334 -134.167 86.001 -181.5c34.667 -45.333 75.167 -79.833 121.5 -103.5s96.5 -35.5 150.5 -35.5s104.167 11.833 150.5 35.5
s87.166 58.167 122.499 103.5c36.667 47.333 65.167 107.833 85.5 181.5s30.5 157.167 30.5 250.5s-10.167 176.833 -30.5 250.5s-48.833 134.167 -85.5 181.5c-35.333 45.333 -76.166 79.833 -122.499 103.5s-96.5 35.5 -150.5 35.5z" />
    <glyph glyph-name="P" unicode="P" horiz-adv-x="1198" 
d="M180 1404l465 0.00195312c86 0 156.167 -7.5 210.5 -22.5s101.5 -37.5 141.5 -67.5c47.333 -35.333 84 -79.833 110 -133.5s39 -115.5 39 -185.5c0 -64.667 -11.333 -123.834 -34 -177.501s-55 -99.834 -97 -138.501c-39.333 -36 -85.333 -63.333 -138 -82
s-128 -28 -226 -28h-295v-569h-176v1404zM356 720.002h273.999c67.333 0 119 6 155 18s66.333 29.333 91 52s44.5 52.167 59.5 88.5s22.5 76.5 22.5 120.5c0 38 -6.83301 73.5 -20.5 106.5s-34.167 60.833 -61.5 83.5c-24.667 20.667 -55.667 36.5 -93 47.5
s-82.666 16.5 -135.999 16.5h-291v-533z" />
    <glyph glyph-name="Q" unicode="Q" horiz-adv-x="1335" 
d="M1153 -159l-0.000976562 -148.001c-29.333 -8.66699 -57.5 -15.167 -84.5 -19.5s-52.833 -6.5 -77.5 -6.5c-99.333 0 -179.333 28 -240 84s-90 132.333 -88 229h-18.5h-18.5c-56.667 2.66699 -115.5 16.5 -176.5 41.5s-114.167 59.167 -159.5 102.5
c-60.667 58.667 -109.167 137.834 -145.5 237.501s-54.5 213.167 -54.5 340.5c0 126 17.833 238.333 53.5 337s84.5 178 146.5 238c50.667 50 107.834 87.167 171.501 111.5s132.167 36.5 205.5 36.5c74 0 142.667 -12.167 206 -36.5s120.333 -61.5 171 -111.5
c62 -60.667 111 -140 147 -238s54 -210.333 54 -337s-18 -238.834 -54 -336.501s-85 -177.5 -147 -239.5c-32 -31.333 -67.833 -58.333 -107.5 -81s-83.167 -39.667 -130.5 -51c-2 -24.667 1 -48.5 9 -71.5s20 -42.833 36 -59.5c16 -15.333 34.5 -26.666 55.5 -33.999
s48.5 -11 82.5 -11c26 0 52.833 2 80.5 6s55.5 9.66699 83.5 17zM666.999 1273c-54 0 -104.167 -11.833 -150.5 -35.5s-86.833 -58.167 -121.5 -103.5c-36.667 -47.333 -65.334 -107.833 -86.001 -181.5s-31 -157.167 -31 -250.5s10.333 -176.833 31 -250.5
s49.334 -134.167 86.001 -181.5c34.667 -45.333 75.167 -79.833 121.5 -103.5s96.5 -35.5 150.5 -35.5s104.167 11.833 150.5 35.5s87.166 58.167 122.499 103.5c36.667 47.333 65.167 107.833 85.5 181.5s30.5 157.167 30.5 250.5s-10.167 176.833 -30.5 250.5
s-48.833 134.167 -85.5 181.5c-35.333 45.333 -76.166 79.833 -122.499 103.5s-96.5 35.5 -150.5 35.5z" />
    <glyph glyph-name="R" unicode="R" horiz-adv-x="1304" 
d="M180 1404h530.002c74.667 0 136.667 -6.33301 186 -19s92.666 -32 129.999 -58c47.333 -34 84.666 -78.833 111.999 -134.5s41 -116.167 41 -181.5c0 -82.667 -22.5 -158 -67.5 -226s-110.5 -116 -196.5 -144l281 -641h-189l-260 604h-391v-604h-176v1404zM356.002 1253
l0.00195312 -497.999h358c48.667 0 93 9.16699 133 27.5s72.333 44.166 97 77.499c15.333 21.333 27 45.5 35 72.5s12 53.833 12 80.5c0 36.667 -7.33301 71.5 -22 104.5s-35.334 60.5 -62.001 82.5c-23.333 18 -49.833 31.333 -79.5 40s-68.834 13 -117.501 13h-354z" />
    <glyph glyph-name="S" unicode="S" horiz-adv-x="1230" 
d="M1112 1081l-160 -43.0059c-10 31.333 -24.167 61.166 -42.5 89.499s-39.833 52.5 -64.5 72.5c-28.667 22.667 -63.667 40.5 -105 53.5s-88.666 19.5 -141.999 19.5c-38.667 0 -73.667 -3.66699 -105 -11s-59.333 -18.666 -84 -33.999
c-32.667 -20.667 -57.167 -47 -73.5 -79s-24.5 -66.333 -24.5 -103c0 -52 20 -94.167 60 -126.5s104 -59.166 192 -80.499l209 -51c68.667 -16.667 122 -33.667 160 -51s70.667 -37.333 98 -60c40 -32.667 71.5 -72.667 94.5 -120s34.5 -99.333 34.5 -156
c0 -65.333 -14.333 -125.666 -43 -180.999s-66.334 -101.666 -113.001 -138.999c-43.333 -34 -93 -59.333 -149 -76s-123.667 -25 -203 -25c-87.333 0 -158.833 7.33301 -214.5 22s-107.834 38.334 -156.501 71.001c-51.333 34.667 -96.166 78.167 -134.499 130.5
s-66.5 110.5 -84.5 174.5l158 35c11.333 -39.333 28.833 -76.166 52.5 -110.499s52.5 -64.5 86.5 -90.5c34.667 -26 74.334 -46 119.001 -60s97 -21 157 -21c105.333 0 187.666 21 246.999 63s89 101.333 89 178c0 61.333 -20.167 111.333 -60.5 150
s-97.833 67.334 -172.5 86.001l-234 57c-128 31.333 -221.333 78.5 -280 141.5s-88 140.167 -88 231.5c0 126 44 222 132 288s203 99 345 99c140 0 251.833 -30.5 335.5 -91.5s138.5 -145.167 164.5 -252.5z" />
    <glyph glyph-name="T" unicode="T" horiz-adv-x="1015" 
d="M22 1404h971v-151h-398v-1253h-176v1253h-397v151z" />
    <glyph glyph-name="U" unicode="U" horiz-adv-x="1286" 
d="M157 1404l176 -0.000976562v-884c0 -72 4.5 -129.333 13.5 -172s23.167 -78.334 42.5 -107.001c26 -38.667 61.833 -66.667 107.5 -84s100.5 -26 164.5 -26c58 0 107.5 8.83301 148.5 26.5s74.833 42.834 101.5 75.501c24 30 41.5 65.667 52.5 107s16.5 101.333 16.5 180
v884h148v-888c0 -96.667 -8.16699 -173.5 -24.5 -230.5s-42.166 -107.167 -77.499 -150.5c-43.333 -52 -97.333 -90.833 -162 -116.5s-138.334 -38.5 -221.001 -38.5c-90 0 -165.333 11.333 -226 34s-110.334 56 -149.001 100c-39.333 44 -67.666 95.833 -84.999 155.5
s-26 141.834 -26 246.501v888z" />
    <glyph glyph-name="V" unicode="V" horiz-adv-x="1132" 
d="M8 1404h184l389 -1159l387 1159h156l-475 -1404h-168z" />
    <glyph glyph-name="W" unicode="W" horiz-adv-x="1732" 
d="M40 1404h185l282 -1138l301 1138h144l321 -1138l263 1138h155l-342 -1404h-176l-305 1089l-289 -1089h-176z" />
    <glyph glyph-name="X" unicode="X" horiz-adv-x="1134" 
d="M77 1404h197l305 -520l305 520h180l-395 -649l445 -755h-197l-352 598l-365 -598h-180l457 733z" />
    <glyph glyph-name="Y" unicode="Y" horiz-adv-x="1069" 
d="M1091 1404l-469 -813v-591h-176v591l-468 813h204l373 -647l376 647h160z" />
    <glyph glyph-name="Z" unicode="Z" horiz-adv-x="1101" 
d="M94 1404h934v-116l-772 -1137h794v-151h-991v147l760 1106h-725v151z" />
    <glyph glyph-name="bracketleft" unicode="[" horiz-adv-x="571" 
d="M509 1404v-110h-223v-1533h223v-111h-366v1754h366z" />
    <glyph glyph-name="backslash" unicode="\" horiz-adv-x="1067" 
d="M178 1404l848 -1404h-140l-848 1404h140z" />
    <glyph glyph-name="bracketright" unicode="]" horiz-adv-x="571" 
d="M61 1404h367v-1754h-367v111h223v1533h-223v110z" />
    <glyph glyph-name="asciicircum" unicode="^" horiz-adv-x="1226" 
d="M614 1210l-279 -682h-123l355 876h94l354 -876h-123z" />
    <glyph glyph-name="underscore" unicode="_" horiz-adv-x="1024" 
d="M1024 -133v-127h-1024v127h1024z" />
    <glyph glyph-name="grave" unicode="`" horiz-adv-x="778" 
d="M210 1511l412 -244l-41 -82l-440 193z" />
    <glyph glyph-name="a" unicode="a" horiz-adv-x="1114" 
d="M260 755l-150.002 25.001c19.333 94.667 63.666 165.667 132.999 213s172.333 71 309 71c69.333 0 128 -6 176 -18s88.333 -31 121 -57c42 -33.333 71.667 -75.833 89 -127.5s26 -132.167 26 -241.5v-401c0 -34.667 2.33301 -70 7 -106s11.334 -73.667 20.001 -113h-164
c-4.66699 32 -8.66699 64.167 -12 96.5s-5.66602 64.833 -6.99902 97.5c-32 -67.333 -78.833 -119.833 -140.5 -157.5s-136.167 -56.5 -223.5 -56.5c-56 0 -106.5 7.66699 -151.5 23s-83.833 38 -116.5 68c-30.667 28 -54.167 60.667 -70.5 98s-24.5 78.333 -24.5 123
c0 58 12.667 109.167 38 153.5s60 81.5 104 111.5c46 31.333 100.833 53.833 164.5 67.5s158.834 20.5 285.501 20.5h135v43c0 43.333 -3.33301 78.666 -10 105.999s-16.667 50 -30 68c-19.333 26 -45.5 45 -78.5 57s-79.5 18 -139.5 18c-86 0 -153.667 -15 -203 -45
s-78.333 -75.667 -87 -137zM807.998 518.001l-132.995 0.000976562c-70.667 0 -132.334 -4 -185.001 -12s-96 -21.333 -130 -40c-35.333 -18.667 -62 -43.167 -80 -73.5s-27 -63.833 -27 -100.5c0 -27.333 6.5 -53.166 19.5 -77.499s31.833 -44.833 56.5 -61.5
c19.333 -12.667 41.666 -22.334 66.999 -29.001s53 -10 83 -10c49.333 0 95.666 10.667 138.999 32s79.666 49.666 108.999 84.999c25.333 31.333 45.166 68.833 59.499 112.5s21.5 84.5 21.5 122.5v52z" />
    <glyph glyph-name="b" unicode="b" horiz-adv-x="1132" 
d="M321 1404v-535.999c30.667 60.667 73 108.5 127 143.5s118.333 52.5 193 52.5c57.333 0 109.5 -10.333 156.5 -31s88.167 -50.334 123.5 -89.001c39.333 -44 70.666 -101.833 93.999 -173.5s35 -152.5 35 -242.5c0 -74 -9.33301 -145.5 -28 -214.5s-47 -128.5 -85 -178.5
c-40 -54.667 -86.167 -94.167 -138.5 -118.5s-109.833 -36.5 -172.5 -36.5c-73.333 0 -138.166 17.333 -194.499 52s-99.833 82.667 -130.5 144l-33.5 -93.5l-28.5 -82.5h-74v1404h156zM321 638.001l-0.00292969 -200c0 -94.667 26.333 -172.334 79 -233.001
s118.667 -91 198 -91c40.667 0 79.334 10.333 116.001 31s67.334 51.334 92.001 92.001c20 32 35.667 72.5 47 121.5s17 104.833 17 167.5c0 62 -5.5 117.5 -16.5 166.5s-26.167 89.167 -45.5 120.5c-22.667 36.667 -51.667 65.167 -87 85.5s-78 30.5 -128 30.5
c-38 0 -72.667 -6.66699 -104 -20s-59.333 -32.666 -84 -57.999c-27.333 -26.667 -48.166 -57.334 -62.499 -92.001s-21.5 -75 -21.5 -121z" />
    <glyph glyph-name="c" unicode="c" horiz-adv-x="987" 
d="M925 706l-147.006 -27.0029c-4 29.333 -11.167 58.333 -21.5 87s-22.5 52.334 -36.5 71.001c-20 28.667 -46.167 51.167 -78.5 67.5s-69.5 24.5 -111.5 24.5c-44 0 -82.667 -10 -116 -30s-61.666 -48.667 -84.999 -86c-23.333 -38 -40.333 -82 -51 -132
s-16 -104.333 -16 -163c0 -61.333 5.66699 -118.5 17 -171.5s28 -95.5 50 -127.5c22.667 -33.333 50.834 -59.166 84.501 -77.499s71.834 -27.5 114.501 -27.5c38.667 0 72.834 7 102.501 21s56.167 35.667 79.5 65c18 22.667 32.833 49 44.5 79s19.5 60.333 23.5 91
l147 -26c-6.66699 -50 -20.5 -97.167 -41.5 -141.5s-46.833 -81.833 -77.5 -112.5c-36.667 -38 -78.5 -65.833 -125.5 -83.5s-99.167 -26.5 -156.5 -26.5c-55.333 0 -107.666 8.33301 -156.999 25s-92.666 42 -129.999 76c-50 46.667 -88.5 108.834 -115.5 186.501
s-40.5 161.834 -40.5 252.501c0 72.667 8.66699 140.167 26 202.5s45 119.5 83 171.5c42.667 59.333 92.667 102.5 150 129.5s122 40.5 194 40.5c58.667 0 111.834 -9.5 159.501 -28.5s89.5 -48.833 125.5 -89.5c24.667 -28.667 46.667 -64.334 66 -107.001
s32.666 -87 39.999 -133z" />
    <glyph glyph-name="d" unicode="d" horiz-adv-x="1132" 
d="M811 1404l154.998 0.000976562v-1404h-143v176h-4c-7.33301 -18.667 -16.5 -36.5 -27.5 -53.5s-23.833 -32.833 -38.5 -47.5c-30 -30.667 -65.5 -54.167 -106.5 -70.5s-87.5 -24.5 -139.5 -24.5c-67.333 0 -126.833 13.333 -178.5 40s-96.5 65 -134.5 115
c-37.333 48.667 -65.5 105 -84.5 169s-28.5 134 -28.5 210c0 94 12.5 177.5 37.5 250.5s59.167 132.833 102.5 179.5c36.667 39.333 78.834 69.166 126.501 89.499s101.5 30.5 161.5 30.5c42.667 0 82.334 -5.5 119.001 -16.5s71 -29.167 103 -54.5
c14 -11.333 27.833 -24.5 41.5 -39.5s26.5 -31.167 38.5 -48.5v499zM810.998 423.001l0.00195312 220.001c0 36 -6.83301 71.667 -20.5 107s-31.5 65.666 -53.5 90.999c-26 29.333 -56.333 51.333 -91 66s-71.334 22 -110.001 22c-48 0 -89.333 -10.167 -124 -30.5
s-63.667 -48.833 -87 -85.5c-22 -35.333 -38 -76.833 -48 -124.5s-15 -101.834 -15 -162.501c0 -62 5.16699 -116.833 15.5 -164.5s25.5 -89.167 45.5 -124.5c23.333 -40 51.833 -70.5 85.5 -91.5s73.5 -31.5 119.5 -31.5c44 0 84.667 9.5 122 28.5
s67.666 43.833 90.999 74.5c20 25.333 36.667 57.333 50 96s20 75.334 20 110.001z" />
    <glyph glyph-name="e" unicode="e" horiz-adv-x="1091" 
d="M849 315l151.998 -30.999c-15.333 -46.667 -36.666 -88.834 -63.999 -126.501s-62.666 -71.167 -105.999 -100.5c-40 -27.333 -82 -47 -126 -59s-91.333 -18 -142 -18c-74 0 -140.5 12.333 -199.5 37s-110.833 62.667 -155.5 114c-44 50 -76.167 107.167 -96.5 171.5
s-30.5 134.833 -30.5 211.5c0 168 46 301.667 138 401s208 149 348 149s250.333 -47.167 331 -141.5s121 -223.166 121 -386.499v-37h-757c-1.33301 -34.667 1 -69.667 7 -105s15 -68 27 -98c25.333 -61.333 61 -107 107 -137s101.333 -45 166 -45c46 0 87.333 8 124 24
s67.667 38 93 66c13.333 15.333 25.5 32.666 36.5 51.999s19.833 39 26.5 59zM269.998 626.001l569 0.00292969c-0.666992 33.333 -5.16699 67.166 -13.5 101.499s-20.166 64.166 -35.499 89.499c-22.667 37.333 -52.667 66.666 -90 87.999s-81 32 -131 32
c-44 0 -85.833 -8.83301 -125.5 -26.5s-73.5 -44.167 -101.5 -79.5c-22 -27.333 -39.333 -59 -52 -95s-19.334 -72.667 -20.001 -110z" />
    <glyph glyph-name="f" unicode="f" horiz-adv-x="612" 
d="M663 1411l-0.000976562 -126.999c-24.667 4.66699 -47.667 8.16699 -69 10.5s-42.666 3.5 -63.999 3.5c-31.333 0 -57.166 -3.66699 -77.499 -11s-37.5 -18 -51.5 -32c-14.667 -14.667 -25.834 -33.5 -33.501 -56.5s-11.5 -51.167 -11.5 -84.5v-70h246v-127h-246v-917
h-156v917h-184v127h184v29c0 74 7.83301 133.333 23.5 178s39.167 80.667 70.5 108c24 21.333 54 37.666 90 48.999s78.667 17 128 17c26 0 51.833 -1.33301 77.5 -4s50.167 -6 73.5 -10z" />
    <glyph glyph-name="g" unicode="g" horiz-adv-x="1038" 
d="M1013 1200l0.000976562 -126.997h-28c-4.66699 0 -11.334 0.333008 -20.001 1s-15 1 -19 1c-24 0 -44 -3.83301 -60 -11.5s-29.667 -19.5 -41 -35.5c-5.33301 -8.66699 -11.166 -20.167 -17.499 -34.5s-11.166 -28.166 -14.499 -41.499
c34.667 -34.667 60 -73.834 76 -117.501s24 -89.834 24 -138.501c0 -42 -8.33301 -83.5 -25 -124.5s-41.667 -78.167 -75 -111.5c-33.333 -32.667 -73.5 -58.5 -120.5 -77.5s-97.167 -28.5 -150.5 -28.5c-11.333 0 -23.666 0.666992 -36.999 2s-28.333 3.33301 -45 6l-57 10
h-12c-18 0 -34.667 -2 -50 -6s-28 -9.33301 -38 -16c-12.667 -8.66699 -22.334 -19.5 -29.001 -32.5s-10 -26.833 -10 -41.5c0 -28 11 -50.5 33 -67.5s56.667 -26.5 104 -28.5l217 -11c97.333 -4 161.333 -8.66699 192 -14s58 -12.666 82 -21.999
c53.333 -21.333 93.333 -52.166 120 -92.499s40 -84.5 40 -132.5c0 -50.667 -13.333 -96.834 -40 -138.501s-65 -75.167 -115 -100.5c-40.667 -20.667 -91.667 -36.167 -153 -46.5s-130 -15.5 -206 -15.5c-154.667 0 -273.834 23.333 -357.501 70s-125.5 113.667 -125.5 201
c0 52 14.333 96.167 43 132.5s66.667 62.166 114 77.499c-30.667 17.333 -55 40 -73 68s-27 59.667 -27 95c0 46 13.333 85.667 40 119s61.334 56 104.001 68v4c-42 29.333 -75.167 66.833 -99.5 112.5s-36.5 98.167 -36.5 157.5c0 47.333 9.66699 92.666 29 135.999
s45.333 80.666 78 111.999c33.333 32 74.666 57.333 123.999 76s105.666 28 168.999 28c37.333 0 73.333 -3.5 108 -10.5s69 -17.833 103 -32.5c4 41.333 17.333 77 40 107s53.667 51 93 63c14 4.66699 27.667 8 41 10s33 3 59 3c10 0 17.5 -0.166992 22.5 -0.5
s9.83301 -0.833008 14.5 -1.5zM520.001 481.003c71.333 0 126.666 21.8311 165.999 65.498s59 98.834 59 165.501c0 32.667 -5.16699 62.667 -15.5 90s-25.5 51.333 -45.5 72c-21.333 21.333 -45.666 37.166 -72.999 47.499s-57 15.5 -89 15.5c-26.667 0 -50 -2.5 -70 -7.5
s-38.333 -12.5 -55 -22.5c-35.333 -21.333 -62.333 -49.666 -81 -84.999s-28 -72.666 -28 -111.999c0 -31.333 6.33301 -63 19 -95s29 -57.667 49 -77c18.667 -18 42.667 -32 72 -42s60 -15 92 -15zM575.001 28.001l-249.999 12c-35.333 -14.667 -62.5 -33.167 -81.5 -55.5
s-28.5 -47.833 -28.5 -76.5c0 -57.333 29 -100.666 87 -129.999s137.333 -44 238 -44c35.333 0 75.166 2.5 119.499 7.5s79.5 11.5 105.5 19.5c42.667 13.333 74.5 32.166 95.5 56.499s31.5 49.833 31.5 76.5c0 40 -17.5 70.667 -52.5 92s-123.167 35.333 -264.5 42z" />
    <glyph glyph-name="h" unicode="h" horiz-adv-x="1150" 
d="M321 1404l-0.00195312 -557c31.333 66.667 75.833 119.5 133.5 158.5s125.834 58.5 204.501 58.5c53.333 0 100.833 -8.5 142.5 -25.5s76.167 -40.5 103.5 -70.5c26 -29.333 45.833 -65.666 59.5 -108.999s20.5 -101 20.5 -173v-686h-156v647
c0 68.667 -3.66699 117 -11 145s-18 51.333 -32 70c-16 20.667 -37.167 37 -63.5 49s-57.166 18 -92.499 18c-42 0 -82.5 -8.83301 -121.5 -26.5s-73.5 -44.834 -103.5 -81.501c-28 -34 -49 -74 -63 -120s-21 -101.667 -21 -167v-534h-156v1404h156z" />
    <glyph glyph-name="i" unicode="i" horiz-adv-x="487" 
d="M321 1044v-1044h-156v1044h156zM329 1404v-180h-172v180h172z" />
    <glyph glyph-name="j" unicode="j" horiz-adv-x="485" 
d="M319 1044v-1054c0 -86 -10 -153 -30 -201s-51 -84 -93 -108c-20.667 -12 -46.667 -21.5 -78 -28.5s-66 -10.5 -104 -10.5c-23.333 0 -47.5 1.5 -72.5 4.5s-49.167 7.83301 -72.5 14.5v122c22 -4.66699 42.333 -8.16699 61 -10.5s38 -3.5 58 -3.5c35.333 0 65 5 89 15
s43.333 25.667 58 47c9.33301 14 16.333 32.833 21 56.5s7 55.167 7 94.5v1062h156zM327 1404v-180h-172v180h172z" />
    <glyph glyph-name="k" unicode="k" horiz-adv-x="1044" 
d="M321 1404v-899l481 539h172l-321 -365l364 -679h-172l-303 569l-221 -248v-321h-156v1404h156z" />
    <glyph glyph-name="l" unicode="l" horiz-adv-x="487" 
d="M321 1404v-1404h-156v1404h156z" />
    <glyph glyph-name="m" unicode="m" horiz-adv-x="1728" 
d="M321 0l-155.994 -0.00292969v1040h142v-201h2c29.333 68 72.166 122.5 128.499 163.5s119.166 61.5 188.499 61.5c46 0 87.667 -8 125 -24s68.666 -40 93.999 -72c16.667 -20 31 -43.333 43 -70s21 -53 27 -79c12 30.667 27.167 59.667 45.5 87
s37.833 50.666 58.5 69.999c33.333 32 68.833 54.667 106.5 68s79.5 20 125.5 20c48 0 91 -7.33301 129 -22s71.333 -38.667 100 -72c28 -32 48.667 -70.667 62 -116s20 -98.666 20 -159.999v-694h-156v655c0 62.667 -3.16699 107.834 -9.5 135.501s-16.5 51.5 -30.5 71.5
c-16.667 22.667 -37 39.5 -61 50.5s-52.333 16.5 -85 16.5c-36.667 0 -69.834 -6.16699 -99.501 -18.5s-57.167 -30.5 -82.5 -54.5c-32.667 -30.667 -56.834 -65.167 -72.501 -103.5s-23.5 -89.166 -23.5 -152.499v-600h-156v655c0 54.667 -4 97.334 -12 128.001
s-20.333 57 -37 79c-17.333 22.667 -38.333 39.5 -63 50.5s-55 16.5 -91 16.5c-32 0 -61.167 -5.16699 -87.5 -15.5s-50.5 -24.833 -72.5 -43.5c-34.667 -30.667 -60.334 -68.167 -77.001 -112.5s-25 -96.833 -25 -157.5v-600z" />
    <glyph glyph-name="n" unicode="n" horiz-adv-x="1150" 
d="M321 0l-156 0.000976562v1040h144v-193h4c31.333 68 77 121.167 137 159.5s129.667 57.5 209 57.5c53.333 0 100.833 -8.33301 142.5 -25s76.167 -40.334 103.5 -71.001c26 -29.333 45.833 -65.666 59.5 -108.999s20.5 -101 20.5 -173v-686h-156v647
c0 68.667 -3.66699 117 -11 145s-18 51.333 -32 70c-16 20.667 -37.333 37 -64 49s-58.667 18 -96 18c-36.667 0 -71.667 -6.66699 -105 -20s-63 -31.666 -89 -54.999c-38 -34.667 -66 -76.834 -84 -126.501s-27 -108.834 -27 -177.501v-550z" />
    <glyph glyph-name="o" unicode="o" horiz-adv-x="1105" 
d="M81 522c0 90 14.333 171.667 43 245s67 133 115 179c40 38 87 67.167 141 87.5s111.333 30.5 172 30.5c61.333 0 118.833 -10.167 172.5 -30.5s100.834 -49.5 141.501 -87.5c48 -46 86.333 -105.667 115 -179s43 -155 43 -245c0 -90.667 -14.333 -172.5 -43 -245.5
s-67 -132.5 -115 -178.5c-40.667 -38 -87.834 -67.167 -141.501 -87.5s-111.167 -30.5 -172.5 -30.5c-60.667 0 -118 10.167 -172 30.5s-101 49.5 -141 87.5c-48 46 -86.333 105.5 -115 178.5s-43 154.833 -43 245.5zM552 114c39.333 0 75.166 6.66699 107.499 20
s60.166 31.333 83.499 54c34 34 59.167 79.833 75.5 137.5s24.5 123.167 24.5 196.5c0 72.667 -8.16699 138 -24.5 196s-41.5 104 -75.5 138c-23.333 22.667 -51.166 40.5 -83.499 53.5s-68.166 19.5 -107.499 19.5c-38.667 0 -74.334 -6.5 -107.001 -19.5
s-60.334 -30.833 -83.001 -53.5c-34 -34 -59.167 -80 -75.5 -138s-24.5 -123.333 -24.5 -196c0 -73.333 8.16699 -138.833 24.5 -196.5s41.5 -103.5 75.5 -137.5c22.667 -22.667 50.334 -40.667 83.001 -54s68.334 -20 107.001 -20z" />
    <glyph glyph-name="p" unicode="p" horiz-adv-x="1124" 
d="M321 -339h-155.999v1383h144v-197l2 2c28 66 69 118.333 123 157s116.667 58 188 58c62 0 117 -10.5 165 -31.5s89.333 -50.5 124 -88.5c42.667 -48.667 75.167 -110.334 97.5 -185.001s33.5 -151.667 33.5 -231c0 -72.667 -9.33301 -144.167 -28 -214.5
s-46.334 -129.833 -83.001 -178.5c-36.667 -50 -81 -88.333 -133 -115s-110.667 -40 -176 -40c-69.333 0 -129 15.333 -179 46s-88.667 76.334 -116 137.001h-6v-502zM321.001 632v-219c0 -44 6.33301 -83.5 19 -118.5s31 -65.833 55 -92.5c24 -27.333 53 -48.833 87 -64.5
s71 -23.5 111 -23.5c41.333 0 79.833 10.333 115.5 31s65.5 51.334 89.5 92.001c20.667 34 36.5 75.833 47.5 125.5s16.5 104.167 16.5 163.5c0 62 -5.5 117.5 -16.5 166.5s-26.167 89.167 -45.5 120.5c-24 38.667 -53.667 67.667 -89 87s-74 29 -116 29
c-36.667 0 -70.667 -6.66699 -102 -20s-60 -34 -86 -62c-28 -29.333 -49.333 -61.833 -64 -97.5s-22 -74.834 -22 -117.501z" />
    <glyph glyph-name="q" unicode="q" horiz-adv-x="1140" 
d="M966 -339l-154.999 0.00195312v515h-7c-8 -22 -18.5 -42.333 -31.5 -61s-29.833 -36.667 -50.5 -54c-30.667 -26.667 -64.667 -46.834 -102 -60.501s-81 -20.5 -131 -20.5c-62 0 -117.5 12 -166.5 36s-93.167 63.667 -132.5 119c-36 50 -63.167 109.167 -81.5 177.5
s-27.5 140.166 -27.5 215.499c0 87.333 12 166.5 36 237.5s58.667 130.5 104 178.5c40 42 84.167 72.5 132.5 91.5s101.166 28.5 158.499 28.5c46 0 87.167 -5.5 123.5 -16.5s69.5 -29.167 99.5 -54.5c18 -15.333 34.5 -33 49.5 -53s27.833 -40 38.5 -60l61 164h90
c-2 -16 -3.83301 -37.167 -5.5 -63.5s-2.5 -46.833 -2.5 -61.5v-1258zM811.001 464.002l0.000976562 148.001c0 39.333 -6.5 77.666 -19.5 114.999s-30.5 70.666 -52.5 99.999c-25.333 32.667 -54.833 57.834 -88.5 75.501s-71.834 26.5 -114.501 26.5
c-44.667 0 -83.834 -10.167 -117.501 -30.5s-62.834 -48.833 -87.501 -85.5c-23.333 -36 -40.666 -78 -51.999 -126s-17 -101.667 -17 -161c0 -54.667 5 -107.5 15 -158.5s25.333 -94.5 46 -130.5c22.667 -38.667 50.834 -68.834 84.501 -90.501s73.167 -32.5 118.5 -32.5
c48.667 0 92.167 12 130.5 36s70.5 57.667 96.5 101c19.333 32 33.833 66.333 43.5 103s14.5 73.334 14.5 110.001z" />
    <glyph glyph-name="r" unicode="r" horiz-adv-x="696" 
d="M165 1044l143.999 0.000976562v-248h4c9.33301 40.667 24.5 79.167 45.5 115.5s44.833 65.5 71.5 87.5c24 20.667 51.833 37.167 83.5 49.5s65.167 18.5 100.5 18.5c12 0 22.833 -0.5 32.5 -1.5s18.5 -2.16699 26.5 -3.5v-151h-15h-17
c-53.333 -1.33301 -99.666 -11.833 -138.999 -31.5s-74.333 -48.834 -105 -87.501c-26 -32.667 -45.167 -69 -57.5 -109s-18.5 -93 -18.5 -159v-524h-156v1044z" />
    <glyph glyph-name="s" unicode="s" horiz-adv-x="1001" 
d="M905 804l-148.003 -29.9971c-16.667 49.333 -47 88.833 -91 118.5s-98.333 44.5 -163 44.5c-67.333 0 -120.666 -14 -159.999 -42s-59 -67 -59 -117c0 -36.667 12.833 -66.334 38.5 -89.001s74.167 -41 145.5 -55l142 -26c76 -14.667 131.667 -29.5 167 -44.5
s65 -33.833 89 -56.5c26.667 -24.667 47.334 -55.167 62.001 -91.5s22 -77.5 22 -123.5c0 -44 -8.33301 -84.833 -25 -122.5s-42.667 -71.167 -78 -100.5c-36 -30 -79.167 -52.333 -129.5 -67s-111.5 -22 -183.5 -22c-60 0 -114.167 4.5 -162.5 13.5
s-90.5 23.167 -126.5 42.5c-46 24.667 -84.833 57.5 -116.5 98.5s-54.167 88.167 -67.5 141.5l156 31c4.66699 -26 13.334 -50 26.001 -72s28.334 -41 47.001 -57c25.333 -22 58 -39.5 98 -52.5s86 -19.5 138 -19.5c39.333 0 74.5 4.33301 105.5 13s56.5 20.667 76.5 36
s35.333 33.5 46 54.5s16 44.5 16 70.5c0 44 -14.667 78.167 -44 102.5s-82.333 44.166 -159 59.499l-158 31c-106 20.667 -183.333 55.667 -232 105s-73 111 -73 185c0 41.333 7.83301 80 23.5 116s39.167 67.667 70.5 95c36 31.333 79 54.166 129 68.499s108 21.5 174 21.5
c72 0 132.667 -8.5 182 -25.5s92 -42.5 128 -76.5c20.667 -20 39.167 -43.5 55.5 -70.5s29.166 -56.167 38.499 -87.5z" />
    <glyph glyph-name="t" unicode="t" horiz-adv-x="647" 
d="M348 1323l-0.000976562 -279h235v-127h-235v-616c0 -37.333 3.83301 -67.5 11.5 -90.5s20.167 -42.167 37.5 -57.5c14 -12.667 31.833 -22.334 53.5 -29.001s46.167 -10 73.5 -10c15.333 0 32.833 1 52.5 3s41.167 5 64.5 9v-126
c-24.667 -3.33301 -49.667 -6.16602 -75 -8.49902s-50.333 -3.5 -75 -3.5c-54.667 0 -100.667 6.16699 -138 18.5s-67.666 30.5 -90.999 54.5c-24 24 -41.667 53.667 -53 89s-17 78 -17 128v639h-182v127h182v262z" />
    <glyph glyph-name="u" unicode="u" horiz-adv-x="1142" 
d="M976 1044v-1044h-143v206h-4c-28 -73.333 -71 -129.333 -129 -168s-122.333 -58 -193 -58c-51.333 0 -97.666 8.66699 -138.999 26s-76.666 42.333 -105.999 75c-31.333 36 -55.333 80.333 -72 133s-25 113 -25 181v649h156v-649c0 -47.333 4.33301 -89.666 13 -126.999
s22 -66.666 40 -87.999c17.333 -21.333 40.166 -37.666 68.499 -48.999s58.166 -17 89.499 -17c80 0 148.167 32.833 204.5 98.5s84.5 157.834 84.5 276.501v555h155z" />
    <glyph glyph-name="v" unicode="v" horiz-adv-x="950" 
d="M923 1044l-358 -1044h-168l-371 1044h180l285 -850h4l285 850h143z" />
    <glyph glyph-name="w" unicode="w" horiz-adv-x="1415" 
d="M1374 1044l-310 -1044h-131l-229 770l-2 2l-215 -772h-131l-316 1044h172l216 -780h4l215 780h131l225 -780h4l223 780h144z" />
    <glyph glyph-name="x" unicode="x" horiz-adv-x="894" 
d="M40 1044h189l219 -360l227 360h156l-303 -471l358 -573h-188l-262 421l-273 -421h-155l348 538z" />
    <glyph glyph-name="y" unicode="y" horiz-adv-x="874" 
d="M894 1044l-411.003 -1142c-17.333 -48 -34.5 -85.833 -51.5 -113.5s-36.833 -51.834 -59.5 -72.501c-27.333 -26 -56.666 -45.167 -87.999 -57.5s-66.666 -18.5 -105.999 -18.5c-21.333 0 -43.5 1.83301 -66.5 5.5s-44.5 8.83398 -64.5 15.501v120
c18 -4.66699 35.333 -8.16699 52 -10.5s36.667 -3.5 60 -3.5c28.667 0 51.667 2.83301 69 8.5s33.333 14.5 48 26.5c16.667 14 32.334 34 47.001 60s31.667 66.667 51 122l13 34l-367 1026h180l271 -803l280 803h143z" />
    <glyph glyph-name="z" unicode="z" horiz-adv-x="894" 
d="M837 1044v-88l-571 -830h571v-126h-766v124l553 793h-510v127h723z" />
    <glyph glyph-name="braceleft" unicode="{" horiz-adv-x="589" 
d="M573 1425l0.000976562 -123.001h-49c-38 0 -66.333 -7.83301 -85 -23.5s-28 -50.834 -28 -105.501v-332c0 -59.333 -12.667 -114 -38 -164s-62.333 -95.667 -111 -137v-2c48 -31.333 84.833 -73.666 110.5 -126.999s38.5 -111.333 38.5 -174v-331
c0 -42 8.5 -74.333 25.5 -97s44.167 -34 81.5 -34h55v-123h-94c-72 0 -126.833 18.5 -164.5 55.5s-56.5 97.167 -56.5 180.5v316c0 92 -13.833 160.5 -41.5 205.5s-63.834 67.5 -108.501 67.5h-12v123h10c48 0 85.333 22.5 112 67.5s40 112.5 40 202.5v321
c0 84.667 17 144.834 51 180.501s88.667 53.5 164 53.5h100z" />
    <glyph glyph-name="bar" unicode="|" horiz-adv-x="1036" 
d="M579 1404v-1404h-123v1404h123z" />
    <glyph glyph-name="braceright" unicode="}" horiz-adv-x="589" 
d="M16 1425l113.001 0.000976562c63.333 0 112.833 -17 148.5 -51s53.5 -95 53.5 -183v-321c0 -90 13.333 -157.5 40 -202.5s64 -67.5 112 -67.5h10v-123h-12c-44.667 0 -80.834 -22.5 -108.501 -67.5s-41.5 -113.5 -41.5 -205.5v-318c0 -76 -17.333 -134 -52 -174
s-91 -60 -169 -60h-94v123h55c37.333 0 64.5 11.333 81.5 34s25.5 55 25.5 97v331c0 62.667 12.667 120.667 38 174s62.333 95.666 111 126.999v2c-48.667 41.333 -85.667 87 -111 137s-38 104.667 -38 164v332c0 52 -8.33301 86.5 -25 103.5s-42 25.5 -76 25.5h-61v123z
" />
    <glyph glyph-name="asciitilde" unicode="~" horiz-adv-x="1292" 
d="M223 444l-94.001 61c13.333 36 30.833 70.833 52.5 104.5s44.167 60.5 67.5 80.5c23.333 19.333 50.5 35 81.5 47s61.833 18 92.5 18c9.33301 0 19.333 -0.666992 30 -2s22.667 -3.33301 36 -6c19.333 -4 38.5 -9.33301 57.5 -16s38.167 -14.334 57.5 -23.001l57 -27
c70 -32 116.667 -50.833 140 -56.5s47 -8.5 71 -8.5c23.333 0 44.333 3.33301 63 10s36.667 17 54 31c13.333 11.333 27.166 26.5 41.499 45.5s26.5 37.833 36.5 56.5l96 -57c-16 -34 -35 -66.667 -57 -98s-43.333 -56 -64 -74
c-26.667 -23.333 -55.834 -41.166 -87.501 -53.499s-63.167 -18.5 -94.5 -18.5c-20.667 0 -42.667 2.5 -66 7.5s-48.666 12.833 -75.999 23.5l-29.5 12.5c-10.333 4.33301 -33.166 15.166 -68.499 32.499l-55 27c-26.667 12.667 -52.167 22.334 -76.5 29.001
s-48.166 10 -71.499 10c-21.333 0 -41.333 -3.5 -60 -10.5s-36.667 -18.5 -54 -34.5c-12.667 -12 -26.5 -28.5 -41.5 -49.5s-27.833 -41.5 -38.5 -61.5z" />
    <glyph glyph-name="afii10051" horiz-adv-x="1429" 
d="M22 1404l974.999 -0.000976562v-151h-420v-481c49.333 19.333 102 35 158 47s109 18 159 18c70.667 0 134.334 -10.667 191.001 -32s107 -56.333 151 -105c39.333 -43.333 67.666 -89 84.999 -137s26 -102 26 -162c0 -66.667 -7 -121.834 -21 -165.501
s-35.667 -83.5 -65 -119.5c-37.333 -45.333 -83 -79.333 -137 -102s-121.667 -34 -203 -34c-35.333 0 -69.5 2.5 -102.5 7.5s-65.833 11.833 -98.5 20.5l39 143c19.333 -7.33301 39 -12.5 59 -15.5s47.667 -4.5 83 -4.5c53.333 0 97 6.83301 131 20.5s62 33.167 84 58.5
c18.667 22.667 32.5 49.334 41.5 80.001s13.5 63.667 13.5 99c0 41.333 -5 77.833 -15 109.5s-24.667 59.834 -44 84.501c-28.667 35.333 -64.167 61.333 -106.5 78s-92.833 25 -151.5 25c-51.333 0 -99.666 -5.16699 -144.999 -15.5s-89.333 -25.833 -132 -46.5v-624h-176
v1253h-379v151z" />
    <glyph glyph-name="afii10051" unicode="&#x402;" horiz-adv-x="1429" 
d="M22 1404l974.999 -0.000976562v-151h-420v-481c49.333 19.333 102 35 158 47s109 18 159 18c70.667 0 134.334 -10.667 191.001 -32s107 -56.333 151 -105c39.333 -43.333 67.666 -89 84.999 -137s26 -102 26 -162c0 -66.667 -7 -121.834 -21 -165.501
s-35.667 -83.5 -65 -119.5c-37.333 -45.333 -83 -79.333 -137 -102s-121.667 -34 -203 -34c-35.333 0 -69.5 2.5 -102.5 7.5s-65.833 11.833 -98.5 20.5l39 143c19.333 -7.33301 39 -12.5 59 -15.5s47.667 -4.5 83 -4.5c53.333 0 97 6.83301 131 20.5s62 33.167 84 58.5
c18.667 22.667 32.5 49.334 41.5 80.001s13.5 63.667 13.5 99c0 41.333 -5 77.833 -15 109.5s-24.667 59.834 -44 84.501c-28.667 35.333 -64.167 61.333 -106.5 78s-92.833 25 -151.5 25c-51.333 0 -99.666 -5.16699 -144.999 -15.5s-89.333 -25.833 -132 -46.5v-624h-176
v1253h-379v151z" />
    <glyph glyph-name="afii10052" horiz-adv-x="1015" 
d="M180 1404h835v-151h-659v-1253h-176v1404zM734 1841l70 -133l-440 -193l-41 82z" />
    <glyph glyph-name="afii10052" unicode="&#x403;" horiz-adv-x="1015" 
d="M180 1404h835v-151h-659v-1253h-176v1404zM734 1841l70 -133l-440 -193l-41 82z" />
    <glyph glyph-name="afii10061" horiz-adv-x="1289" 
d="M356 804l193.997 0.000976562c54 0 98.667 8.16699 134 24.5s64.666 43.166 87.999 80.499c21.333 35.333 42.333 99.5 63 192.5s37.667 154.5 51 184.5c20.667 44 48.667 78.167 84 102.5s79 36.5 131 36.5c10 0 20.333 -0.666992 31 -2s22.334 -3.33301 35.001 -6v-140
c-10 2 -18.5 3.33301 -25.5 4s-13.5 1 -19.5 1c-14 0 -28 -4.5 -42 -13.5s-26 -19.833 -36 -32.5c-18 -23.333 -35.333 -75.5 -52 -156.5s-30 -135.167 -40 -162.5c-17.333 -46.667 -40.166 -83.834 -68.499 -111.501s-62.833 -45.167 -103.5 -52.5v-6
c47.333 -6.66699 88.833 -24 124.5 -52s64.5 -66 86.5 -114c14.667 -32.667 30.834 -86.667 48.501 -162s36.834 -142.666 57.501 -201.999c12 -34 25.167 -56.833 39.5 -68.5s31.833 -17.5 52.5 -17.5c10 0 17.833 0.333008 23.5 1s10.834 1.66699 15.501 3v-135
c-12 -6.66699 -24.833 -11.667 -38.5 -15s-30.167 -5 -49.5 -5c-42.667 0 -79 9.16699 -109 27.5s-55.667 46.5 -77 84.5c-12.667 22.667 -24.334 49.167 -35.001 79.5s-26.667 90.5 -48 180.5c-16.667 70 -28.667 116.5 -36 139.5s-15.333 42.5 -24 58.5
c-22 40 -52 68.5 -90 85.5s-95.667 25.5 -173 25.5h-192v-661h-176v1404h176v-600zM821.997 1841l70 -133l-440 -193l-41 82z" />
    <glyph glyph-name="afii10061" unicode="&#x40c;" horiz-adv-x="1289" 
d="M356 804l193.997 0.000976562c54 0 98.667 8.16699 134 24.5s64.666 43.166 87.999 80.499c21.333 35.333 42.333 99.5 63 192.5s37.667 154.5 51 184.5c20.667 44 48.667 78.167 84 102.5s79 36.5 131 36.5c10 0 20.333 -0.666992 31 -2s22.334 -3.33301 35.001 -6v-140
c-10 2 -18.5 3.33301 -25.5 4s-13.5 1 -19.5 1c-14 0 -28 -4.5 -42 -13.5s-26 -19.833 -36 -32.5c-18 -23.333 -35.333 -75.5 -52 -156.5s-30 -135.167 -40 -162.5c-17.333 -46.667 -40.166 -83.834 -68.499 -111.501s-62.833 -45.167 -103.5 -52.5v-6
c47.333 -6.66699 88.833 -24 124.5 -52s64.5 -66 86.5 -114c14.667 -32.667 30.834 -86.667 48.501 -162s36.834 -142.666 57.501 -201.999c12 -34 25.167 -56.833 39.5 -68.5s31.833 -17.5 52.5 -17.5c10 0 17.833 0.333008 23.5 1s10.834 1.66699 15.501 3v-135
c-12 -6.66699 -24.833 -11.667 -38.5 -15s-30.167 -5 -49.5 -5c-42.667 0 -79 9.16699 -109 27.5s-55.667 46.5 -77 84.5c-12.667 22.667 -24.334 49.167 -35.001 79.5s-26.667 90.5 -48 180.5c-16.667 70 -28.667 116.5 -36 139.5s-15.333 42.5 -24 58.5
c-22 40 -52 68.5 -90 85.5s-95.667 25.5 -173 25.5h-192v-661h-176v1404h176v-600zM821.997 1841l70 -133l-440 -193l-41 82z" />
    <glyph glyph-name="afii10060" horiz-adv-x="1484" 
d="M22 1404l974.998 -0.000976562v-151h-420v-481c53.333 18 107.833 32 163.5 42s106.834 15 153.501 15c78.667 0 145 -9 199 -27s99 -44.667 135 -80c37.333 -35.333 65.5 -77.666 84.5 -126.999s28.5 -103.666 28.5 -162.999v-432h-176v389
c0 101.333 -25.167 174.666 -75.5 219.999s-126.166 68 -227.499 68c-47.333 0 -95 -4.33301 -143 -13s-95.333 -22 -142 -40v-624h-176v1253h-379v151z" />
    <glyph glyph-name="afii10060" unicode="&#x40b;" horiz-adv-x="1484" 
d="M22 1404l974.998 -0.000976562v-151h-420v-481c53.333 18 107.833 32 163.5 42s106.834 15 153.501 15c78.667 0 145 -9 199 -27s99 -44.667 135 -80c37.333 -35.333 65.5 -77.666 84.5 -126.999s28.5 -103.666 28.5 -162.999v-432h-176v389
c0 101.333 -25.167 174.666 -75.5 219.999s-126.166 68 -227.499 68c-47.333 0 -95 -4.33301 -143 -13s-95.333 -22 -142 -40v-624h-176v1253h-379v151z" />
    <glyph glyph-name="afii10145" horiz-adv-x="1343" 
d="M178 1404h176v-1251h635v1251h176v-1404h-412v-368h-164v368h-411v1404z" />
    <glyph glyph-name="afii10145" unicode="&#x40f;" horiz-adv-x="1343" 
d="M178 1404h176v-1251h635v1251h176v-1404h-412v-368h-164v368h-411v1404z" />
    <glyph glyph-name="afii10099" horiz-adv-x="1155" 
d="M169 1144l-153.001 -0.00195312v117h153v143h156v-143h385v-117h-385v-331c31.333 66 75.833 118.667 133.5 158s125.834 59 204.501 59c53.333 0 101 -8.5 143 -25.5s76.333 -40.833 103 -71.5c26 -29.333 45.833 -65.666 59.5 -108.999s20.5 -101 20.5 -173v-586
c0 -72 -5.66699 -131.667 -17 -179s-27.666 -87 -48.999 -119c-26 -39.333 -59.833 -70 -101.5 -92s-91.167 -33 -148.5 -33c-30 0 -58.5 1.5 -85.5 4.5s-54.5 7.83301 -82.5 14.5v133c22 -5.33301 45.833 -9.5 71.5 -12.5s49.167 -4.5 70.5 -4.5c41.333 0 74.333 7 99 21
s44 37 58 69c10 22 17.333 49.667 22 83s7 73 7 119v543c0 68.667 -3.66699 117 -11 145s-18 51.333 -32 70c-16 21.333 -37.167 37.833 -63.5 49.5s-57.166 17.5 -92.499 17.5c-30.667 0 -58.834 -4 -84.501 -12s-49.834 -19.667 -72.501 -35
c-50 -33.333 -87.833 -78.166 -113.5 -134.499s-38.5 -127.5 -38.5 -213.5v-499h-156v1144z" />
    <glyph glyph-name="afii10099" unicode="&#x452;" horiz-adv-x="1155" 
d="M169 1144l-153.001 -0.00195312v117h153v143h156v-143h385v-117h-385v-331c31.333 66 75.833 118.667 133.5 158s125.834 59 204.501 59c53.333 0 101 -8.5 143 -25.5s76.333 -40.833 103 -71.5c26 -29.333 45.833 -65.666 59.5 -108.999s20.5 -101 20.5 -173v-586
c0 -72 -5.66699 -131.667 -17 -179s-27.666 -87 -48.999 -119c-26 -39.333 -59.833 -70 -101.5 -92s-91.167 -33 -148.5 -33c-30 0 -58.5 1.5 -85.5 4.5s-54.5 7.83301 -82.5 14.5v133c22 -5.33301 45.833 -9.5 71.5 -12.5s49.167 -4.5 70.5 -4.5c41.333 0 74.333 7 99 21
s44 37 58 69c10 22 17.333 49.667 22 83s7 73 7 119v543c0 68.667 -3.66699 117 -11 145s-18 51.333 -32 70c-16 21.333 -37.167 37.833 -63.5 49.5s-57.166 17.5 -92.499 17.5c-30.667 0 -58.834 -4 -84.501 -12s-49.834 -19.667 -72.501 -35
c-50 -33.333 -87.833 -78.166 -113.5 -134.499s-38.5 -127.5 -38.5 -213.5v-499h-156v1144z" />
    <glyph glyph-name="afii10109" horiz-adv-x="1051" 
d="M321 608l139 -0.00195312c81.333 0 139 16.167 173 48.5s60.333 89.833 79 172.5c14 61.333 25.167 101.333 33.5 120s17.833 34 28.5 46c16 18.667 35.833 32.5 59.5 41.5s51.5 13.5 83.5 13.5c8 0 16.167 -0.333008 24.5 -1s16.5 -1.66699 24.5 -3v-123
c-4.66699 0.666992 -9.66699 1 -15 1s-11.333 -0.333008 -18 -1c-16.667 -1.33301 -30 -4.5 -40 -9.5s-18.333 -12.167 -25 -21.5c-6.66699 -8 -12.834 -20.333 -18.501 -37s-10.5 -35.667 -14.5 -57l-14 -74c-10 -48.667 -28.333 -88.5 -55 -119.5s-61 -49.833 -103 -56.5
v-4c41.333 -3.33301 74.833 -16.5 100.5 -39.5s46.834 -56.833 63.501 -101.5c12.667 -34 27 -78.5 43 -133.5s28.333 -90.5 37 -106.5c8 -16 17.167 -27.167 27.5 -33.5s27.166 -9.5 50.499 -9.5c9.33301 0 16.666 0.166992 21.999 0.5s10 0.833008 14 1.5v-124
c-9.33301 -1.33301 -19.166 -2.33301 -29.499 -3s-22.833 -1 -37.5 -1c-63.333 0 -109.833 10.833 -139.5 32.5s-58.167 76.834 -85.5 165.501c-26 84 -42.5 135.333 -49.5 154s-13.833 34.334 -20.5 47.001c-17.333 30 -40.166 52.167 -68.499 66.5s-67.5 21.5 -117.5 21.5
h-152v-481h-156v1044h156v-436zM744 1511l70 -133l-440 -193l-41 82z" />
    <glyph glyph-name="afii10109" unicode="&#x45c;" horiz-adv-x="1051" 
d="M321 608l139 -0.00195312c81.333 0 139 16.167 173 48.5s60.333 89.833 79 172.5c14 61.333 25.167 101.333 33.5 120s17.833 34 28.5 46c16 18.667 35.833 32.5 59.5 41.5s51.5 13.5 83.5 13.5c8 0 16.167 -0.333008 24.5 -1s16.5 -1.66699 24.5 -3v-123
c-4.66699 0.666992 -9.66699 1 -15 1s-11.333 -0.333008 -18 -1c-16.667 -1.33301 -30 -4.5 -40 -9.5s-18.333 -12.167 -25 -21.5c-6.66699 -8 -12.834 -20.333 -18.501 -37s-10.5 -35.667 -14.5 -57l-14 -74c-10 -48.667 -28.333 -88.5 -55 -119.5s-61 -49.833 -103 -56.5
v-4c41.333 -3.33301 74.833 -16.5 100.5 -39.5s46.834 -56.833 63.501 -101.5c12.667 -34 27 -78.5 43 -133.5s28.333 -90.5 37 -106.5c8 -16 17.167 -27.167 27.5 -33.5s27.166 -9.5 50.499 -9.5c9.33301 0 16.666 0.166992 21.999 0.5s10 0.833008 14 1.5v-124
c-9.33301 -1.33301 -19.166 -2.33301 -29.499 -3s-22.833 -1 -37.5 -1c-63.333 0 -109.833 10.833 -139.5 32.5s-58.167 76.834 -85.5 165.501c-26 84 -42.5 135.333 -49.5 154s-13.833 34.334 -20.5 47.001c-17.333 30 -40.166 52.167 -68.499 66.5s-67.5 21.5 -117.5 21.5
h-152v-481h-156v1044h156v-436zM744 1511l70 -133l-440 -193l-41 82z" />
    <glyph glyph-name="afii10108" horiz-adv-x="1155" 
d="M325 1404v-143.002h385v-117h-385v-331c31.333 66 75.833 118.667 133.5 158s125.834 59 204.501 59c53.333 0 101 -8.5 143 -25.5s76.333 -40.833 103 -71.5c26 -29.333 45.833 -65.666 59.5 -108.999s20.5 -101 20.5 -173v-651h-156v612c0 68.667 -3.66699 117 -11 145
s-18 51.333 -32 70c-16 21.333 -37.167 37.833 -63.5 49.5s-57.166 17.5 -92.499 17.5c-30.667 0 -58.834 -4 -84.501 -12s-49.834 -19.667 -72.501 -35c-50 -33.333 -87.833 -78.166 -113.5 -134.499s-38.5 -127.5 -38.5 -213.5v-499h-156v1144h-153v117h153v143h156z" />
    <glyph glyph-name="afii10108" unicode="&#x45b;" horiz-adv-x="1155" 
d="M325 1404v-143.002h385v-117h-385v-331c31.333 66 75.833 118.667 133.5 158s125.834 59 204.501 59c53.333 0 101 -8.5 143 -25.5s76.333 -40.833 103 -71.5c26 -29.333 45.833 -65.666 59.5 -108.999s20.5 -101 20.5 -173v-651h-156v612c0 68.667 -3.66699 117 -11 145
s-18 51.333 -32 70c-16 21.333 -37.167 37.833 -63.5 49.5s-57.166 17.5 -92.499 17.5c-30.667 0 -58.834 -4 -84.501 -12s-49.834 -19.667 -72.501 -35c-50 -33.333 -87.833 -78.166 -113.5 -134.499s-38.5 -127.5 -38.5 -213.5v-499h-156v1144h-153v117h153v143h156z" />
    <glyph glyph-name="afii10062" unicode="&#xa1;" horiz-adv-x="1095" 
d="M20 1404l184 -0.000976562l400 -845h2l329 845h156l-418 -1038c-40.667 -101.333 -72 -169.833 -94 -205.5s-47.333 -66.167 -76 -91.5c-31.333 -28 -67 -49.167 -107 -63.5s-80 -21.5 -120 -21.5c-16.667 0 -32.667 1.5 -48 4.5s-30.666 6.83301 -45.999 11.5v149
c12.667 -5.33301 25.334 -9 38.001 -11s26 -3 40 -3c30 0 59 4.83301 87 14.5s52 23.834 72 42.501c19.333 17.333 37.666 42.333 54.999 75s30.666 65.667 39.999 99zM742 1753h156.002c-3.33301 -34 -12.333 -66.833 -27 -98.5s-35 -59.167 -61 -82.5
c-27.333 -24 -61 -42.5 -101 -55.5s-84.333 -19.5 -133 -19.5s-93 6.5 -133 19.5s-73.333 31.5 -100 55.5c-26 23.333 -46.5 50.833 -61.5 82.5s-23.833 64.5 -26.5 98.5h155c1.33301 -42.667 17.666 -75.667 48.999 -99s70.333 -35 117 -35s85.667 11.667 117 35
s47.666 56.333 48.999 99z" />
    <glyph glyph-name="afii10062" unicode="&#x40e;" horiz-adv-x="1095" 
d="M20 1404l184 -0.000976562l400 -845h2l329 845h156l-418 -1038c-40.667 -101.333 -72 -169.833 -94 -205.5s-47.333 -66.167 -76 -91.5c-31.333 -28 -67 -49.167 -107 -63.5s-80 -21.5 -120 -21.5c-16.667 0 -32.667 1.5 -48 4.5s-30.666 6.83301 -45.999 11.5v149
c12.667 -5.33301 25.334 -9 38.001 -11s26 -3 40 -3c30 0 59 4.83301 87 14.5s52 23.834 72 42.501c19.333 17.333 37.666 42.333 54.999 75s30.666 65.667 39.999 99zM742 1753h156.002c-3.33301 -34 -12.333 -66.833 -27 -98.5s-35 -59.167 -61 -82.5
c-27.333 -24 -61 -42.5 -101 -55.5s-84.333 -19.5 -133 -19.5s-93 6.5 -133 19.5s-73.333 31.5 -100 55.5c-26 23.333 -46.5 50.833 -61.5 82.5s-23.833 64.5 -26.5 98.5h155c1.33301 -42.667 17.666 -75.667 48.999 -99s70.333 -35 117 -35s85.667 11.667 117 35
s47.666 56.333 48.999 99z" />
    <glyph glyph-name="afii10110" unicode="&#xa2;" horiz-adv-x="874" 
d="M894 1044l-411.003 -1142c-17.333 -48 -34.5 -85.833 -51.5 -113.5s-36.833 -51.834 -59.5 -72.501c-27.333 -26 -56.666 -45.167 -87.999 -57.5s-66.666 -18.5 -105.999 -18.5c-21.333 0 -43.5 1.83301 -66.5 5.5s-44.5 8.83398 -64.5 15.501v120
c18 -4.66699 35.333 -8.16699 52 -10.5s36.667 -3.5 60 -3.5c28.667 0 51.667 2.83301 69 8.5s33.333 14.5 48 26.5c16.667 14 32.334 34 47.001 60s31.667 66.667 51 122l13 34l-367 1026h180l271 -803l280 803h143zM604.997 1409h147.003c0 -29.333 -4.66699 -56 -14 -80
s-22.333 -45.333 -39 -64c-24.667 -28 -56.167 -49.333 -94.5 -64s-82.5 -22 -132.5 -22c-50.667 0 -95 7.33301 -133 22s-69.667 36 -95 64c-16 18.667 -28.833 40 -38.5 64s-14.5 50.667 -14.5 80h148c0.666992 -16 4 -31.667 10 -47s14 -28.333 24 -39
c11.333 -12 24.666 -20.833 39.999 -26.5s35 -8.5 59 -8.5c23.333 0 42.666 2.83301 57.999 8.5s28.666 14.5 39.999 26.5c10 10.667 18 23.667 24 39s9.66699 31 11 47z" />
    <glyph glyph-name="afii10110" unicode="&#x45e;" horiz-adv-x="874" 
d="M894 1044l-411.003 -1142c-17.333 -48 -34.5 -85.833 -51.5 -113.5s-36.833 -51.834 -59.5 -72.501c-27.333 -26 -56.666 -45.167 -87.999 -57.5s-66.666 -18.5 -105.999 -18.5c-21.333 0 -43.5 1.83301 -66.5 5.5s-44.5 8.83398 -64.5 15.501v120
c18 -4.66699 35.333 -8.16699 52 -10.5s36.667 -3.5 60 -3.5c28.667 0 51.667 2.83301 69 8.5s33.333 14.5 48 26.5c16.667 14 32.334 34 47.001 60s31.667 66.667 51 122l13 34l-367 1026h180l271 -803l280 803h143zM604.997 1409h147.003c0 -29.333 -4.66699 -56 -14 -80
s-22.333 -45.333 -39 -64c-24.667 -28 -56.167 -49.333 -94.5 -64s-82.5 -22 -132.5 -22c-50.667 0 -95 7.33301 -133 22s-69.667 36 -95 64c-16 18.667 -28.833 40 -38.5 64s-14.5 50.667 -14.5 80h148c0.666992 -16 4 -31.667 10 -47s14 -28.333 24 -39
c11.333 -12 24.666 -20.833 39.999 -26.5s35 -8.5 59 -8.5c23.333 0 42.666 2.83301 57.999 8.5s28.666 14.5 39.999 26.5c10 10.667 18 23.667 24 39s9.66699 31 11 47z" />
    <glyph glyph-name="afii10057" unicode="&#xa3;" horiz-adv-x="792" 
d="M626 1404l0.00292969 -946c0 -92.667 -7 -163 -21 -211s-35.667 -90.333 -65 -127c-38 -47.333 -84.833 -82.5 -140.5 -105.5s-120.834 -34.5 -195.501 -34.5c-36 0 -71 2.5 -105 7.5s-67 11.833 -99 20.5v151c27.333 -9.33301 56.166 -16.333 86.499 -21
s61.5 -7 93.5 -7c39.333 0 76.166 5.16699 110.499 15.5s62.833 26.166 85.5 47.499c27.333 24.667 46.5 53.834 57.5 87.501s16.5 84.5 16.5 152.5v970h176z" />
    <glyph glyph-name="afii10057" unicode="&#x408;" horiz-adv-x="792" 
d="M626 1404l0.00292969 -946c0 -92.667 -7 -163 -21 -211s-35.667 -90.333 -65 -127c-38 -47.333 -84.833 -82.5 -140.5 -105.5s-120.834 -34.5 -195.501 -34.5c-36 0 -71 2.5 -105 7.5s-67 11.833 -99 20.5v151c27.333 -9.33301 56.166 -16.333 86.499 -21
s61.5 -7 93.5 -7c39.333 0 76.166 5.16699 110.499 15.5s62.833 26.166 85.5 47.499c27.333 24.667 46.5 53.834 57.5 87.501s16.5 84.5 16.5 152.5v970h176z" />
    <glyph glyph-name="currency" unicode="&#xa4;" horiz-adv-x="1175" 
d="M182 391l106 106c-22 29.333 -38.333 61.333 -49 96s-16 69.667 -16 105s5.33301 70.333 16 105s27 66.667 49 96l-106 106l94 94l106 -106c28 24.667 59.167 42.334 93.5 53.001s71.5 16 111.5 16s77.333 -5.33301 112 -16s65.667 -28.334 93 -53.001l107 106l94 -94
l-107 -106c22.667 -29.333 39.334 -61.333 50.001 -96s16 -69.667 16 -105s-5.33301 -70.333 -16 -105s-27.334 -66.667 -50.001 -96l107 -106l-94 -95l-107 107c-29.333 -24 -61.333 -41.667 -96 -53s-71 -17 -109 -17s-74.167 5.66699 -108.5 17s-66.5 29 -96.5 53
l-106 -107zM358 698c0 -63.333 22.333 -117.5 67 -162.5s98.667 -67.5 162 -67.5s117.5 22.5 162.5 67.5s67.5 99.167 67.5 162.5s-22.5 117.333 -67.5 162s-99.167 67 -162.5 67s-117.333 -22.333 -162 -67s-67 -98.667 -67 -162z" />
    <glyph glyph-name="CyrHardG" unicode="&#xa5;" horiz-adv-x="1034" 
d="M180 1404h678v189h155v-344h-657v-1249h-176v1404z" />
    <glyph glyph-name="CyrHardG" unicode="&#x490;" horiz-adv-x="1034" 
d="M180 1404h678v189h155v-344h-657v-1249h-176v1404z" />
    <glyph glyph-name="brokenbar" unicode="&#xa6;" horiz-adv-x="1036" 
d="M579 563v-563h-123v563h123zM579 1404v-563h-123v563h123z" />
    <glyph glyph-name="section" unicode="&#xa7;" horiz-adv-x="1253" 
d="M1044 1150l-155.998 -16.0029c-22.667 50 -57.834 88.5 -105.501 115.5s-102.5 40.5 -164.5 40.5c-62.667 0 -115.5 -15.667 -158.5 -47s-64.5 -69 -64.5 -113c0 -49.333 17.5 -90.666 52.5 -123.999s109.5 -68.333 223.5 -105l127 -41
c103.333 -33.333 175.666 -71.666 216.999 -114.999s62 -99.333 62 -168c0 -56 -14.333 -108.833 -43 -158.5s-69.667 -95.167 -123 -136.5c63.333 -25.333 112.666 -64.666 147.999 -117.999s53 -112 53 -176c0 -96 -43.833 -182.167 -131.5 -258.5
s-205.167 -114.5 -352.5 -114.5c-115.333 0 -215.833 25.333 -301.5 76s-147.5 127.334 -185.5 230.001l180 26c27.333 -62.667 69.166 -111 125.499 -145s118.833 -51 187.5 -51c84.667 0 155.334 20.667 212.001 62s85 92.333 85 153c0 51.333 -18 93.333 -54 126
s-97.667 60.667 -185 84l-164 43c-141.333 36.667 -234.333 79.5 -279 128.5s-67 108.5 -67 178.5c0 64 18 123 54 177s84.667 97.333 146 130c-53.333 26.667 -94.5 64 -123.5 112s-43.5 102 -43.5 162c0 95.333 34.833 172.166 104.5 230.499s165.834 87.5 288.501 87.5
c106 0 197.167 -22.667 273.5 -68s130.5 -114.333 162.5 -207zM696.002 723.997l-180 63.998c-50 -23.333 -89.5 -53.166 -118.5 -89.499s-43.5 -75.5 -43.5 -117.5c0 -46 14.333 -83.667 43 -113s97 -61.333 205 -96l153 -49c44 18.667 80 47.834 108 87.501
s42 82.834 42 129.501c0 39.333 -12.833 72.166 -38.5 98.499s-82.5 54.833 -170.5 85.5z" />
    <glyph glyph-name="afii10023" unicode="&#xa8;" horiz-adv-x="1161" 
d="M180 1404h889v-151h-713v-447h565v-143h-565v-512h733v-151h-909v1404zM512 1712v-195h-195v195h195zM909 1712v-195h-195v195h195z" />
    <glyph glyph-name="afii10023" unicode="&#x401;" horiz-adv-x="1161" 
d="M180 1404h889v-151h-713v-447h565v-143h-565v-512h733v-151h-909v1404zM512 1712v-195h-195v195h195zM909 1712v-195h-195v195h195z" />
    <glyph glyph-name="copyright" unicode="&#xa9;" horiz-adv-x="1576" 
d="M995 573l123 -27c-8.66699 -35.333 -21.167 -69.666 -37.5 -102.999s-36.166 -62.333 -59.499 -87c-30 -33.333 -64.667 -58.333 -104 -75s-87 -25 -143 -25c-52.667 0 -99.5 8.5 -140.5 25.5s-77.5 42.5 -109.5 76.5c-40 41.333 -70.5 94 -91.5 158
s-31.5 132.667 -31.5 206c0 68 10.167 129.5 30.5 184.5s49.833 101.5 88.5 139.5c34.667 34.667 74.334 60.334 119.001 77.001s92.334 25 143.001 25c54.667 0 102.167 -8.83301 142.5 -26.5s75.5 -42.834 105.5 -75.501c21.333 -24 39 -50.5 53 -79.5
s25.667 -62.5 35 -100.5l-127 -25c-13.333 39.333 -23.333 66 -30 80s-14.667 27.667 -24 41c-19.333 29.333 -40.666 50 -63.999 62s-54.333 18 -93 18c-36 0 -66.5 -5.5 -91.5 -16.5s-47.167 -28.167 -66.5 -51.5c-24.667 -28.667 -43.834 -68.667 -57.501 -120
s-20.5 -104 -20.5 -158c0 -57.333 7.16699 -108.333 21.5 -153s33.166 -81 56.499 -109c19.333 -23.333 41.666 -41.166 66.999 -53.499s53.666 -18.5 84.999 -18.5c32 0 62.5 6.66699 91.5 20s52.167 31.333 69.5 54c8 9.33301 15 19.666 21 30.999s19 46.666 39 105.999z
M47 702c0 205.333 72.167 380.166 216.5 524.499s319.166 216.5 524.499 216.5s380.166 -72.167 524.499 -216.5s216.5 -319.166 216.5 -524.499s-72.167 -380 -216.5 -524s-319.166 -216 -524.499 -216s-380.166 72 -524.499 216s-216.5 318.667 -216.5 524zM1423 702
c0 174 -62.333 323.333 -187 448s-274 187 -448 187s-323.333 -62.333 -448 -187s-187 -274 -187 -448s62.333 -323.333 187 -448s274 -187 448 -187s323.333 62.333 448 187s187 274 187 448z" />
    <glyph glyph-name="afii10053" unicode="&#xaa;" horiz-adv-x="1245" 
d="M1163 1013l-172.004 -30c-11.333 34.667 -25.833 67.5 -43.5 98.5s-38.167 58.833 -61.5 83.5c-36 38.667 -74.333 66.334 -115 83.001s-84 25 -130 25c-60 0 -112 -12.167 -156 -36.5s-81.667 -58.5 -113 -102.5c-29.333 -42 -51.666 -93 -66.999 -153
s-23 -118.333 -23 -175h569v-151h-573c-0.666992 -59.333 4.83301 -117.833 16.5 -175.5s28.167 -107.167 49.5 -148.5c32 -62.667 75 -111.667 129 -147s115.333 -53 184 -53c51.333 0 97.833 10.333 139.5 31s79.834 51 114.501 91c20 23.333 37.167 48 51.5 74
s25.833 54 34.5 84l178 -35c-14 -54.667 -35 -105.167 -63 -151.5s-60.333 -85.833 -97 -118.5c-44 -40 -94.667 -71 -152 -93s-122.666 -33 -195.999 -33c-99.333 0 -189 21.5 -269 64.5s-145.333 105.833 -196 188.5c-34 56 -61.167 127.667 -81.5 215
s-30.5 181.666 -30.5 282.999c0 122 15 229.833 45 323.5s72.333 168.834 127 225.501c48 50 103.5 86.667 166.5 110s131.5 35 205.5 35c76 0 145.167 -11.833 207.5 -35.5s116.833 -58.167 163.5 -103.5c32.667 -32 62.834 -71.833 90.501 -119.5
s50.167 -98.834 67.5 -153.501z" />
    <glyph glyph-name="afii10053" unicode="&#x404;" horiz-adv-x="1245" 
d="M1163 1013l-172.004 -30c-11.333 34.667 -25.833 67.5 -43.5 98.5s-38.167 58.833 -61.5 83.5c-36 38.667 -74.333 66.334 -115 83.001s-84 25 -130 25c-60 0 -112 -12.167 -156 -36.5s-81.667 -58.5 -113 -102.5c-29.333 -42 -51.666 -93 -66.999 -153
s-23 -118.333 -23 -175h569v-151h-573c-0.666992 -59.333 4.83301 -117.833 16.5 -175.5s28.167 -107.167 49.5 -148.5c32 -62.667 75 -111.667 129 -147s115.333 -53 184 -53c51.333 0 97.833 10.333 139.5 31s79.834 51 114.501 91c20 23.333 37.167 48 51.5 74
s25.833 54 34.5 84l178 -35c-14 -54.667 -35 -105.167 -63 -151.5s-60.333 -85.833 -97 -118.5c-44 -40 -94.667 -71 -152 -93s-122.666 -33 -195.999 -33c-99.333 0 -189 21.5 -269 64.5s-145.333 105.833 -196 188.5c-34 56 -61.167 127.667 -81.5 215
s-30.5 181.666 -30.5 282.999c0 122 15 229.833 45 323.5s72.333 168.834 127 225.501c48 50 103.5 86.667 166.5 110s131.5 35 205.5 35c76 0 145.167 -11.833 207.5 -35.5s116.833 -58.167 163.5 -103.5c32.667 -32 62.834 -71.833 90.501 -119.5
s50.167 -98.834 67.5 -153.501z" />
    <glyph glyph-name="guillemotleft" unicode="&#xab;" horiz-adv-x="722" 
d="M245 526l109 -299h-90l-178 299l178 291h90zM514 526l108 -299h-90l-178 299l178 291h90z" />
    <glyph glyph-name="logicalnot" unicode="&#xac;" 
d="M1144 790v-553h-133v420h-928v133h1061z" />
    <glyph glyph-name="registered" unicode="&#xae;" horiz-adv-x="1576" 
d="M468 1132l363.001 -0.00195312c37.333 0 72.333 -4.33301 105 -13s62 -22 88 -40c32.667 -23.333 57.5 -52.166 74.5 -86.499s25.5 -69.166 25.5 -104.499c0 -26.667 -5.83301 -55.5 -17.5 -86.5s-27.834 -56.833 -48.501 -77.5c-11.333 -10.667 -25.5 -21 -42.5 -31
s-35.5 -18.667 -55.5 -26l176 -395h-139l-166 366h-236v-366h-127v860zM595.001 738.998l221.998 0.000976562c30.667 0 56.334 3.66699 77.001 11s39.334 19.333 56.001 36c12.667 13.333 22.334 28.333 29.001 45s10 36.334 10 59.001c0 21.333 -3.5 40.166 -10.5 56.499
s-18.5 31.166 -34.5 44.499c-14.667 11.333 -31.334 20 -50.001 26s-39.667 9 -63 9h-236v-287zM46.999 701.999c0 205.333 72.167 380.166 216.5 524.499s319.166 216.5 524.499 216.5s380.166 -72.167 524.499 -216.5s216.5 -319.166 216.5 -524.499
s-72.167 -380 -216.5 -524s-319.166 -216 -524.499 -216s-380.166 72 -524.499 216s-216.5 318.667 -216.5 524zM1423 701.999c0 174 -62.333 323.333 -187 448s-274 187 -448 187s-323.333 -62.333 -448 -187s-187 -274 -187 -448s62.333 -323.333 187 -448
s274 -187 448 -187s323.333 62.333 448 187s187 274 187 448z" />
    <glyph glyph-name="afii10056" unicode="&#xaf;" horiz-adv-x="561" 
d="M368 1404v-1404h-176v1404h176zM509 1712v-195h-163v195h163zM215 1712v-195h-164v195h164z" />
    <glyph glyph-name="afii10056" unicode="&#x407;" horiz-adv-x="561" 
d="M368 1404v-1404h-176v1404h176zM509 1712v-195h-163v195h163zM215 1712v-195h-164v195h164z" />
    <glyph glyph-name="degree" unicode="&#xb0;" horiz-adv-x="817" 
d="M102 1118c0 84.667 30 157 90 217s132.333 90 217 90c85.333 0 157.833 -30 217.5 -90s89.5 -132.333 89.5 -217c0 -85.333 -29.833 -157.833 -89.5 -217.5s-132.167 -89.5 -217.5 -89.5c-84.667 0 -157 29.833 -217 89.5s-90 132.167 -90 217.5zM225 1118
c0 -51.333 18 -95 54 -131s79.333 -54 130 -54c51.333 0 94.833 18 130.5 54s53.5 79.667 53.5 131c0 50.667 -17.833 94 -53.5 130s-79.167 54 -130.5 54c-50.667 0 -94 -18 -130 -54s-54 -79.333 -54 -130z" />
    <glyph glyph-name="plusminus" unicode="&#xb1;" horiz-adv-x="1316" 
d="M591 1294h133v-463h463v-133h-463v-463h-133v463h-462v133h462v463zM129 0v133h1058v-133h-1058z" />
    <glyph glyph-name="afii10055" unicode="&#xb2;" horiz-adv-x="536" 
d="M356 1404v-1404h-176v1404h176z" />
    <glyph glyph-name="afii10055" unicode="&#x406;" horiz-adv-x="536" 
d="M356 1404v-1404h-176v1404h176z" />
    <glyph glyph-name="afii10103" unicode="&#xb3;" horiz-adv-x="499" 
d="M327 1044v-1044h-155v1044h155zM335 1404v-180h-172v180h172z" />
    <glyph glyph-name="afii10103" unicode="&#x456;" horiz-adv-x="499" 
d="M327 1044v-1044h-155v1044h155zM335 1404v-180h-172v180h172z" />
    <glyph glyph-name="cyrhardg" unicode="&#xb4;" horiz-adv-x="817" 
d="M165 1044h510v129h121v-256h-475v-917h-156v1044z" />
    <glyph glyph-name="cyrhardg" unicode="&#x491;" horiz-adv-x="817" 
d="M165 1044h510v129h121v-256h-475v-917h-156v1044z" />
    <glyph glyph-name="mu" unicode="&#xb5;" horiz-adv-x="1054" 
d="M931 1044l-0.000976562 -1044h-141v206l-2 2c-30.667 -73.333 -76.167 -129.833 -136.5 -169.5s-122.166 -59.167 -185.499 -58.5c-28 0.666992 -58.833 5 -92.5 13s-65.5 19.667 -95.5 35v-367h-156v1383h156v-637c0 -92.667 16 -164 48 -214s83.667 -75 155 -75
c88 0 159.167 35.333 213.5 106s81.5 158.334 81.5 263.001v557h155z" />
    <glyph glyph-name="paragraph" unicode="&#xb6;" horiz-adv-x="1185" 
d="M1073 1404l-0.000976562 -133h-119v-1656h-133v1656h-166v-1656h-133v825c-50.667 1.33301 -99.167 11.333 -145.5 30s-88.166 44.667 -125.499 78c-46.667 42.667 -83.167 95.5 -109.5 158.5s-39.5 133.167 -39.5 210.5c0 72.667 13.833 140.667 41.5 204
s64.167 117 109.5 161c45.333 43.333 95 74.5 149 93.5s131.333 28.5 232 28.5h439z" />
    <glyph glyph-name="afii10071" unicode="&#xb8;" horiz-adv-x="1091" 
d="M849 315l151.998 -30.999c-15.333 -46.667 -36.666 -88.834 -63.999 -126.501s-62.666 -71.167 -105.999 -100.5c-40 -27.333 -82 -47 -126 -59s-91.333 -18 -142 -18c-74 0 -140.5 12.333 -199.5 37s-110.833 62.667 -155.5 114c-44 50 -76.167 107.167 -96.5 171.5
s-30.5 134.833 -30.5 211.5c0 168 46 301.667 138 401s208 149 348 149s250.333 -47.167 331 -141.5s121 -223.166 121 -386.499v-37h-757c-1.33301 -34.667 1 -69.667 7 -105s15 -68 27 -98c25.333 -61.333 61 -107 107 -137s101.333 -45 166 -45c46 0 87.333 8 124 24
s67.667 38 93 66c13.333 15.333 25.5 32.666 36.5 51.999s19.833 39 26.5 59zM269.998 626.001l569 0.00292969c-0.666992 33.333 -5.16699 67.166 -13.5 101.499s-20.166 64.166 -35.499 89.499c-22.667 37.333 -52.667 66.666 -90 87.999s-81 32 -131 32
c-44 0 -85.833 -8.83301 -125.5 -26.5s-73.5 -44.167 -101.5 -79.5c-22 -27.333 -39.333 -59 -52 -95s-19.334 -72.667 -20.001 -110zM482.998 1441v-194h-195v194h195zM873.998 1441v-194h-195v194h195z" />
    <glyph glyph-name="afii10071" unicode="&#x451;" horiz-adv-x="1091" 
d="M849 315l151.998 -30.999c-15.333 -46.667 -36.666 -88.834 -63.999 -126.501s-62.666 -71.167 -105.999 -100.5c-40 -27.333 -82 -47 -126 -59s-91.333 -18 -142 -18c-74 0 -140.5 12.333 -199.5 37s-110.833 62.667 -155.5 114c-44 50 -76.167 107.167 -96.5 171.5
s-30.5 134.833 -30.5 211.5c0 168 46 301.667 138 401s208 149 348 149s250.333 -47.167 331 -141.5s121 -223.166 121 -386.499v-37h-757c-1.33301 -34.667 1 -69.667 7 -105s15 -68 27 -98c25.333 -61.333 61 -107 107 -137s101.333 -45 166 -45c46 0 87.333 8 124 24
s67.667 38 93 66c13.333 15.333 25.5 32.666 36.5 51.999s19.833 39 26.5 59zM269.998 626.001l569 0.00292969c-0.666992 33.333 -5.16699 67.166 -13.5 101.499s-20.166 64.166 -35.499 89.499c-22.667 37.333 -52.667 66.666 -90 87.999s-81 32 -131 32
c-44 0 -85.833 -8.83301 -125.5 -26.5s-73.5 -44.167 -101.5 -79.5c-22 -27.333 -39.333 -59 -52 -95s-19.334 -72.667 -20.001 -110zM482.998 1441v-194h-195v194h195zM873.998 1441v-194h-195v194h195z" />
    <glyph glyph-name="afii61352" unicode="&#xb9;" horiz-adv-x="2080" 
d="M385 1404l667 -1144h4c-2 14.667 -3.83301 32.834 -5.5 54.501s-2.5 40.834 -2.5 57.501v1032h148v-1404h-172l-685 1177l-32 47h-6c0 -3.33301 0.166992 -5.83301 0.5 -7.5s0.833008 -3.16699 1.5 -4.5c0 -2 0.5 -5.16699 1.5 -9.5s1.83301 -8.16602 2.5 -11.499
c0.666992 -5.33301 1.5 -18 2.5 -38s1.5 -33.667 1.5 -41v-1112h-148v1404h222zM1630 1404c44.667 0 85.167 -9 121.5 -27s67.5 -43.667 93.5 -77c24 -32 41.833 -69.5 53.5 -112.5s17.5 -90.167 17.5 -141.5c0 -115.333 -27 -203.833 -81 -265.5s-122.333 -92.5 -205 -92.5
c-45.333 0 -86.166 9 -122.499 27s-67.166 43.667 -92.499 77c-24.667 32 -42.834 69.5 -54.501 112.5s-17.5 90.167 -17.5 141.5s5.83301 98.5 17.5 141.5s29.834 80.5 54.501 112.5c25.333 33.333 56.166 59 92.499 77s77.166 27 122.499 27zM1630 1298
c-28.667 0 -53.332 -6.66699 -73.999 -20s-37.667 -32.666 -51 -57.999c-12 -20.667 -20.833 -45.5 -26.5 -74.5s-8.5 -62.167 -8.5 -99.5c0 -34 2.66699 -66.167 8 -96.5s13 -54.833 23 -73.5c12.667 -26 30.667 -46.167 54 -60.5s48.333 -21.5 75 -21.5
c51.333 0 90.666 22.167 117.999 66.5s41 106.166 41 185.499c0 36.667 -2.66699 69 -8 97s-13.333 53 -24 75c-14 27.333 -31.667 47.5 -53 60.5s-46 19.5 -74 19.5zM1363 554.997h533v-107h-533v107z" />
    <glyph glyph-name="afii61352" unicode="&#x2116;" horiz-adv-x="2080" 
d="M385 1404l667 -1144h4c-2 14.667 -3.83301 32.834 -5.5 54.501s-2.5 40.834 -2.5 57.501v1032h148v-1404h-172l-685 1177l-32 47h-6c0 -3.33301 0.166992 -5.83301 0.5 -7.5s0.833008 -3.16699 1.5 -4.5c0 -2 0.5 -5.16699 1.5 -9.5s1.83301 -8.16602 2.5 -11.499
c0.666992 -5.33301 1.5 -18 2.5 -38s1.5 -33.667 1.5 -41v-1112h-148v1404h222zM1630 1404c44.667 0 85.167 -9 121.5 -27s67.5 -43.667 93.5 -77c24 -32 41.833 -69.5 53.5 -112.5s17.5 -90.167 17.5 -141.5c0 -115.333 -27 -203.833 -81 -265.5s-122.333 -92.5 -205 -92.5
c-45.333 0 -86.166 9 -122.499 27s-67.166 43.667 -92.499 77c-24.667 32 -42.834 69.5 -54.501 112.5s-17.5 90.167 -17.5 141.5s5.83301 98.5 17.5 141.5s29.834 80.5 54.501 112.5c25.333 33.333 56.166 59 92.499 77s77.166 27 122.499 27zM1630 1298
c-28.667 0 -53.332 -6.66699 -73.999 -20s-37.667 -32.666 -51 -57.999c-12 -20.667 -20.833 -45.5 -26.5 -74.5s-8.5 -62.167 -8.5 -99.5c0 -34 2.66699 -66.167 8 -96.5s13 -54.833 23 -73.5c12.667 -26 30.667 -46.167 54 -60.5s48.333 -21.5 75 -21.5
c51.333 0 90.666 22.167 117.999 66.5s41 106.166 41 185.499c0 36.667 -2.66699 69 -8 97s-13.333 53 -24 75c-14 27.333 -31.667 47.5 -53 60.5s-46 19.5 -74 19.5zM1363 554.997h533v-107h-533v107z" />
    <glyph glyph-name="afii10101" unicode="&#xba;" horiz-adv-x="1032" 
d="M944 763l-154 -26.0049c-6.66699 20.667 -15.5 40 -26.5 58s-23.167 34 -36.5 48c-27.333 28.667 -59.166 50.167 -95.499 64.5s-73.5 21.5 -111.5 21.5c-49.333 0 -91 -10 -125 -30s-62 -49.333 -84 -88c-16 -28 -28.333 -59.667 -37 -95s-12.667 -70.666 -12 -105.999
h379v-127h-379c-1.33301 -50 3.5 -97.667 14.5 -143s25.833 -83 44.5 -113c24 -38.667 52.833 -67.167 86.5 -85.5s75.167 -27.5 124.5 -27.5c39.333 0 73.333 5.33301 102 16s55.334 26.667 80.001 48c20.667 17.333 38.167 36.5 52.5 57.5s24.833 44.833 31.5 71.5
l162 -27c-14.667 -52 -37.834 -98.667 -69.501 -140s-67.834 -74.666 -108.501 -99.999c-36 -21.333 -74.167 -36.666 -114.5 -45.999s-86.166 -14 -137.499 -14c-80 0 -146 12.333 -198 37s-98.667 66 -140 124c-35.333 49.333 -62.666 108.833 -81.999 178.5
s-29 145.834 -29 228.501c0 76.667 10 148.334 30 215.001s49 122.667 87 168c39.333 47.333 83.666 81.333 132.999 102s108 31 176 31c63.333 0 118.166 -7 164.499 -21s88.5 -35.667 126.5 -65c36 -26.667 66.333 -58.167 91 -94.5s43 -76.5 55 -120.5z" />
    <glyph glyph-name="afii10101" unicode="&#x454;" horiz-adv-x="1032" 
d="M944 763l-154 -26.0049c-6.66699 20.667 -15.5 40 -26.5 58s-23.167 34 -36.5 48c-27.333 28.667 -59.166 50.167 -95.499 64.5s-73.5 21.5 -111.5 21.5c-49.333 0 -91 -10 -125 -30s-62 -49.333 -84 -88c-16 -28 -28.333 -59.667 -37 -95s-12.667 -70.666 -12 -105.999
h379v-127h-379c-1.33301 -50 3.5 -97.667 14.5 -143s25.833 -83 44.5 -113c24 -38.667 52.833 -67.167 86.5 -85.5s75.167 -27.5 124.5 -27.5c39.333 0 73.333 5.33301 102 16s55.334 26.667 80.001 48c20.667 17.333 38.167 36.5 52.5 57.5s24.833 44.833 31.5 71.5
l162 -27c-14.667 -52 -37.834 -98.667 -69.501 -140s-67.834 -74.666 -108.501 -99.999c-36 -21.333 -74.167 -36.666 -114.5 -45.999s-86.166 -14 -137.499 -14c-80 0 -146 12.333 -198 37s-98.667 66 -140 124c-35.333 49.333 -62.666 108.833 -81.999 178.5
s-29 145.834 -29 228.501c0 76.667 10 148.334 30 215.001s49 122.667 87 168c39.333 47.333 83.666 81.333 132.999 102s108 31 176 31c63.333 0 118.166 -7 164.499 -21s88.5 -35.667 126.5 -65c36 -26.667 66.333 -58.167 91 -94.5s43 -76.5 55 -120.5z" />
    <glyph glyph-name="guillemotright" unicode="&#xbb;" horiz-adv-x="722" 
d="M208 526l-108 291h90l178 -291l-178 -299h-90zM477 526l-109 291h90l178 -291l-178 -299h-90z" />
    <glyph glyph-name="afii10105" unicode="&#xbc;" horiz-adv-x="485" 
d="M319 1044v-1054c0 -86 -10 -153 -30 -201s-51 -84 -93 -108c-20.667 -12 -46.667 -21.5 -78 -28.5s-66 -10.5 -104 -10.5c-23.333 0 -47.5 1.5 -72.5 4.5s-49.167 7.83301 -72.5 14.5v122c22 -4.66699 42.333 -8.16699 61 -10.5s38 -3.5 58 -3.5c35.333 0 65 5 89 15
s43.333 25.667 58 47c9.33301 14 16.333 32.833 21 56.5s7 55.167 7 94.5v1062h156zM327 1404v-180h-172v180h172z" />
    <glyph glyph-name="afii10105" unicode="&#x458;" horiz-adv-x="485" 
d="M319 1044v-1054c0 -86 -10 -153 -30 -201s-51 -84 -93 -108c-20.667 -12 -46.667 -21.5 -78 -28.5s-66 -10.5 -104 -10.5c-23.333 0 -47.5 1.5 -72.5 4.5s-49.167 7.83301 -72.5 14.5v122c22 -4.66699 42.333 -8.16699 61 -10.5s38 -3.5 58 -3.5c35.333 0 65 5 89 15
s43.333 25.667 58 47c9.33301 14 16.333 32.833 21 56.5s7 55.167 7 94.5v1062h156zM327 1404v-180h-172v180h172z" />
    <glyph glyph-name="afii10054" unicode="&#xbd;" horiz-adv-x="1230" 
d="M1112 1081l-160 -43.0059c-10 31.333 -24.167 61.166 -42.5 89.499s-39.833 52.5 -64.5 72.5c-28.667 22.667 -63.667 40.5 -105 53.5s-88.666 19.5 -141.999 19.5c-38.667 0 -73.667 -3.66699 -105 -11s-59.333 -18.666 -84 -33.999
c-32.667 -20.667 -57.167 -47 -73.5 -79s-24.5 -66.333 -24.5 -103c0 -52 20 -94.167 60 -126.5s104 -59.166 192 -80.499l209 -51c68.667 -16.667 122 -33.667 160 -51s70.667 -37.333 98 -60c40 -32.667 71.5 -72.667 94.5 -120s34.5 -99.333 34.5 -156
c0 -65.333 -14.333 -125.666 -43 -180.999s-66.334 -101.666 -113.001 -138.999c-43.333 -34 -93 -59.333 -149 -76s-123.667 -25 -203 -25c-87.333 0 -158.833 7.33301 -214.5 22s-107.834 38.334 -156.501 71.001c-51.333 34.667 -96.166 78.167 -134.499 130.5
s-66.5 110.5 -84.5 174.5l158 35c11.333 -39.333 28.833 -76.166 52.5 -110.499s52.5 -64.5 86.5 -90.5c34.667 -26 74.334 -46 119.001 -60s97 -21 157 -21c105.333 0 187.666 21 246.999 63s89 101.333 89 178c0 61.333 -20.167 111.333 -60.5 150
s-97.833 67.334 -172.5 86.001l-234 57c-128 31.333 -221.333 78.5 -280 141.5s-88 140.167 -88 231.5c0 126 44 222 132 288s203 99 345 99c140 0 251.833 -30.5 335.5 -91.5s138.5 -145.167 164.5 -252.5z" />
    <glyph glyph-name="afii10054" unicode="&#x405;" horiz-adv-x="1230" 
d="M1112 1081l-160 -43.0059c-10 31.333 -24.167 61.166 -42.5 89.499s-39.833 52.5 -64.5 72.5c-28.667 22.667 -63.667 40.5 -105 53.5s-88.666 19.5 -141.999 19.5c-38.667 0 -73.667 -3.66699 -105 -11s-59.333 -18.666 -84 -33.999
c-32.667 -20.667 -57.167 -47 -73.5 -79s-24.5 -66.333 -24.5 -103c0 -52 20 -94.167 60 -126.5s104 -59.166 192 -80.499l209 -51c68.667 -16.667 122 -33.667 160 -51s70.667 -37.333 98 -60c40 -32.667 71.5 -72.667 94.5 -120s34.5 -99.333 34.5 -156
c0 -65.333 -14.333 -125.666 -43 -180.999s-66.334 -101.666 -113.001 -138.999c-43.333 -34 -93 -59.333 -149 -76s-123.667 -25 -203 -25c-87.333 0 -158.833 7.33301 -214.5 22s-107.834 38.334 -156.501 71.001c-51.333 34.667 -96.166 78.167 -134.499 130.5
s-66.5 110.5 -84.5 174.5l158 35c11.333 -39.333 28.833 -76.166 52.5 -110.499s52.5 -64.5 86.5 -90.5c34.667 -26 74.334 -46 119.001 -60s97 -21 157 -21c105.333 0 187.666 21 246.999 63s89 101.333 89 178c0 61.333 -20.167 111.333 -60.5 150
s-97.833 67.334 -172.5 86.001l-234 57c-128 31.333 -221.333 78.5 -280 141.5s-88 140.167 -88 231.5c0 126 44 222 132 288s203 99 345 99c140 0 251.833 -30.5 335.5 -91.5s138.5 -145.167 164.5 -252.5z" />
    <glyph glyph-name="afii10102" unicode="&#xbe;" horiz-adv-x="1001" 
d="M905 804l-148.003 -29.9971c-16.667 49.333 -47 88.833 -91 118.5s-98.333 44.5 -163 44.5c-67.333 0 -120.666 -14 -159.999 -42s-59 -67 -59 -117c0 -36.667 12.833 -66.334 38.5 -89.001s74.167 -41 145.5 -55l142 -26c76 -14.667 131.667 -29.5 167 -44.5
s65 -33.833 89 -56.5c26.667 -24.667 47.334 -55.167 62.001 -91.5s22 -77.5 22 -123.5c0 -44 -8.33301 -84.833 -25 -122.5s-42.667 -71.167 -78 -100.5c-36 -30 -79.167 -52.333 -129.5 -67s-111.5 -22 -183.5 -22c-60 0 -114.167 4.5 -162.5 13.5
s-90.5 23.167 -126.5 42.5c-46 24.667 -84.833 57.5 -116.5 98.5s-54.167 88.167 -67.5 141.5l156 31c4.66699 -26 13.334 -50 26.001 -72s28.334 -41 47.001 -57c25.333 -22 58 -39.5 98 -52.5s86 -19.5 138 -19.5c39.333 0 74.5 4.33301 105.5 13s56.5 20.667 76.5 36
s35.333 33.5 46 54.5s16 44.5 16 70.5c0 44 -14.667 78.167 -44 102.5s-82.333 44.166 -159 59.499l-158 31c-106 20.667 -183.333 55.667 -232 105s-73 111 -73 185c0 41.333 7.83301 80 23.5 116s39.167 67.667 70.5 95c36 31.333 79 54.166 129 68.499s108 21.5 174 21.5
c72 0 132.667 -8.5 182 -25.5s92 -42.5 128 -76.5c20.667 -20 39.167 -43.5 55.5 -70.5s29.166 -56.167 38.499 -87.5z" />
    <glyph glyph-name="afii10102" unicode="&#x455;" horiz-adv-x="1001" 
d="M905 804l-148.003 -29.9971c-16.667 49.333 -47 88.833 -91 118.5s-98.333 44.5 -163 44.5c-67.333 0 -120.666 -14 -159.999 -42s-59 -67 -59 -117c0 -36.667 12.833 -66.334 38.5 -89.001s74.167 -41 145.5 -55l142 -26c76 -14.667 131.667 -29.5 167 -44.5
s65 -33.833 89 -56.5c26.667 -24.667 47.334 -55.167 62.001 -91.5s22 -77.5 22 -123.5c0 -44 -8.33301 -84.833 -25 -122.5s-42.667 -71.167 -78 -100.5c-36 -30 -79.167 -52.333 -129.5 -67s-111.5 -22 -183.5 -22c-60 0 -114.167 4.5 -162.5 13.5
s-90.5 23.167 -126.5 42.5c-46 24.667 -84.833 57.5 -116.5 98.5s-54.167 88.167 -67.5 141.5l156 31c4.66699 -26 13.334 -50 26.001 -72s28.334 -41 47.001 -57c25.333 -22 58 -39.5 98 -52.5s86 -19.5 138 -19.5c39.333 0 74.5 4.33301 105.5 13s56.5 20.667 76.5 36
s35.333 33.5 46 54.5s16 44.5 16 70.5c0 44 -14.667 78.167 -44 102.5s-82.333 44.166 -159 59.499l-158 31c-106 20.667 -183.333 55.667 -232 105s-73 111 -73 185c0 41.333 7.83301 80 23.5 116s39.167 67.667 70.5 95c36 31.333 79 54.166 129 68.499s108 21.5 174 21.5
c72 0 132.667 -8.5 182 -25.5s92 -42.5 128 -76.5c20.667 -20 39.167 -43.5 55.5 -70.5s29.166 -56.167 38.499 -87.5z" />
    <glyph glyph-name="afii10104" unicode="&#xbf;" horiz-adv-x="561" 
d="M358 1044v-1044h-156v1044h156zM509 1441v-194h-163v194h163zM215 1441v-194h-164v194h164z" />
    <glyph glyph-name="afii10104" unicode="&#x457;" horiz-adv-x="561" 
d="M358 1044v-1044h-156v1044h156zM509 1441v-194h-163v194h163zM215 1441v-194h-164v194h164z" />
    <glyph glyph-name="afii10017" unicode="&#xc0;" horiz-adv-x="1146" 
d="M681 1404l457 -1404h-192l-131 407h-504l-127 -407h-160l455 1404h202zM772 550l-209 666l-211 -666h420z" />
    <glyph glyph-name="afii10017" unicode="&#x410;" horiz-adv-x="1146" 
d="M681 1404l457 -1404h-192l-131 407h-504l-127 -407h-160l455 1404h202zM772 550l-209 666l-211 -666h420z" />
    <glyph glyph-name="afii10018" unicode="&#xc1;" horiz-adv-x="1306" 
d="M1058 1404l-0.000976562 -151.001h-702v-432h350c91.333 0 166.5 -7.83301 225.5 -23.5s108.167 -40.834 147.5 -75.501c37.333 -32.667 67.5 -76.167 90.5 -130.5s34.5 -112.5 34.5 -174.5c0 -55.333 -9.33301 -110.166 -28 -164.499s-46.334 -101.166 -83.001 -140.499
c-37.333 -40 -78.666 -68.667 -123.999 -86s-99.666 -26 -162.999 -26h-626v1404h878zM355.999 668.999v-517.999h409c46 0 82.833 5.16699 110.5 15.5s51.834 26.5 72.501 48.5c21.333 22 37.833 51.167 49.5 87.5s17.5 73.833 17.5 112.5
c0 42 -6.83301 79.167 -20.5 111.5s-31.834 58.833 -54.501 79.5c-24.667 21.333 -54.667 37.166 -90 47.499s-83.333 15.5 -144 15.5h-350z" />
    <glyph glyph-name="afii10018" unicode="&#x411;" horiz-adv-x="1306" 
d="M1058 1404l-0.000976562 -151.001h-702v-432h350c91.333 0 166.5 -7.83301 225.5 -23.5s108.167 -40.834 147.5 -75.501c37.333 -32.667 67.5 -76.167 90.5 -130.5s34.5 -112.5 34.5 -174.5c0 -55.333 -9.33301 -110.166 -28 -164.499s-46.334 -101.166 -83.001 -140.499
c-37.333 -40 -78.666 -68.667 -123.999 -86s-99.666 -26 -162.999 -26h-626v1404h878zM355.999 668.999v-517.999h409c46 0 82.833 5.16699 110.5 15.5s51.834 26.5 72.501 48.5c21.333 22 37.833 51.167 49.5 87.5s17.5 73.833 17.5 112.5
c0 42 -6.83301 79.167 -20.5 111.5s-31.834 58.833 -54.501 79.5c-24.667 21.333 -54.667 37.166 -90 47.499s-83.333 15.5 -144 15.5h-350z" />
    <glyph glyph-name="afii10019" unicode="&#xc2;" horiz-adv-x="1288" 
d="M180 1404h536c80 0 142.833 -6.16699 188.5 -18.5s84.5 -29.833 116.5 -52.5c42 -29.333 74.5 -66.333 97.5 -111s34.5 -96.334 34.5 -155.001c0 -56 -9.83301 -105.333 -29.5 -148s-46.167 -77.334 -79.5 -104.001c-17.333 -14 -38 -27 -62 -39s-48.333 -21.667 -73 -29
v-4c28 -5.33301 55.667 -14.166 83 -26.499s53 -28.166 77 -47.499c43.333 -34.667 76 -77 98 -127s33 -104 33 -162s-12 -112.5 -36 -163.5s-57.333 -93.167 -100 -126.5c-39.333 -32 -84.833 -55 -136.5 -69s-121.5 -21 -209.5 -21h-538v1404zM356 1253l-0.00195312 -447
h295c64 0 114.833 5.33301 152.5 16s70.167 27.334 97.5 50.001c26 22 45 47.167 57 75.5s18 59.166 18 92.499c0 38 -6.66699 70.5 -20 97.5s-34 49.833 -62 68.5c-23.333 16 -50.666 27.833 -81.999 35.5s-75.666 11.5 -132.999 11.5h-323zM355.998 663
l0.00195312 -511.999h350c47.333 0 89.166 4.66699 125.499 14s66.833 23.666 91.5 42.999c26.667 21.333 48 48.5 64 81.5s24 70.833 24 113.5c0 35.333 -5.83301 68.333 -17.5 99s-28.834 57.667 -51.501 81c-28.667 28.667 -62.167 49.167 -100.5 61.5
s-91.833 18.5 -160.5 18.5h-325z" />
    <glyph glyph-name="afii10019" unicode="&#x412;" horiz-adv-x="1288" 
d="M180 1404h536c80 0 142.833 -6.16699 188.5 -18.5s84.5 -29.833 116.5 -52.5c42 -29.333 74.5 -66.333 97.5 -111s34.5 -96.334 34.5 -155.001c0 -56 -9.83301 -105.333 -29.5 -148s-46.167 -77.334 -79.5 -104.001c-17.333 -14 -38 -27 -62 -39s-48.333 -21.667 -73 -29
v-4c28 -5.33301 55.667 -14.166 83 -26.499s53 -28.166 77 -47.499c43.333 -34.667 76 -77 98 -127s33 -104 33 -162s-12 -112.5 -36 -163.5s-57.333 -93.167 -100 -126.5c-39.333 -32 -84.833 -55 -136.5 -69s-121.5 -21 -209.5 -21h-538v1404zM356 1253l-0.00195312 -447
h295c64 0 114.833 5.33301 152.5 16s70.167 27.334 97.5 50.001c26 22 45 47.167 57 75.5s18 59.166 18 92.499c0 38 -6.66699 70.5 -20 97.5s-34 49.833 -62 68.5c-23.333 16 -50.666 27.833 -81.999 35.5s-75.666 11.5 -132.999 11.5h-323zM355.998 663
l0.00195312 -511.999h350c47.333 0 89.166 4.66699 125.499 14s66.833 23.666 91.5 42.999c26.667 21.333 48 48.5 64 81.5s24 70.833 24 113.5c0 35.333 -5.83301 68.333 -17.5 99s-28.834 57.667 -51.501 81c-28.667 28.667 -62.167 49.167 -100.5 61.5
s-91.833 18.5 -160.5 18.5h-325z" />
    <glyph glyph-name="afii10020" unicode="&#xc3;" horiz-adv-x="1036" 
d="M180 1404h835v-151h-659v-1253h-176v1404z" />
    <glyph glyph-name="afii10020" unicode="&#x413;" horiz-adv-x="1036" 
d="M180 1404h835v-151h-659v-1253h-176v1404z" />
    <glyph glyph-name="afii10021" unicode="&#xc4;" horiz-adv-x="1345" 
d="M387 1404l753.001 0.000976562v-1253h164v-466h-164v315h-962v-315h-164v466h88c81.333 152 140.666 293.5 177.999 424.5s66 290.5 86 478.5c4.66699 43.333 7 65.166 7 65.499s4 80.833 12 241.5zM534.001 1253l-6.00098 -86.002
c-16.667 -231.333 -44.167 -423.166 -82.5 -575.499s-94.166 -299.166 -167.499 -440.499h686v1102h-430z" />
    <glyph glyph-name="afii10021" unicode="&#x414;" horiz-adv-x="1345" 
d="M387 1404l753.001 0.000976562v-1253h164v-466h-164v315h-962v-315h-164v466h88c81.333 152 140.666 293.5 177.999 424.5s66 290.5 86 478.5c4.66699 43.333 7 65.166 7 65.499s4 80.833 12 241.5zM534.001 1253l-6.00098 -86.002
c-16.667 -231.333 -44.167 -423.166 -82.5 -575.499s-94.166 -299.166 -167.499 -440.499h686v1102h-430z" />
    <glyph glyph-name="afii10022" unicode="&#xc5;" horiz-adv-x="1161" 
d="M180 1404h889v-151h-713v-447h565v-143h-565v-512h733v-151h-909v1404z" />
    <glyph glyph-name="afii10022" unicode="&#x415;" horiz-adv-x="1161" 
d="M180 1404h889v-151h-713v-447h565v-143h-565v-512h733v-151h-909v1404z" />
    <glyph glyph-name="afii10024" unicode="&#xc6;" horiz-adv-x="1884" 
d="M854 1404h175.999v-600h96c35.333 0 68.666 6 99.999 18s59.333 28.667 84 50c19.333 16.667 34.833 35 46.5 55s22.834 51.333 33.501 94c32 125.333 49 191.166 51 197.499s4 12.166 6 17.499c22 57.333 51 101.166 87 131.499s81.667 45.5 137 45.5
c12.667 0 25.334 -0.666992 38.001 -2s25 -3.66602 37 -6.99902v-137c-4 0.666992 -8.16699 1.16699 -12.5 1.5s-9.5 0.5 -15.5 0.5c-11.333 0 -22.5 -1.66699 -33.5 -5s-21.167 -8.33301 -30.5 -15c-11.333 -8.66699 -21.833 -21.167 -31.5 -37.5
s-18.167 -37.5 -25.5 -63.5c-2.66699 -9.33301 -10.334 -40.166 -23.001 -92.499s-26.334 -97.833 -41.001 -136.5c-18.667 -51.333 -40.667 -88.5 -66 -111.5s-61.333 -41.167 -108 -54.5v-6c49.333 -4.66699 92.666 -20.167 129.999 -46.5s68 -64.833 92 -115.5
c6.66699 -14.667 13.334 -31 20.001 -49s15 -42.667 25 -74c14.667 -48 28 -93.667 40 -137s21.667 -76 29 -98c12.667 -36.667 25.667 -59.834 39 -69.501s30.333 -14.5 51 -14.5c13.333 0 22 0.166992 26 0.5s7.66699 0.833008 11 1.5v-137
c-15.333 -5.33301 -30.666 -9.33301 -45.999 -12s-30.666 -4 -45.999 -4c-38.667 0 -71.667 7.66699 -99 23s-51 37.333 -71 66c-16.667 24.667 -35.5 66.5 -56.5 125.5s-39.167 121.167 -54.5 186.5c-16.667 71.333 -33.167 122.5 -49.5 153.5s-35.833 54.833 -58.5 71.5
c-19.333 14 -43.5 24.667 -72.5 32s-63.5 11 -103.5 11h-135v-661h-176v661h-136c-40 0 -74.5 -3.66699 -103.5 -11s-53.167 -18 -72.5 -32c-23.333 -17.333 -43.166 -41.5 -59.499 -72.5s-32.5 -81.833 -48.5 -152.5c-15.333 -64.667 -33.333 -126.667 -54 -186
s-39.667 -101.333 -57 -126c-20 -28.667 -43.667 -50.667 -71 -66s-60.333 -23 -99 -23c-15.333 0 -30.666 1.33301 -45.999 4s-30.666 6.66699 -45.999 12v137c3.33301 -0.666992 7 -1.16699 11 -1.5s12.667 -0.5 26 -0.5c20.667 0 37.834 4.83301 51.501 14.5
s26.5 32.834 38.5 69.501c7.33301 22 17 54.667 29 98s25.667 89 41 137c9.33301 31.333 17.333 56 24 74s13.667 34.333 21 49c24 50.667 54.5 89.167 91.5 115.5s80.167 41.833 129.5 46.5v6c-46.667 13.333 -82.667 31.5 -108 54.5s-47.333 60.167 -66 111.5
c-14.667 38.667 -28.334 84.167 -41.001 136.5s-20.334 83.166 -23.001 92.499c-7.33301 26 -15.833 47.167 -25.5 63.5s-20.167 28.833 -31.5 37.5c-9.33301 6.66699 -19.5 11.667 -30.5 15s-22.167 5 -33.5 5c-6 0 -11.167 -0.166992 -15.5 -0.5
s-8.5 -0.833008 -12.5 -1.5v137c12 3.33301 24.333 5.66602 37 6.99902s25.334 2 38.001 2c55.333 0 101 -15.167 137 -45.5s65 -74.166 87 -131.499c2 -5.33301 4 -11.166 6 -17.499s19 -72.166 51 -197.499c11.333 -42.667 22.666 -74 33.999 -94
s26.666 -38.333 45.999 -55c24.667 -21.333 52.667 -38 84 -50s64.666 -18 99.999 -18h97v600z" />
    <glyph glyph-name="afii10024" unicode="&#x416;" horiz-adv-x="1884" 
d="M854 1404h175.999v-600h96c35.333 0 68.666 6 99.999 18s59.333 28.667 84 50c19.333 16.667 34.833 35 46.5 55s22.834 51.333 33.501 94c32 125.333 49 191.166 51 197.499s4 12.166 6 17.499c22 57.333 51 101.166 87 131.499s81.667 45.5 137 45.5
c12.667 0 25.334 -0.666992 38.001 -2s25 -3.66602 37 -6.99902v-137c-4 0.666992 -8.16699 1.16699 -12.5 1.5s-9.5 0.5 -15.5 0.5c-11.333 0 -22.5 -1.66699 -33.5 -5s-21.167 -8.33301 -30.5 -15c-11.333 -8.66699 -21.833 -21.167 -31.5 -37.5
s-18.167 -37.5 -25.5 -63.5c-2.66699 -9.33301 -10.334 -40.166 -23.001 -92.499s-26.334 -97.833 -41.001 -136.5c-18.667 -51.333 -40.667 -88.5 -66 -111.5s-61.333 -41.167 -108 -54.5v-6c49.333 -4.66699 92.666 -20.167 129.999 -46.5s68 -64.833 92 -115.5
c6.66699 -14.667 13.334 -31 20.001 -49s15 -42.667 25 -74c14.667 -48 28 -93.667 40 -137s21.667 -76 29 -98c12.667 -36.667 25.667 -59.834 39 -69.501s30.333 -14.5 51 -14.5c13.333 0 22 0.166992 26 0.5s7.66699 0.833008 11 1.5v-137
c-15.333 -5.33301 -30.666 -9.33301 -45.999 -12s-30.666 -4 -45.999 -4c-38.667 0 -71.667 7.66699 -99 23s-51 37.333 -71 66c-16.667 24.667 -35.5 66.5 -56.5 125.5s-39.167 121.167 -54.5 186.5c-16.667 71.333 -33.167 122.5 -49.5 153.5s-35.833 54.833 -58.5 71.5
c-19.333 14 -43.5 24.667 -72.5 32s-63.5 11 -103.5 11h-135v-661h-176v661h-136c-40 0 -74.5 -3.66699 -103.5 -11s-53.167 -18 -72.5 -32c-23.333 -17.333 -43.166 -41.5 -59.499 -72.5s-32.5 -81.833 -48.5 -152.5c-15.333 -64.667 -33.333 -126.667 -54 -186
s-39.667 -101.333 -57 -126c-20 -28.667 -43.667 -50.667 -71 -66s-60.333 -23 -99 -23c-15.333 0 -30.666 1.33301 -45.999 4s-30.666 6.66699 -45.999 12v137c3.33301 -0.666992 7 -1.16699 11 -1.5s12.667 -0.5 26 -0.5c20.667 0 37.834 4.83301 51.501 14.5
s26.5 32.834 38.5 69.501c7.33301 22 17 54.667 29 98s25.667 89 41 137c9.33301 31.333 17.333 56 24 74s13.667 34.333 21 49c24 50.667 54.5 89.167 91.5 115.5s80.167 41.833 129.5 46.5v6c-46.667 13.333 -82.667 31.5 -108 54.5s-47.333 60.167 -66 111.5
c-14.667 38.667 -28.334 84.167 -41.001 136.5s-20.334 83.166 -23.001 92.499c-7.33301 26 -15.833 47.167 -25.5 63.5s-20.167 28.833 -31.5 37.5c-9.33301 6.66699 -19.5 11.667 -30.5 15s-22.167 5 -33.5 5c-6 0 -11.167 -0.166992 -15.5 -0.5
s-8.5 -0.833008 -12.5 -1.5v137c12 3.33301 24.333 5.66602 37 6.99902s25.334 2 38.001 2c55.333 0 101 -15.167 137 -45.5s65 -74.166 87 -131.499c2 -5.33301 4 -11.166 6 -17.499s19 -72.166 51 -197.499c11.333 -42.667 22.666 -74 33.999 -94
s26.666 -38.333 45.999 -55c24.667 -21.333 52.667 -38 84 -50s64.666 -18 99.999 -18h97v600z" />
    <glyph glyph-name="afii10025" unicode="&#xc7;" horiz-adv-x="1261" 
d="M436 661l-0.00195312 143.001h178c62 0 110.5 4 145.5 12s63.5 20.667 85.5 38c24.667 18 44.5 44.167 59.5 78.5s22.5 71.5 22.5 111.5c0 36 -7.66699 69.167 -23 99.5s-37.666 55.833 -66.999 76.5c-23.333 16.667 -52.666 29.667 -87.999 39s-73.666 14 -114.999 14
c-47.333 0 -92.5 -6.16699 -135.5 -18.5s-80.833 -30.5 -113.5 -54.5c-29.333 -21.333 -54 -46 -74 -74s-37.667 -64.333 -53 -109l-158 43c16 55.333 39.333 104.666 70 147.999s66 80 106 110c46.667 34.667 98.667 61.167 156 79.5s120 27.5 188 27.5
c67.333 0 127.666 -6.66699 180.999 -20s100.333 -32.666 141 -57.999c50.667 -32 90.167 -71.333 118.5 -118s42.5 -98 42.5 -154c0 -32.667 -4.83301 -66.5 -14.5 -101.5s-22.5 -65.5 -38.5 -91.5c-22 -36 -48.5 -64.333 -79.5 -85s-66.5 -35.334 -106.5 -44.001v-4
c38.667 -3.33301 75 -12.666 109 -27.999s63 -34.666 87 -57.999c31.333 -29.333 55.666 -65.333 72.999 -108s26 -89.334 26 -140.001c0 -66.667 -14 -128.667 -42 -186s-64 -104.333 -108 -141c-43.333 -36.667 -94.666 -63.834 -153.999 -81.501s-135 -26.5 -227 -26.5
c-88 0 -161.333 8 -220 24s-111 42.333 -157 79c-40 32.667 -75.667 74 -107 124s-53.666 105.667 -66.999 167l170 37c8.66699 -33.333 21.667 -65.666 39 -96.999s38.666 -59 63.999 -83c34.667 -34 75 -59.167 121 -75.5s100.333 -24.5 163 -24.5
c56 0 103.833 6.33301 143.5 19s74.5 32 104.5 58c30.667 26.667 53 56.167 67 88.5s21 67.166 21 104.499c0 46.667 -8.66699 87.5 -26 122.5s-43.333 63.167 -78 84.5c-30 18 -64.167 31.333 -102.5 40s-82.833 13 -133.5 13h-194z" />
    <glyph glyph-name="afii10025" unicode="&#x417;" horiz-adv-x="1261" 
d="M436 661l-0.00195312 143.001h178c62 0 110.5 4 145.5 12s63.5 20.667 85.5 38c24.667 18 44.5 44.167 59.5 78.5s22.5 71.5 22.5 111.5c0 36 -7.66699 69.167 -23 99.5s-37.666 55.833 -66.999 76.5c-23.333 16.667 -52.666 29.667 -87.999 39s-73.666 14 -114.999 14
c-47.333 0 -92.5 -6.16699 -135.5 -18.5s-80.833 -30.5 -113.5 -54.5c-29.333 -21.333 -54 -46 -74 -74s-37.667 -64.333 -53 -109l-158 43c16 55.333 39.333 104.666 70 147.999s66 80 106 110c46.667 34.667 98.667 61.167 156 79.5s120 27.5 188 27.5
c67.333 0 127.666 -6.66699 180.999 -20s100.333 -32.666 141 -57.999c50.667 -32 90.167 -71.333 118.5 -118s42.5 -98 42.5 -154c0 -32.667 -4.83301 -66.5 -14.5 -101.5s-22.5 -65.5 -38.5 -91.5c-22 -36 -48.5 -64.333 -79.5 -85s-66.5 -35.334 -106.5 -44.001v-4
c38.667 -3.33301 75 -12.666 109 -27.999s63 -34.666 87 -57.999c31.333 -29.333 55.666 -65.333 72.999 -108s26 -89.334 26 -140.001c0 -66.667 -14 -128.667 -42 -186s-64 -104.333 -108 -141c-43.333 -36.667 -94.666 -63.834 -153.999 -81.501s-135 -26.5 -227 -26.5
c-88 0 -161.333 8 -220 24s-111 42.333 -157 79c-40 32.667 -75.667 74 -107 124s-53.666 105.667 -66.999 167l170 37c8.66699 -33.333 21.667 -65.666 39 -96.999s38.666 -59 63.999 -83c34.667 -34 75 -59.167 121 -75.5s100.333 -24.5 163 -24.5
c56 0 103.833 6.33301 143.5 19s74.5 32 104.5 58c30.667 26.667 53 56.167 67 88.5s21 67.166 21 104.499c0 46.667 -8.66699 87.5 -26 122.5s-43.333 63.167 -78 84.5c-30 18 -64.167 31.333 -102.5 40s-82.833 13 -133.5 13h-194z" />
    <glyph glyph-name="afii10026" unicode="&#xc8;" horiz-adv-x="1388" 
d="M180 1404l175.999 -0.000976562v-944c0 -10.667 -0.666992 -29.5 -2 -56.5s-2.66602 -51.167 -3.99902 -72.5c24.667 45.333 38.667 70.833 42 76.5s7 10.834 11 15.501l629 885v96h176v-1404h-176v948c0 16.667 0.5 38.667 1.5 66s2.5 54.333 4.5 81l-31 -56
c-10 -17.333 -17.333 -29.333 -22 -36l-629 -881v-122h-176v1404z" />
    <glyph glyph-name="afii10026" unicode="&#x418;" horiz-adv-x="1388" 
d="M180 1404l175.999 -0.000976562v-944c0 -10.667 -0.666992 -29.5 -2 -56.5s-2.66602 -51.167 -3.99902 -72.5c24.667 45.333 38.667 70.833 42 76.5s7 10.834 11 15.501l629 885v96h176v-1404h-176v948c0 16.667 0.5 38.667 1.5 66s2.5 54.333 4.5 81l-31 -56
c-10 -17.333 -17.333 -29.333 -22 -36l-629 -881v-122h-176v1404z" />
    <glyph glyph-name="afii10027" unicode="&#xc9;" horiz-adv-x="1388" 
d="M180 1404h175.999v-944c0 -10.667 -0.666992 -29.5 -2 -56.5s-2.66602 -51.167 -3.99902 -72.5c32 56.667 48.333 85.5 49 86.5s2 2.83301 4 5.5l629 885v96h176v-1404h-176v913c0 34 0.5 65 1.5 93s2.5 57.667 4.5 89l-31 -56c-10 -17.333 -17.333 -29.333 -22 -36
l-629 -881v-122h-176v1404zM859.999 1753h155.002c-2.66699 -34 -11.5 -66.833 -26.5 -98.5s-35.5 -59.167 -61.5 -82.5c-26.667 -24 -60 -42.5 -100 -55.5s-84.333 -19.5 -133 -19.5s-93 6.5 -133 19.5s-73.667 31.5 -101 55.5c-26 23.333 -46.333 50.833 -61 82.5
s-23.667 64.5 -27 98.5h156c1.33301 -42.667 17.666 -75.667 48.999 -99s70.333 -35 117 -35s85.667 11.667 117 35s47.666 56.333 48.999 99z" />
    <glyph glyph-name="afii10027" unicode="&#x419;" horiz-adv-x="1388" 
d="M180 1404h175.999v-944c0 -10.667 -0.666992 -29.5 -2 -56.5s-2.66602 -51.167 -3.99902 -72.5c32 56.667 48.333 85.5 49 86.5s2 2.83301 4 5.5l629 885v96h176v-1404h-176v913c0 34 0.5 65 1.5 93s2.5 57.667 4.5 89l-31 -56c-10 -17.333 -17.333 -29.333 -22 -36
l-629 -881v-122h-176v1404zM859.999 1753h155.002c-2.66699 -34 -11.5 -66.833 -26.5 -98.5s-35.5 -59.167 -61.5 -82.5c-26.667 -24 -60 -42.5 -100 -55.5s-84.333 -19.5 -133 -19.5s-93 6.5 -133 19.5s-73.667 31.5 -101 55.5c-26 23.333 -46.333 50.833 -61 82.5
s-23.667 64.5 -27 98.5h156c1.33301 -42.667 17.666 -75.667 48.999 -99s70.333 -35 117 -35s85.667 11.667 117 35s47.666 56.333 48.999 99z" />
    <glyph glyph-name="afii10028" unicode="&#xca;" horiz-adv-x="1290" 
d="M356 804l193.997 0.000976562c54 0 98.667 8.16699 134 24.5s64.666 43.166 87.999 80.499c21.333 35.333 42.333 99.5 63 192.5s37.667 154.5 51 184.5c20.667 44 48.667 78.167 84 102.5s79 36.5 131 36.5c10 0 20.333 -0.666992 31 -2s22.334 -3.33301 35.001 -6v-140
c-10 2 -18.5 3.33301 -25.5 4s-13.5 1 -19.5 1c-14 0 -28 -4.5 -42 -13.5s-26 -19.833 -36 -32.5c-18 -23.333 -35.333 -75.5 -52 -156.5s-30 -135.167 -40 -162.5c-17.333 -46.667 -40.166 -83.834 -68.499 -111.501s-62.833 -45.167 -103.5 -52.5v-6
c47.333 -6.66699 88.833 -24 124.5 -52s64.5 -66 86.5 -114c14.667 -32.667 30.834 -86.667 48.501 -162s36.834 -142.666 57.501 -201.999c12 -34 25.167 -56.833 39.5 -68.5s31.833 -17.5 52.5 -17.5c10 0 17.833 0.333008 23.5 1s10.834 1.66699 15.501 3v-135
c-12 -6.66699 -24.833 -11.667 -38.5 -15s-30.167 -5 -49.5 -5c-42.667 0 -79 9.16699 -109 27.5s-55.667 46.5 -77 84.5c-12.667 22.667 -24.334 49.167 -35.001 79.5s-26.667 90.5 -48 180.5c-16.667 70 -28.667 116.5 -36 139.5s-15.333 42.5 -24 58.5
c-22 40 -52 68.5 -90 85.5s-95.667 25.5 -173 25.5h-192v-661h-176v1404h176v-600z" />
    <glyph glyph-name="afii10028" unicode="&#x41a;" horiz-adv-x="1290" 
d="M356 804l193.997 0.000976562c54 0 98.667 8.16699 134 24.5s64.666 43.166 87.999 80.499c21.333 35.333 42.333 99.5 63 192.5s37.667 154.5 51 184.5c20.667 44 48.667 78.167 84 102.5s79 36.5 131 36.5c10 0 20.333 -0.666992 31 -2s22.334 -3.33301 35.001 -6v-140
c-10 2 -18.5 3.33301 -25.5 4s-13.5 1 -19.5 1c-14 0 -28 -4.5 -42 -13.5s-26 -19.833 -36 -32.5c-18 -23.333 -35.333 -75.5 -52 -156.5s-30 -135.167 -40 -162.5c-17.333 -46.667 -40.166 -83.834 -68.499 -111.501s-62.833 -45.167 -103.5 -52.5v-6
c47.333 -6.66699 88.833 -24 124.5 -52s64.5 -66 86.5 -114c14.667 -32.667 30.834 -86.667 48.501 -162s36.834 -142.666 57.501 -201.999c12 -34 25.167 -56.833 39.5 -68.5s31.833 -17.5 52.5 -17.5c10 0 17.833 0.333008 23.5 1s10.834 1.66699 15.501 3v-135
c-12 -6.66699 -24.833 -11.667 -38.5 -15s-30.167 -5 -49.5 -5c-42.667 0 -79 9.16699 -109 27.5s-55.667 46.5 -77 84.5c-12.667 22.667 -24.334 49.167 -35.001 79.5s-26.667 90.5 -48 180.5c-16.667 70 -28.667 116.5 -36 139.5s-15.333 42.5 -24 58.5
c-22 40 -52 68.5 -90 85.5s-95.667 25.5 -173 25.5h-192v-661h-176v1404h176v-600z" />
    <glyph glyph-name="afii10029" unicode="&#xcb;" horiz-adv-x="1331" 
d="M333 1404l816.999 -0.00195312v-1404h-176v1253h-479c0 -312.667 -17.5 -571.167 -52.5 -775.5s-89.833 -341.166 -164.5 -410.499c-26 -24 -55 -42.5 -87 -55.5s-68 -19.5 -108 -19.5c-14 0 -25.667 0.666992 -35 2s-18.666 3.33301 -27.999 6v161
c6.66699 -1.33301 12.834 -2.33301 18.501 -3s11.167 -1 16.5 -1c37.333 0 69.166 8.33301 95.499 25s49.833 43.334 70.5 80.001c40 70.667 68.667 196.5 86 377.5s26 414.833 26 701.5v63z" />
    <glyph glyph-name="afii10029" unicode="&#x41b;" horiz-adv-x="1331" 
d="M333 1404l816.999 -0.00195312v-1404h-176v1253h-479c0 -312.667 -17.5 -571.167 -52.5 -775.5s-89.833 -341.166 -164.5 -410.499c-26 -24 -55 -42.5 -87 -55.5s-68 -19.5 -108 -19.5c-14 0 -25.667 0.666992 -35 2s-18.666 3.33301 -27.999 6v161
c6.66699 -1.33301 12.834 -2.33301 18.501 -3s11.167 -1 16.5 -1c37.333 0 69.166 8.33301 95.499 25s49.833 43.334 70.5 80.001c40 70.667 68.667 196.5 86 377.5s26 414.833 26 701.5v63z" />
    <glyph glyph-name="afii10030" unicode="&#xcc;" horiz-adv-x="1720" 
d="M438 1404l422 -1124h4l418 1124h258v-1404h-177v1226h-4l-450 -1226h-119l-461 1226h-2v-1226h-147v1404h258z" />
    <glyph glyph-name="afii10030" unicode="&#x41c;" horiz-adv-x="1720" 
d="M438 1404l422 -1124h4l418 1124h258v-1404h-177v1226h-4l-450 -1226h-119l-461 1226h-2v-1226h-147v1404h258z" />
    <glyph glyph-name="afii10031" unicode="&#xcd;" horiz-adv-x="1368" 
d="M1187 1404v-1404h-176v671h-655v-671h-176v1404h176v-589h655v589h176z" />
    <glyph glyph-name="afii10031" unicode="&#x41d;" horiz-adv-x="1368" 
d="M1187 1404v-1404h-176v671h-655v-671h-176v1404h176v-589h655v589h176z" />
    <glyph glyph-name="afii10032" unicode="&#xce;" horiz-adv-x="1335" 
d="M667 1425c74 0 142.667 -12.167 206 -36.5s120.333 -61.5 171 -111.5c62 -60.667 111 -140 147 -238s54 -210.333 54 -337s-18 -239 -54 -337s-85 -177.667 -147 -239c-50.667 -49.333 -107.667 -86 -171 -110s-132 -36 -206 -36c-73.333 0 -141.833 12 -205.5 36
s-120.834 60.667 -171.501 110c-62 61.333 -110.833 141 -146.5 239s-53.5 210.333 -53.5 337s17.833 239 53.5 337s84.5 177.333 146.5 238c50.667 50 107.834 87.167 171.501 111.5s132.167 36.5 205.5 36.5zM667 1273c-54 0 -104.167 -11.833 -150.5 -35.5
s-86.833 -58.167 -121.5 -103.5c-36.667 -47.333 -65.334 -107.833 -86.001 -181.5s-31 -157.167 -31 -250.5s10.333 -176.833 31 -250.5s49.334 -134.167 86.001 -181.5c34.667 -45.333 75.167 -79.833 121.5 -103.5s96.5 -35.5 150.5 -35.5s104.167 11.833 150.5 35.5
s87.166 58.167 122.499 103.5c36.667 47.333 65.167 107.833 85.5 181.5s30.5 157.167 30.5 250.5s-10.167 176.833 -30.5 250.5s-48.833 134.167 -85.5 181.5c-35.333 45.333 -76.166 79.833 -122.499 103.5s-96.5 35.5 -150.5 35.5z" />
    <glyph glyph-name="afii10032" unicode="&#x41e;" horiz-adv-x="1335" 
d="M667 1425c74 0 142.667 -12.167 206 -36.5s120.333 -61.5 171 -111.5c62 -60.667 111 -140 147 -238s54 -210.333 54 -337s-18 -239 -54 -337s-85 -177.667 -147 -239c-50.667 -49.333 -107.667 -86 -171 -110s-132 -36 -206 -36c-73.333 0 -141.833 12 -205.5 36
s-120.834 60.667 -171.501 110c-62 61.333 -110.833 141 -146.5 239s-53.5 210.333 -53.5 337s17.833 239 53.5 337s84.5 177.333 146.5 238c50.667 50 107.834 87.167 171.501 111.5s132.167 36.5 205.5 36.5zM667 1273c-54 0 -104.167 -11.833 -150.5 -35.5
s-86.833 -58.167 -121.5 -103.5c-36.667 -47.333 -65.334 -107.833 -86.001 -181.5s-31 -157.167 -31 -250.5s10.333 -176.833 31 -250.5s49.334 -134.167 86.001 -181.5c34.667 -45.333 75.167 -79.833 121.5 -103.5s96.5 -35.5 150.5 -35.5s104.167 11.833 150.5 35.5
s87.166 58.167 122.499 103.5c36.667 47.333 65.167 107.833 85.5 181.5s30.5 157.167 30.5 250.5s-10.167 176.833 -30.5 250.5s-48.833 134.167 -85.5 181.5c-35.333 45.333 -76.166 79.833 -122.499 103.5s-96.5 35.5 -150.5 35.5z" />
    <glyph glyph-name="afii10033" unicode="&#xcf;" horiz-adv-x="1347" 
d="M180 1404h987v-1404h-176v1253h-635v-1253h-176v1404z" />
    <glyph glyph-name="afii10033" unicode="&#x41f;" horiz-adv-x="1347" 
d="M180 1404h987v-1404h-176v1253h-635v-1253h-176v1404z" />
    <glyph glyph-name="afii10034" unicode="&#xd0;" horiz-adv-x="1198" 
d="M180 1404l465 0.00195312c86 0 156.167 -7.5 210.5 -22.5s101.5 -37.5 141.5 -67.5c47.333 -35.333 84 -79.833 110 -133.5s39 -115.5 39 -185.5c0 -64.667 -11.333 -123.834 -34 -177.501s-55 -99.834 -97 -138.501c-39.333 -36 -85.333 -63.333 -138 -82
s-128 -28 -226 -28h-295v-569h-176v1404zM356 720.002h273.999c67.333 0 119 6 155 18s66.333 29.333 91 52s44.5 52.167 59.5 88.5s22.5 76.5 22.5 120.5c0 38 -6.83301 73.5 -20.5 106.5s-34.167 60.833 -61.5 83.5c-24.667 20.667 -55.667 36.5 -93 47.5
s-82.666 16.5 -135.999 16.5h-291v-533z" />
    <glyph glyph-name="afii10034" unicode="&#x420;" horiz-adv-x="1198" 
d="M180 1404l465 0.00195312c86 0 156.167 -7.5 210.5 -22.5s101.5 -37.5 141.5 -67.5c47.333 -35.333 84 -79.833 110 -133.5s39 -115.5 39 -185.5c0 -64.667 -11.333 -123.834 -34 -177.501s-55 -99.834 -97 -138.501c-39.333 -36 -85.333 -63.333 -138 -82
s-128 -28 -226 -28h-295v-569h-176v1404zM356 720.002h273.999c67.333 0 119 6 155 18s66.333 29.333 91 52s44.5 52.167 59.5 88.5s22.5 76.5 22.5 120.5c0 38 -6.83301 73.5 -20.5 106.5s-34.167 60.833 -61.5 83.5c-24.667 20.667 -55.667 36.5 -93 47.5
s-82.666 16.5 -135.999 16.5h-291v-533z" />
    <glyph glyph-name="afii10035" unicode="&#xd1;" horiz-adv-x="1236" 
d="M1179 976l-165.997 -30.002c-6.66699 32.667 -16.334 64.834 -29.001 96.501s-27.334 60.167 -44.001 85.5c-34 50.667 -72.833 87.5 -116.5 110.5s-95.167 34.5 -154.5 34.5c-71.333 0 -132.666 -15.667 -183.999 -47s-94.333 -77.666 -129 -138.999
c-24.667 -43.333 -43.834 -95.666 -57.501 -156.999s-20.5 -132.666 -20.5 -213.999c0 -74.667 5.66699 -142.667 17 -204s27.666 -114 48.999 -158c34 -72.667 78.667 -128 134 -166s119 -57 191 -57c50 0 93.333 8.5 130 25.5s71.334 43.167 104.001 78.5
c28 31.333 52.167 67.333 72.5 108s34.833 84 43.5 130l160 -35c-12 -59.333 -31.333 -116 -58 -170s-60 -102 -100 -144c-44.667 -47.333 -93.667 -83.166 -147 -107.499s-119 -36.5 -197 -36.5c-104.667 0 -193.5 20.333 -266.5 61s-135.5 100.667 -187.5 180
c-43.333 65.333 -76.333 142.166 -99 230.499s-34 179.166 -34 272.499c0 109.333 14.167 208 42.5 296s67.166 161 116.499 219c52.667 61.333 114.5 107.666 185.5 138.999s150.5 47 238.5 47c73.333 0 137.833 -9.83301 193.5 -29.5s106.5 -51.5 152.5 -95.5
c41.333 -38.667 76.333 -86.167 105 -142.5s47 -116.833 55 -181.5z" />
    <glyph glyph-name="afii10035" unicode="&#x421;" horiz-adv-x="1236" 
d="M1179 976l-165.997 -30.002c-6.66699 32.667 -16.334 64.834 -29.001 96.501s-27.334 60.167 -44.001 85.5c-34 50.667 -72.833 87.5 -116.5 110.5s-95.167 34.5 -154.5 34.5c-71.333 0 -132.666 -15.667 -183.999 -47s-94.333 -77.666 -129 -138.999
c-24.667 -43.333 -43.834 -95.666 -57.501 -156.999s-20.5 -132.666 -20.5 -213.999c0 -74.667 5.66699 -142.667 17 -204s27.666 -114 48.999 -158c34 -72.667 78.667 -128 134 -166s119 -57 191 -57c50 0 93.333 8.5 130 25.5s71.334 43.167 104.001 78.5
c28 31.333 52.167 67.333 72.5 108s34.833 84 43.5 130l160 -35c-12 -59.333 -31.333 -116 -58 -170s-60 -102 -100 -144c-44.667 -47.333 -93.667 -83.166 -147 -107.499s-119 -36.5 -197 -36.5c-104.667 0 -193.5 20.333 -266.5 61s-135.5 100.667 -187.5 180
c-43.333 65.333 -76.333 142.166 -99 230.499s-34 179.166 -34 272.499c0 109.333 14.167 208 42.5 296s67.166 161 116.499 219c52.667 61.333 114.5 107.666 185.5 138.999s150.5 47 238.5 47c73.333 0 137.833 -9.83301 193.5 -29.5s106.5 -51.5 152.5 -95.5
c41.333 -38.667 76.333 -86.167 105 -142.5s47 -116.833 55 -181.5z" />
    <glyph glyph-name="afii10036" unicode="&#xd2;" horiz-adv-x="1015" 
d="M22 1404h971v-151h-398v-1253h-176v1253h-397v151z" />
    <glyph glyph-name="afii10036" unicode="&#x422;" horiz-adv-x="1015" 
d="M22 1404h971v-151h-398v-1253h-176v1253h-397v151z" />
    <glyph glyph-name="afii10037" unicode="&#xd3;" horiz-adv-x="1095" 
d="M20 1404l184 -0.000976562l400 -845h2l329 845h156l-418 -1038c-40.667 -101.333 -72 -169.833 -94 -205.5s-47.333 -66.167 -76 -91.5c-31.333 -28 -67 -49.167 -107 -63.5s-80 -21.5 -120 -21.5c-16.667 0 -32.667 1.5 -48 4.5s-30.666 6.83301 -45.999 11.5v149
c12.667 -5.33301 25.334 -9 38.001 -11s26 -3 40 -3c30 0 59 4.83301 87 14.5s52 23.834 72 42.501c19.333 17.333 37.666 42.333 54.999 75s30.666 65.667 39.999 99z" />
    <glyph glyph-name="afii10037" unicode="&#x423;" horiz-adv-x="1095" 
d="M20 1404l184 -0.000976562l400 -845h2l329 845h156l-418 -1038c-40.667 -101.333 -72 -169.833 -94 -205.5s-47.333 -66.167 -76 -91.5c-31.333 -28 -67 -49.167 -107 -63.5s-80 -21.5 -120 -21.5c-16.667 0 -32.667 1.5 -48 4.5s-30.666 6.83301 -45.999 11.5v149
c12.667 -5.33301 25.334 -9 38.001 -11s26 -3 40 -3c30 0 59 4.83301 87 14.5s52 23.834 72 42.501c19.333 17.333 37.666 42.333 54.999 75s30.666 65.667 39.999 99z" />
    <glyph glyph-name="afii10038" unicode="&#xd4;" horiz-adv-x="1605" 
d="M714 1443h175.993v-204h23c90.667 0 170.834 -10.833 240.501 -32.5s128.167 -51.167 175.5 -88.5c60.667 -48 106.834 -107.667 138.501 -179s47.5 -146.333 47.5 -225c0 -77.333 -13.5 -147.833 -40.5 -211.5s-63.167 -116.5 -108.5 -158.5
c-53.333 -48.667 -120.166 -85.167 -200.499 -109.5s-172.166 -36.5 -275.499 -36.5v-218h-176v218c-103.333 0 -195.166 12.167 -275.499 36.5s-146.833 60.833 -199.5 109.5c-46 42 -82.333 94.833 -109 158.5s-40 134.167 -40 211.5c0 78.667 15.833 153.667 47.5 225
s77.834 131 138.501 179c47.333 37.333 105.833 66.833 175.5 88.5s149.834 32.5 240.501 32.5h22v204zM719.993 346l0.000976562 745.001h-20c-66.667 0 -124.334 -7 -173.001 -21s-90 -33.667 -124 -59c-42.667 -32 -75.5 -72.167 -98.5 -120.5s-34.5 -108.5 -34.5 -180.5
c0 -74 14.167 -137.5 42.5 -190.5s73.5 -95.167 135.5 -126.5c32.667 -16.667 73 -29.334 121 -38.001s98.333 -11.667 151 -9zM883.994 1091l0.000976562 -745.001c52.667 -2.66699 103.167 0.333008 151.5 9s88.833 21.334 121.5 38.001
c62 31.333 107.167 73.5 135.5 126.5s42.5 116.5 42.5 190.5c0 72 -11.5 132.167 -34.5 180.5s-55.833 88.5 -98.5 120.5c-34 25.333 -75.333 45 -124 59s-106.334 21 -173.001 21h-21z" />
    <glyph glyph-name="afii10038" unicode="&#x424;" horiz-adv-x="1605" 
d="M714 1443h175.993v-204h23c90.667 0 170.834 -10.833 240.501 -32.5s128.167 -51.167 175.5 -88.5c60.667 -48 106.834 -107.667 138.501 -179s47.5 -146.333 47.5 -225c0 -77.333 -13.5 -147.833 -40.5 -211.5s-63.167 -116.5 -108.5 -158.5
c-53.333 -48.667 -120.166 -85.167 -200.499 -109.5s-172.166 -36.5 -275.499 -36.5v-218h-176v218c-103.333 0 -195.166 12.167 -275.499 36.5s-146.833 60.833 -199.5 109.5c-46 42 -82.333 94.833 -109 158.5s-40 134.167 -40 211.5c0 78.667 15.833 153.667 47.5 225
s77.834 131 138.501 179c47.333 37.333 105.833 66.833 175.5 88.5s149.834 32.5 240.501 32.5h22v204zM719.993 346l0.000976562 745.001h-20c-66.667 0 -124.334 -7 -173.001 -21s-90 -33.667 -124 -59c-42.667 -32 -75.5 -72.167 -98.5 -120.5s-34.5 -108.5 -34.5 -180.5
c0 -74 14.167 -137.5 42.5 -190.5s73.5 -95.167 135.5 -126.5c32.667 -16.667 73 -29.334 121 -38.001s98.333 -11.667 151 -9zM883.994 1091l0.000976562 -745.001c52.667 -2.66699 103.167 0.333008 151.5 9s88.833 21.334 121.5 38.001
c62 31.333 107.167 73.5 135.5 126.5s42.5 116.5 42.5 190.5c0 72 -11.5 132.167 -34.5 180.5s-55.833 88.5 -98.5 120.5c-34 25.333 -75.333 45 -124 59s-106.334 21 -173.001 21h-21z" />
    <glyph glyph-name="afii10039" unicode="&#xd5;" horiz-adv-x="1105" 
d="M63 1404h197l305 -520l305 520h180l-395 -649l444 -755h-196l-353 598l-364 -598h-180l456 733z" />
    <glyph glyph-name="afii10039" unicode="&#x425;" horiz-adv-x="1105" 
d="M63 1404h197l305 -520l305 520h180l-395 -649l444 -755h-196l-353 598l-364 -598h-180l456 733z" />
    <glyph glyph-name="afii10040" unicode="&#xd6;" horiz-adv-x="1372" 
d="M180 1404h176v-1253h635v1253h176v-1253h164v-458h-164v307h-987v1404z" />
    <glyph glyph-name="afii10040" unicode="&#x426;" horiz-adv-x="1372" 
d="M180 1404h176v-1253h635v1253h176v-1253h164v-458h-164v307h-987v1404z" />
    <glyph glyph-name="afii10041" unicode="&#xd7;" horiz-adv-x="1265" 
d="M122 1404h177.001v-417c0 -70 10 -120.5 30 -151.5s49.333 -52.833 88 -65.5c16.667 -6 36.5 -10.333 59.5 -13s57.833 -4 104.5 -4c53.333 0 106.166 2.16699 158.499 6.5s108.833 11.166 169.5 20.499v624h176v-1404h-176v628c-59.333 -8 -116.333 -14.333 -171 -19
s-100.667 -7 -138 -7c-77.333 0 -143.5 4.83301 -198.5 14.5s-101.5 25.834 -139.5 48.501c-47.333 28 -82.5 65.833 -105.5 113.5s-34.5 104.167 -34.5 169.5v456z" />
    <glyph glyph-name="afii10041" unicode="&#x427;" horiz-adv-x="1265" 
d="M122 1404h177.001v-417c0 -70 10 -120.5 30 -151.5s49.333 -52.833 88 -65.5c16.667 -6 36.5 -10.333 59.5 -13s57.833 -4 104.5 -4c53.333 0 106.166 2.16699 158.499 6.5s108.833 11.166 169.5 20.499v624h176v-1404h-176v628c-59.333 -8 -116.333 -14.333 -171 -19
s-100.667 -7 -138 -7c-77.333 0 -143.5 4.83301 -198.5 14.5s-101.5 25.834 -139.5 48.501c-47.333 28 -82.5 65.833 -105.5 113.5s-34.5 104.167 -34.5 169.5v456z" />
    <glyph glyph-name="afii10042" unicode="&#xd8;" horiz-adv-x="1859" 
d="M180 1404h176v-1253h485v1253h176v-1253h486v1253h176v-1404h-1499v1404z" />
    <glyph glyph-name="afii10042" unicode="&#x428;" horiz-adv-x="1859" 
d="M180 1404h176v-1253h485v1253h176v-1253h486v1253h176v-1404h-1499v1404z" />
    <glyph glyph-name="afii10043" unicode="&#xd9;" horiz-adv-x="1884" 
d="M180 1404h176v-1253h485v1253h176v-1253h486v1253h176v-1253h164v-458h-164v307h-1499v1404z" />
    <glyph glyph-name="afii10043" unicode="&#x429;" horiz-adv-x="1884" 
d="M180 1404h176v-1253h485v1253h176v-1253h486v1253h176v-1253h164v-458h-164v307h-1499v1404z" />
    <glyph glyph-name="afii10044" unicode="&#xda;" horiz-adv-x="1460" 
d="M-20 1404l591.001 0.00195312v-604h317c91.333 0 166.5 -7.83301 225.5 -23.5s108.167 -40.5 147.5 -74.5c37.333 -32.667 67.5 -76.334 90.5 -131.001s34.5 -112.667 34.5 -174c0 -54 -9.5 -106.833 -28.5 -158.5s-46.5 -95.834 -82.5 -132.501
c-36.667 -38 -78.334 -65.167 -125.001 -81.5s-114 -24.5 -202 -24.5h-553v1253h-415v151zM571.001 649.002l-0.000976562 -497.999h350c61.333 0 106.333 4.66699 135 14s53.334 23.666 74.001 42.999c20.667 20 37.167 45.833 49.5 77.5s18.5 67.5 18.5 107.5
c0 46 -6.16699 84.5 -18.5 115.5s-31.5 57.167 -57.5 78.5c-24 20 -54.5 35.333 -91.5 46s-84.5 16 -142.5 16h-317z" />
    <glyph glyph-name="afii10044" unicode="&#x42a;" horiz-adv-x="1460" 
d="M-20 1404l591.001 0.00195312v-604h317c91.333 0 166.5 -7.83301 225.5 -23.5s108.167 -40.5 147.5 -74.5c37.333 -32.667 67.5 -76.334 90.5 -131.001s34.5 -112.667 34.5 -174c0 -54 -9.5 -106.833 -28.5 -158.5s-46.5 -95.834 -82.5 -132.501
c-36.667 -38 -78.334 -65.167 -125.001 -81.5s-114 -24.5 -202 -24.5h-553v1253h-415v151zM571.001 649.002l-0.000976562 -497.999h350c61.333 0 106.333 4.66699 135 14s53.334 23.666 74.001 42.999c20.667 20 37.167 45.833 49.5 77.5s18.5 67.5 18.5 107.5
c0 46 -6.16699 84.5 -18.5 115.5s-31.5 57.167 -57.5 78.5c-24 20 -54.5 35.333 -91.5 46s-84.5 16 -142.5 16h-317z" />
    <glyph glyph-name="afii10045" unicode="&#xdb;" horiz-adv-x="1679" 
d="M180 1404l176.002 0.000976562v-604h317c91.333 0 166.5 -7.83301 225.5 -23.5s108.167 -40.5 147.5 -74.5c37.333 -32.667 67.5 -76.334 90.5 -131.001s34.5 -112.667 34.5 -174c0 -52.667 -9.33301 -105 -28 -157s-46.334 -96.667 -83.001 -134
c-36 -36.667 -77.333 -63.5 -124 -80.5s-108.334 -25.5 -185.001 -25.5h-571v1404zM356.002 649.001l0.000976562 -497.999h373c45.333 0 82.5 4.66699 111.5 14s53.833 23.666 74.5 42.999c22.667 22 39.667 49.667 51 83s17 69.333 17 108c0 41.333 -6 77.5 -18 108.5
s-31.333 57.5 -58 79.5c-23.333 19.333 -53.333 34.5 -90 45.5s-74.334 16.5 -113.001 16.5h-348zM1323 1404h176v-1404h-176v1404z" />
    <glyph glyph-name="afii10045" unicode="&#x42b;" horiz-adv-x="1679" 
d="M180 1404l176.002 0.000976562v-604h317c91.333 0 166.5 -7.83301 225.5 -23.5s108.167 -40.5 147.5 -74.5c37.333 -32.667 67.5 -76.334 90.5 -131.001s34.5 -112.667 34.5 -174c0 -52.667 -9.33301 -105 -28 -157s-46.334 -96.667 -83.001 -134
c-36 -36.667 -77.333 -63.5 -124 -80.5s-108.334 -25.5 -185.001 -25.5h-571v1404zM356.002 649.001l0.000976562 -497.999h373c45.333 0 82.5 4.66699 111.5 14s53.833 23.666 74.5 42.999c22.667 22 39.667 49.667 51 83s17 69.333 17 108c0 41.333 -6 77.5 -18 108.5
s-31.333 57.5 -58 79.5c-23.333 19.333 -53.333 34.5 -90 45.5s-74.334 16.5 -113.001 16.5h-348zM1323 1404h176v-1404h-176v1404z" />
    <glyph glyph-name="afii10046" unicode="&#xdc;" horiz-adv-x="1245" 
d="M180 1404l176.001 0.000976562v-604h317c91.333 0 166.5 -7.83301 225.5 -23.5s108.167 -40.5 147.5 -74.5c37.333 -32.667 67.5 -76.334 90.5 -131.001s34.5 -112.667 34.5 -174c0 -52.667 -9.33301 -105 -28 -157s-46.334 -96.667 -83.001 -134
c-35.333 -36 -76.333 -62.667 -123 -80s-101.667 -26 -165 -26h-592v1404zM356.001 649.001l-0.000976562 -497.999h350c61.333 0 106.333 4.66699 135 14s53.334 23.666 74.001 42.999c20.667 20 37.167 45.833 49.5 77.5s18.5 67.5 18.5 107.5
c0 46 -6.16699 84.5 -18.5 115.5s-31.5 57.167 -57.5 78.5c-24.667 20.667 -55.5 36.167 -92.5 46.5s-77.833 15.5 -122.5 15.5h-336z" />
    <glyph glyph-name="afii10046" unicode="&#x42c;" horiz-adv-x="1245" 
d="M180 1404l176.001 0.000976562v-604h317c91.333 0 166.5 -7.83301 225.5 -23.5s108.167 -40.5 147.5 -74.5c37.333 -32.667 67.5 -76.334 90.5 -131.001s34.5 -112.667 34.5 -174c0 -52.667 -9.33301 -105 -28 -157s-46.334 -96.667 -83.001 -134
c-35.333 -36 -76.333 -62.667 -123 -80s-101.667 -26 -165 -26h-592v1404zM356.001 649.001l-0.000976562 -497.999h350c61.333 0 106.333 4.66699 135 14s53.334 23.666 74.001 42.999c20.667 20 37.167 45.833 49.5 77.5s18.5 67.5 18.5 107.5
c0 46 -6.16699 84.5 -18.5 115.5s-31.5 57.167 -57.5 78.5c-24.667 20.667 -55.5 36.167 -92.5 46.5s-77.833 15.5 -122.5 15.5h-336z" />
    <glyph glyph-name="afii10047" unicode="&#xdd;" horiz-adv-x="1245" 
d="M253 983l-172.001 30c17.333 54.667 40 105.834 68 153.501s58 87.5 90 119.5c46.667 45.333 101.167 79.833 163.5 103.5s131.5 35.5 207.5 35.5c74 0 142.5 -11.667 205.5 -35s118.833 -60 167.5 -110c54 -56.667 96.167 -131.834 126.5 -225.501
s45.5 -201.5 45.5 -323.5c0 -101.333 -10.333 -195.666 -31 -282.999s-48 -159 -82 -215c-50 -82.667 -115 -145.5 -195 -188.5s-170 -64.5 -270 -64.5c-72.667 0 -137.834 11 -195.501 33s-108.5 53 -152.5 93c-36.667 32.667 -69 72.167 -97 118.5s-49 96.833 -63 151.5
l178 35c8.66699 -30 20.167 -58 34.5 -84s31.5 -50.667 51.5 -74c34.667 -40 72.834 -70.333 114.501 -91s88.167 -31 139.5 -31c68.667 0 130 17.667 184 53s97.333 84.333 130 147c20.667 41.333 36.834 90.833 48.501 148.5s17.167 116.167 16.5 175.5h-518v151h514
c0.666992 56.667 -6.83301 115 -22.5 175s-38.167 111 -67.5 153c-30.667 44 -68.167 78.167 -112.5 102.5s-96.166 36.5 -155.499 36.5c-46.667 0 -90.334 -8.33301 -131.001 -25s-79 -44.334 -115 -83.001c-22.667 -24.667 -43 -52.5 -61 -83.5s-32.667 -63.833 -44 -98.5
z" />
    <glyph glyph-name="afii10047" unicode="&#x42d;" horiz-adv-x="1245" 
d="M253 983l-172.001 30c17.333 54.667 40 105.834 68 153.501s58 87.5 90 119.5c46.667 45.333 101.167 79.833 163.5 103.5s131.5 35.5 207.5 35.5c74 0 142.5 -11.667 205.5 -35s118.833 -60 167.5 -110c54 -56.667 96.167 -131.834 126.5 -225.501
s45.5 -201.5 45.5 -323.5c0 -101.333 -10.333 -195.666 -31 -282.999s-48 -159 -82 -215c-50 -82.667 -115 -145.5 -195 -188.5s-170 -64.5 -270 -64.5c-72.667 0 -137.834 11 -195.501 33s-108.5 53 -152.5 93c-36.667 32.667 -69 72.167 -97 118.5s-49 96.833 -63 151.5
l178 35c8.66699 -30 20.167 -58 34.5 -84s31.5 -50.667 51.5 -74c34.667 -40 72.834 -70.333 114.501 -91s88.167 -31 139.5 -31c68.667 0 130 17.667 184 53s97.333 84.333 130 147c20.667 41.333 36.834 90.833 48.501 148.5s17.167 116.167 16.5 175.5h-518v151h514
c0.666992 56.667 -6.83301 115 -22.5 175s-38.167 111 -67.5 153c-30.667 44 -68.167 78.167 -112.5 102.5s-96.166 36.5 -155.499 36.5c-46.667 0 -90.334 -8.33301 -131.001 -25s-79 -44.334 -115 -83.001c-22.667 -24.667 -43 -52.5 -61 -83.5s-32.667 -63.833 -44 -98.5
z" />
    <glyph glyph-name="afii10048" unicode="&#xde;" horiz-adv-x="1855" 
d="M356 811h254.001c8.66699 91.333 31.5 179.333 68.5 264s81.167 152 132.5 202c50 50 106.833 87.167 170.5 111.5s132.167 36.5 205.5 36.5c74 0 142.667 -12.167 206 -36.5s120.333 -61.5 171 -111.5c62 -60.667 111 -140 147 -238s54 -210.333 54 -337
s-18 -239 -54 -337s-85 -177.667 -147 -239c-50.667 -49.333 -107.667 -86 -171 -110s-132 -36 -206 -36c-73.333 0 -141.833 12 -205.5 36s-120.5 60.667 -170.5 110c-58.667 58 -106.834 135.333 -144.501 232s-56.5 197 -56.5 301h-254v-659h-176v1404h176v-593z
M1187 1273c-54 0 -104.167 -11.833 -150.5 -35.5s-86.833 -58.167 -121.5 -103.5c-36.667 -47.333 -65.334 -107.833 -86.001 -181.5s-31 -157.167 -31 -250.5s10.333 -176.833 31 -250.5s49.334 -134.167 86.001 -181.5c34.667 -45.333 75.167 -79.833 121.5 -103.5
s96.5 -35.5 150.5 -35.5s104.167 11.833 150.5 35.5s87.166 58.167 122.499 103.5c36.667 47.333 65.167 107.833 85.5 181.5s30.5 157.167 30.5 250.5s-10.167 176.833 -30.5 250.5s-48.833 134.167 -85.5 181.5c-35.333 45.333 -76.166 79.833 -122.499 103.5
s-96.5 35.5 -150.5 35.5z" />
    <glyph glyph-name="afii10048" unicode="&#x42e;" horiz-adv-x="1855" 
d="M356 811h254.001c8.66699 91.333 31.5 179.333 68.5 264s81.167 152 132.5 202c50 50 106.833 87.167 170.5 111.5s132.167 36.5 205.5 36.5c74 0 142.667 -12.167 206 -36.5s120.333 -61.5 171 -111.5c62 -60.667 111 -140 147 -238s54 -210.333 54 -337
s-18 -239 -54 -337s-85 -177.667 -147 -239c-50.667 -49.333 -107.667 -86 -171 -110s-132 -36 -206 -36c-73.333 0 -141.833 12 -205.5 36s-120.5 60.667 -170.5 110c-58.667 58 -106.834 135.333 -144.501 232s-56.5 197 -56.5 301h-254v-659h-176v1404h176v-593z
M1187 1273c-54 0 -104.167 -11.833 -150.5 -35.5s-86.833 -58.167 -121.5 -103.5c-36.667 -47.333 -65.334 -107.833 -86.001 -181.5s-31 -157.167 -31 -250.5s10.333 -176.833 31 -250.5s49.334 -134.167 86.001 -181.5c34.667 -45.333 75.167 -79.833 121.5 -103.5
s96.5 -35.5 150.5 -35.5s104.167 11.833 150.5 35.5s87.166 58.167 122.499 103.5c36.667 47.333 65.167 107.833 85.5 181.5s30.5 157.167 30.5 250.5s-10.167 176.833 -30.5 250.5s-48.833 134.167 -85.5 181.5c-35.333 45.333 -76.166 79.833 -122.499 103.5
s-96.5 35.5 -150.5 35.5z" />
    <glyph glyph-name="afii10049" unicode="&#xdf;" horiz-adv-x="1284" 
d="M1103 1404v-1404h-176v608h-293l-354 -608h-209l381 618c-41.333 4 -82.333 14.333 -123 31s-76 39 -106 67c-34 31.333 -61 70.833 -81 118.5s-30 101.834 -30 162.501c0 58.667 10.833 113.5 32.5 164.5s51.834 94.5 90.501 130.5c43.333 40 93.166 68.667 149.499 86
s136.833 26 241.5 26h477zM927 1253l-315.001 0.00195312c-53.333 0 -97 -3.83301 -131 -11.5s-62.667 -19.5 -86 -35.5c-30.667 -20.667 -54 -47.834 -70 -81.501s-24 -74.834 -24 -123.501c0 -40 6.66699 -75.5 20 -106.5s32.333 -56.833 57 -77.5
c24 -20 52.333 -34.667 85 -44s78.334 -14 137.001 -14h327v494z" />
    <glyph glyph-name="afii10049" unicode="&#x42f;" horiz-adv-x="1284" 
d="M1103 1404v-1404h-176v608h-293l-354 -608h-209l381 618c-41.333 4 -82.333 14.333 -123 31s-76 39 -106 67c-34 31.333 -61 70.833 -81 118.5s-30 101.834 -30 162.501c0 58.667 10.833 113.5 32.5 164.5s51.834 94.5 90.501 130.5c43.333 40 93.166 68.667 149.499 86
s136.833 26 241.5 26h477zM927 1253l-315.001 0.00195312c-53.333 0 -97 -3.83301 -131 -11.5s-62.667 -19.5 -86 -35.5c-30.667 -20.667 -54 -47.834 -70 -81.501s-24 -74.834 -24 -123.501c0 -40 6.66699 -75.5 20 -106.5s32.333 -56.833 57 -77.5
c24 -20 52.333 -34.667 85 -44s78.334 -14 137.001 -14h327v494z" />
    <glyph glyph-name="afii10065" unicode="&#xe0;" horiz-adv-x="1114" 
d="M260 755l-150.002 25.001c19.333 94.667 63.666 165.667 132.999 213s172.333 71 309 71c69.333 0 128 -6 176 -18s88.333 -31 121 -57c42 -33.333 71.667 -75.833 89 -127.5s26 -132.167 26 -241.5v-401c0 -34.667 2.33301 -70 7 -106s11.334 -73.667 20.001 -113h-164
c-4.66699 32 -8.66699 64.167 -12 96.5s-5.66602 64.833 -6.99902 97.5c-32 -67.333 -78.833 -119.833 -140.5 -157.5s-136.167 -56.5 -223.5 -56.5c-56 0 -106.5 7.66699 -151.5 23s-83.833 38 -116.5 68c-30.667 28 -54.167 60.667 -70.5 98s-24.5 78.333 -24.5 123
c0 58 12.667 109.167 38 153.5s60 81.5 104 111.5c46 31.333 100.833 53.833 164.5 67.5s158.834 20.5 285.501 20.5h135v43c0 43.333 -3.33301 78.666 -10 105.999s-16.667 50 -30 68c-19.333 26 -45.5 45 -78.5 57s-79.5 18 -139.5 18c-86 0 -153.667 -15 -203 -45
s-78.333 -75.667 -87 -137zM807.998 518.001l-132.995 0.000976562c-70.667 0 -132.334 -4 -185.001 -12s-96 -21.333 -130 -40c-35.333 -18.667 -62 -43.167 -80 -73.5s-27 -63.833 -27 -100.5c0 -27.333 6.5 -53.166 19.5 -77.499s31.833 -44.833 56.5 -61.5
c19.333 -12.667 41.666 -22.334 66.999 -29.001s53 -10 83 -10c49.333 0 95.666 10.667 138.999 32s79.666 49.666 108.999 84.999c25.333 31.333 45.166 68.833 59.499 112.5s21.5 84.5 21.5 122.5v52z" />
    <glyph glyph-name="afii10065" unicode="&#x430;" horiz-adv-x="1114" 
d="M260 755l-150.002 25.001c19.333 94.667 63.666 165.667 132.999 213s172.333 71 309 71c69.333 0 128 -6 176 -18s88.333 -31 121 -57c42 -33.333 71.667 -75.833 89 -127.5s26 -132.167 26 -241.5v-401c0 -34.667 2.33301 -70 7 -106s11.334 -73.667 20.001 -113h-164
c-4.66699 32 -8.66699 64.167 -12 96.5s-5.66602 64.833 -6.99902 97.5c-32 -67.333 -78.833 -119.833 -140.5 -157.5s-136.167 -56.5 -223.5 -56.5c-56 0 -106.5 7.66699 -151.5 23s-83.833 38 -116.5 68c-30.667 28 -54.167 60.667 -70.5 98s-24.5 78.333 -24.5 123
c0 58 12.667 109.167 38 153.5s60 81.5 104 111.5c46 31.333 100.833 53.833 164.5 67.5s158.834 20.5 285.501 20.5h135v43c0 43.333 -3.33301 78.666 -10 105.999s-16.667 50 -30 68c-19.333 26 -45.5 45 -78.5 57s-79.5 18 -139.5 18c-86 0 -153.667 -15 -203 -45
s-78.333 -75.667 -87 -137zM807.998 518.001l-132.995 0.000976562c-70.667 0 -132.334 -4 -185.001 -12s-96 -21.333 -130 -40c-35.333 -18.667 -62 -43.167 -80 -73.5s-27 -63.833 -27 -100.5c0 -27.333 6.5 -53.166 19.5 -77.499s31.833 -44.833 56.5 -61.5
c19.333 -12.667 41.666 -22.334 66.999 -29.001s53 -10 83 -10c49.333 0 95.666 10.667 138.999 32s79.666 49.666 108.999 84.999c25.333 31.333 45.166 68.833 59.499 112.5s21.5 84.5 21.5 122.5v52z" />
    <glyph glyph-name="afii10066" unicode="&#xe1;" horiz-adv-x="1155" 
d="M1019 1429l-0.00195312 -151.998c-45.333 -22 -90.5 -39.167 -135.5 -51.5s-125.167 -28.5 -240.5 -48.5c-56 -9.33301 -95.667 -17.333 -119 -24s-44.666 -14.334 -63.999 -23.001c-26.667 -12 -51.334 -27 -74.001 -45s-42.334 -37.667 -59.001 -59
c-22.667 -29.333 -42.5 -65.5 -59.5 -108.5s-28.5 -86.833 -34.5 -131.5h4c36.667 79.333 88.667 137 156 173s147 54 239 54c61.333 0 116 -8.16699 164 -24.5s91.667 -42.833 131 -79.5c46.667 -44 82.667 -99.333 108 -166s38 -142.334 38 -227.001
c0 -75.333 -10.167 -145.833 -30.5 -211.5s-49.166 -121.5 -86.499 -167.5c-44 -54 -97.833 -93.667 -161.5 -119s-135.5 -38 -215.5 -38c-61.333 0 -118.333 10.167 -171 30.5s-100.667 52.166 -144 95.499c-52 52 -92 118.5 -120 199.5s-42 179.167 -42 294.5
c0 123.333 13.5 234 40.5 332s68.833 177 125.5 237c40.667 43.333 88.5 77.833 143.5 103.5s132.167 47.834 231.5 66.501c168.667 32 266.334 52 293.001 60s54.334 18 83.001 30zM597.998 878.002c-52.667 0 -96.498 -7.33398 -131.498 -22.001s-65.833 -36 -92.5 -64
c-29.333 -32 -52 -72.333 -68 -121s-24 -104 -24 -166c0 -60 7.83301 -116.5 23.5 -169.5s37.167 -95.5 64.5 -127.5c27.333 -31.333 60.333 -54.833 99 -70.5s80.667 -23.5 126 -23.5c41.333 0 76.666 5.5 105.999 16.5s55.666 26.833 78.999 47.5
c38.667 34.667 67 79.834 85 135.501s27 122.5 27 200.5c0 60.667 -6.66699 114.5 -20 161.5s-35.333 87.167 -66 120.5c-26 28.667 -55.667 49.5 -89 62.5s-73 19.5 -119 19.5z" />
    <glyph glyph-name="afii10066" unicode="&#x431;" horiz-adv-x="1155" 
d="M1019 1429l-0.00195312 -151.998c-45.333 -22 -90.5 -39.167 -135.5 -51.5s-125.167 -28.5 -240.5 -48.5c-56 -9.33301 -95.667 -17.333 -119 -24s-44.666 -14.334 -63.999 -23.001c-26.667 -12 -51.334 -27 -74.001 -45s-42.334 -37.667 -59.001 -59
c-22.667 -29.333 -42.5 -65.5 -59.5 -108.5s-28.5 -86.833 -34.5 -131.5h4c36.667 79.333 88.667 137 156 173s147 54 239 54c61.333 0 116 -8.16699 164 -24.5s91.667 -42.833 131 -79.5c46.667 -44 82.667 -99.333 108 -166s38 -142.334 38 -227.001
c0 -75.333 -10.167 -145.833 -30.5 -211.5s-49.166 -121.5 -86.499 -167.5c-44 -54 -97.833 -93.667 -161.5 -119s-135.5 -38 -215.5 -38c-61.333 0 -118.333 10.167 -171 30.5s-100.667 52.166 -144 95.499c-52 52 -92 118.5 -120 199.5s-42 179.167 -42 294.5
c0 123.333 13.5 234 40.5 332s68.833 177 125.5 237c40.667 43.333 88.5 77.833 143.5 103.5s132.167 47.834 231.5 66.501c168.667 32 266.334 52 293.001 60s54.334 18 83.001 30zM597.998 878.002c-52.667 0 -96.498 -7.33398 -131.498 -22.001s-65.833 -36 -92.5 -64
c-29.333 -32 -52 -72.333 -68 -121s-24 -104 -24 -166c0 -60 7.83301 -116.5 23.5 -169.5s37.167 -95.5 64.5 -127.5c27.333 -31.333 60.333 -54.833 99 -70.5s80.667 -23.5 126 -23.5c41.333 0 76.666 5.5 105.999 16.5s55.666 26.833 78.999 47.5
c38.667 34.667 67 79.834 85 135.501s27 122.5 27 200.5c0 60.667 -6.66699 114.5 -20 161.5s-35.333 87.167 -66 120.5c-26 28.667 -55.667 49.5 -89 62.5s-73 19.5 -119 19.5z" />
    <glyph glyph-name="afii10067" unicode="&#xe2;" horiz-adv-x="1155" 
d="M165 1044l462.998 -0.00195312c64.667 0 115.167 -3.66699 151.5 -11s67.166 -18.666 92.499 -33.999c36 -22 63.5 -50.167 82.5 -84.5s28.5 -73.166 28.5 -116.499c0 -35.333 -5.83301 -67.5 -17.5 -96.5s-29.167 -54.833 -52.5 -77.5
c-17.333 -16.667 -37.666 -30.667 -60.999 -42s-48 -19 -74 -23v-4c37.333 -3.33301 73.5 -12.333 108.5 -27s63.5 -33 85.5 -55c22.667 -22 40 -48.333 52 -79s18 -64 18 -100c0 -47.333 -9.5 -91.166 -28.5 -131.499s-45.833 -73.5 -80.5 -99.5
c-29.333 -22.667 -62.166 -38.834 -98.499 -48.501s-88.166 -14.5 -155.499 -14.5h-514v1044zM320.998 916.998v-309.003h291c40 0 72.167 4.33301 96.5 13s44.833 22 61.5 40c12.667 14.667 22.667 32.334 30 53.001s11 42.667 11 66c0 20.667 -3.66699 39.334 -11 56.001
s-19 31.334 -35 44.001c-15.333 13.333 -33 22.833 -53 28.5s-48.667 8.5 -86 8.5h-305zM320.998 480.995v-355.002h328c36 0 68.167 4.66699 96.5 14s50.833 22 67.5 38c15.333 14.667 27.333 33.334 36 56.001s13 46.334 13 71.001c0 26.667 -5.33301 51.5 -16 74.5
s-26.667 42.5 -48 58.5c-18.667 14 -41.667 24.667 -69 32s-59 11 -95 11h-313z" />
    <glyph glyph-name="afii10067" unicode="&#x432;" horiz-adv-x="1155" 
d="M165 1044l462.998 -0.00195312c64.667 0 115.167 -3.66699 151.5 -11s67.166 -18.666 92.499 -33.999c36 -22 63.5 -50.167 82.5 -84.5s28.5 -73.166 28.5 -116.499c0 -35.333 -5.83301 -67.5 -17.5 -96.5s-29.167 -54.833 -52.5 -77.5
c-17.333 -16.667 -37.666 -30.667 -60.999 -42s-48 -19 -74 -23v-4c37.333 -3.33301 73.5 -12.333 108.5 -27s63.5 -33 85.5 -55c22.667 -22 40 -48.333 52 -79s18 -64 18 -100c0 -47.333 -9.5 -91.166 -28.5 -131.499s-45.833 -73.5 -80.5 -99.5
c-29.333 -22.667 -62.166 -38.834 -98.499 -48.501s-88.166 -14.5 -155.499 -14.5h-514v1044zM320.998 916.998v-309.003h291c40 0 72.167 4.33301 96.5 13s44.833 22 61.5 40c12.667 14.667 22.667 32.334 30 53.001s11 42.667 11 66c0 20.667 -3.66699 39.334 -11 56.001
s-19 31.334 -35 44.001c-15.333 13.333 -33 22.833 -53 28.5s-48.667 8.5 -86 8.5h-305zM320.998 480.995v-355.002h328c36 0 68.167 4.66699 96.5 14s50.833 22 67.5 38c15.333 14.667 27.333 33.334 36 56.001s13 46.334 13 71.001c0 26.667 -5.33301 51.5 -16 74.5
s-26.667 42.5 -48 58.5c-18.667 14 -41.667 24.667 -69 32s-59 11 -95 11h-313z" />
    <glyph glyph-name="glyph146" unicode="&#xe3;" horiz-adv-x="819" 
d="M165 1044h631v-127h-475v-917h-156v1044z" />
    <glyph glyph-name="glyph146" unicode="&#x433;" horiz-adv-x="819" 
d="M165 1044h631v-127h-475v-917h-156v1044z" />
    <glyph glyph-name="afii10069" unicode="&#xe4;" horiz-adv-x="1052" 
d="M288 1044h606.001v-918h107v-406h-143v280h-695v-280h-143v406h78c20.667 30.667 39 61.5 55 92.5s30.333 62.5 43 94.5c28 71.333 49.167 151.5 63.5 240.5s23.166 221.167 26.499 396.5zM419.001 917l-1.99902 -55c-4.66699 -127.333 -15 -240.833 -31 -340.5
s-36.333 -182.167 -61 -247.5c-6.66699 -18.667 -15.834 -41 -27.501 -67l-37.5 -81h479v791h-320z" />
    <glyph glyph-name="afii10069" unicode="&#x434;" horiz-adv-x="1052" 
d="M288 1044h606.001v-918h107v-406h-143v280h-695v-280h-143v406h78c20.667 30.667 39 61.5 55 92.5s30.333 62.5 43 94.5c28 71.333 49.167 151.5 63.5 240.5s23.166 221.167 26.499 396.5zM419.001 917l-1.99902 -55c-4.66699 -127.333 -15 -240.833 -31 -340.5
s-36.333 -182.167 -61 -247.5c-6.66699 -18.667 -15.834 -41 -27.501 -67l-37.5 -81h479v791h-320z" />
    <glyph glyph-name="afii10070" unicode="&#xe5;" horiz-adv-x="1091" 
d="M849 315l151.998 -30.999c-15.333 -46.667 -36.666 -88.834 -63.999 -126.501s-62.666 -71.167 -105.999 -100.5c-40 -27.333 -82 -47 -126 -59s-91.333 -18 -142 -18c-74 0 -140.5 12.333 -199.5 37s-110.833 62.667 -155.5 114c-44 50 -76.167 107.167 -96.5 171.5
s-30.5 134.833 -30.5 211.5c0 168 46 301.667 138 401s208 149 348 149s250.333 -47.167 331 -141.5s121 -223.166 121 -386.499v-37h-757c-1.33301 -34.667 1 -69.667 7 -105s15 -68 27 -98c25.333 -61.333 61 -107 107 -137s101.333 -45 166 -45c46 0 87.333 8 124 24
s67.667 38 93 66c13.333 15.333 25.5 32.666 36.5 51.999s19.833 39 26.5 59zM269.998 626.001l569 0.00292969c-0.666992 33.333 -5.16699 67.166 -13.5 101.499s-20.166 64.166 -35.499 89.499c-22.667 37.333 -52.667 66.666 -90 87.999s-81 32 -131 32
c-44 0 -85.833 -8.83301 -125.5 -26.5s-73.5 -44.167 -101.5 -79.5c-22 -27.333 -39.333 -59 -52 -95s-19.334 -72.667 -20.001 -110z" />
    <glyph glyph-name="afii10070" unicode="&#x435;" horiz-adv-x="1091" 
d="M849 315l151.998 -30.999c-15.333 -46.667 -36.666 -88.834 -63.999 -126.501s-62.666 -71.167 -105.999 -100.5c-40 -27.333 -82 -47 -126 -59s-91.333 -18 -142 -18c-74 0 -140.5 12.333 -199.5 37s-110.833 62.667 -155.5 114c-44 50 -76.167 107.167 -96.5 171.5
s-30.5 134.833 -30.5 211.5c0 168 46 301.667 138 401s208 149 348 149s250.333 -47.167 331 -141.5s121 -223.166 121 -386.499v-37h-757c-1.33301 -34.667 1 -69.667 7 -105s15 -68 27 -98c25.333 -61.333 61 -107 107 -137s101.333 -45 166 -45c46 0 87.333 8 124 24
s67.667 38 93 66c13.333 15.333 25.5 32.666 36.5 51.999s19.833 39 26.5 59zM269.998 626.001l569 0.00292969c-0.666992 33.333 -5.16699 67.166 -13.5 101.499s-20.166 64.166 -35.499 89.499c-22.667 37.333 -52.667 66.666 -90 87.999s-81 32 -131 32
c-44 0 -85.833 -8.83301 -125.5 -26.5s-73.5 -44.167 -101.5 -79.5c-22 -27.333 -39.333 -59 -52 -95s-19.334 -72.667 -20.001 -110z" />
    <glyph glyph-name="afii10072" unicode="&#xe6;" horiz-adv-x="1466" 
d="M659 1044h147.007v-434h80c29.333 0 55.5 2.5 78.5 7.5s42.833 13.5 59.5 25.5c13.333 9.33301 25 21.666 35 36.999s19.333 35 28 59c10.667 30 22 69.167 34 117.5s24.667 84.166 38 107.499c16.667 30 37.167 51.833 61.5 65.5s55.5 20.5 93.5 20.5
c8 0 17.167 -0.5 27.5 -1.5s21.166 -2.5 32.499 -4.5v-123c-4.66699 0.666992 -9.5 1.16699 -14.5 1.5s-10.5 0.5 -16.5 0.5c-17.333 0 -30.5 -2.5 -39.5 -7.5s-16.833 -12.833 -23.5 -23.5c-5.33301 -7.33301 -10 -16.833 -14 -28.5s-8.33301 -26.5 -13 -44.5
c-21.333 -87.333 -34.166 -136.5 -38.499 -147.5s-9.16602 -22.167 -14.499 -33.5c-14 -25.333 -30.5 -45.333 -49.5 -60s-41.5 -24 -67.5 -28v-4c21.333 -3.33301 41.166 -9.66602 59.499 -18.999s33.833 -20.666 46.5 -33.999c12.667 -12.667 24.334 -29 35.001 -49
s21.667 -47.333 33 -82c7.33301 -23.333 17.166 -57.333 29.499 -102s22.166 -75.667 29.499 -93c8.66699 -18.667 17.834 -31.167 27.501 -37.5s23.834 -9.5 42.501 -9.5c8 0 15.167 0.333008 21.5 1s12.166 1.66699 17.499 3v-124c-11.333 -2 -22.666 -3.5 -33.999 -4.5
s-22.666 -1.5 -33.999 -1.5c-28.667 0 -52.334 2 -71.001 6s-34.334 10 -47.001 18c-14.667 8.66699 -27.834 20.667 -39.501 36s-22.5 36 -32.5 62c-10.667 27.333 -22.334 65 -35.001 113s-22.334 81.333 -29.001 100c-4 13.333 -8.16699 25.166 -12.5 35.499
s-8.83301 19.833 -13.5 28.5c-17.333 32 -38.5 55 -63.5 69s-63.167 21 -114.5 21h-93v-483h-147v483h-92c-52 0 -90.5 -7 -115.5 -21s-45.833 -37 -62.5 -69c-4.66699 -8.66699 -9.16699 -18.167 -13.5 -28.5s-8.83301 -22.166 -13.5 -35.499
c-6 -18.667 -15.333 -52 -28 -100s-24.334 -85.667 -35.001 -113c-10.667 -26 -21.834 -46.667 -33.501 -62s-24.5 -27.333 -38.5 -36c-13.333 -8 -29.333 -14 -48 -18s-42.334 -6 -71.001 -6c-11.333 0 -22.5 0.5 -33.5 1.5s-22.5 2.5 -34.5 4.5v124
c6 -1.33301 12 -2.33301 18 -3s13 -1 21 -1c19.333 0 33.666 3.16699 42.999 9.5s18.333 18.833 27 37.5c7.33301 17.333 17.166 48.333 29.499 93s22.166 78.667 29.499 102c11.333 34.667 22.333 62 33 82s22.334 36.333 35.001 49
c13.333 13.333 29.166 24.666 47.499 33.999s37.833 15.666 58.5 18.999v4c-26 4 -48.5 13.333 -67.5 28s-35.167 34.667 -48.5 60c-6 11.333 -11.167 22.5 -15.5 33.5s-17.166 60.167 -38.499 147.5c-4 18 -8.16699 32.833 -12.5 44.5s-8.83301 21.167 -13.5 28.5
c-7.33301 10.667 -15.333 18.5 -24 23.5s-22 7.5 -40 7.5c-6 0 -11.5 -0.166992 -16.5 -0.5s-9.5 -0.833008 -13.5 -1.5v123c10.667 2 21.167 3.5 31.5 4.5s19.5 1.5 27.5 1.5c38 0 69.333 -6.83301 94 -20.5s45.334 -35.5 62.001 -65.5
c12.667 -23.333 25 -59.166 37 -107.499s23.333 -87.5 34 -117.5c8.66699 -24 18 -43.667 28 -59s22 -27.666 36 -36.999c16 -12 35.5 -20.5 58.5 -25.5s49.167 -7.5 78.5 -7.5h80v434z" />
    <glyph glyph-name="afii10072" unicode="&#x436;" horiz-adv-x="1466" 
d="M659 1044h147.007v-434h80c29.333 0 55.5 2.5 78.5 7.5s42.833 13.5 59.5 25.5c13.333 9.33301 25 21.666 35 36.999s19.333 35 28 59c10.667 30 22 69.167 34 117.5s24.667 84.166 38 107.499c16.667 30 37.167 51.833 61.5 65.5s55.5 20.5 93.5 20.5
c8 0 17.167 -0.5 27.5 -1.5s21.166 -2.5 32.499 -4.5v-123c-4.66699 0.666992 -9.5 1.16699 -14.5 1.5s-10.5 0.5 -16.5 0.5c-17.333 0 -30.5 -2.5 -39.5 -7.5s-16.833 -12.833 -23.5 -23.5c-5.33301 -7.33301 -10 -16.833 -14 -28.5s-8.33301 -26.5 -13 -44.5
c-21.333 -87.333 -34.166 -136.5 -38.499 -147.5s-9.16602 -22.167 -14.499 -33.5c-14 -25.333 -30.5 -45.333 -49.5 -60s-41.5 -24 -67.5 -28v-4c21.333 -3.33301 41.166 -9.66602 59.499 -18.999s33.833 -20.666 46.5 -33.999c12.667 -12.667 24.334 -29 35.001 -49
s21.667 -47.333 33 -82c7.33301 -23.333 17.166 -57.333 29.499 -102s22.166 -75.667 29.499 -93c8.66699 -18.667 17.834 -31.167 27.501 -37.5s23.834 -9.5 42.501 -9.5c8 0 15.167 0.333008 21.5 1s12.166 1.66699 17.499 3v-124c-11.333 -2 -22.666 -3.5 -33.999 -4.5
s-22.666 -1.5 -33.999 -1.5c-28.667 0 -52.334 2 -71.001 6s-34.334 10 -47.001 18c-14.667 8.66699 -27.834 20.667 -39.501 36s-22.5 36 -32.5 62c-10.667 27.333 -22.334 65 -35.001 113s-22.334 81.333 -29.001 100c-4 13.333 -8.16699 25.166 -12.5 35.499
s-8.83301 19.833 -13.5 28.5c-17.333 32 -38.5 55 -63.5 69s-63.167 21 -114.5 21h-93v-483h-147v483h-92c-52 0 -90.5 -7 -115.5 -21s-45.833 -37 -62.5 -69c-4.66699 -8.66699 -9.16699 -18.167 -13.5 -28.5s-8.83301 -22.166 -13.5 -35.499
c-6 -18.667 -15.333 -52 -28 -100s-24.334 -85.667 -35.001 -113c-10.667 -26 -21.834 -46.667 -33.501 -62s-24.5 -27.333 -38.5 -36c-13.333 -8 -29.333 -14 -48 -18s-42.334 -6 -71.001 -6c-11.333 0 -22.5 0.5 -33.5 1.5s-22.5 2.5 -34.5 4.5v124
c6 -1.33301 12 -2.33301 18 -3s13 -1 21 -1c19.333 0 33.666 3.16699 42.999 9.5s18.333 18.833 27 37.5c7.33301 17.333 17.166 48.333 29.499 93s22.166 78.667 29.499 102c11.333 34.667 22.333 62 33 82s22.334 36.333 35.001 49
c13.333 13.333 29.166 24.666 47.499 33.999s37.833 15.666 58.5 18.999v4c-26 4 -48.5 13.333 -67.5 28s-35.167 34.667 -48.5 60c-6 11.333 -11.167 22.5 -15.5 33.5s-17.166 60.167 -38.499 147.5c-4 18 -8.16699 32.833 -12.5 44.5s-8.83301 21.167 -13.5 28.5
c-7.33301 10.667 -15.333 18.5 -24 23.5s-22 7.5 -40 7.5c-6 0 -11.5 -0.166992 -16.5 -0.5s-9.5 -0.833008 -13.5 -1.5v123c10.667 2 21.167 3.5 31.5 4.5s19.5 1.5 27.5 1.5c38 0 69.333 -6.83301 94 -20.5s45.334 -35.5 62.001 -65.5
c12.667 -23.333 25 -59.166 37 -107.499s23.333 -87.5 34 -117.5c8.66699 -24 18 -43.667 28 -59s22 -27.666 36 -36.999c16 -12 35.5 -20.5 58.5 -25.5s49.167 -7.5 78.5 -7.5h80v434z" />
    <glyph glyph-name="afii10073" unicode="&#xe7;" horiz-adv-x="1038" 
d="M241 739l-144.993 39.0049c12.667 55.333 35.167 103 67.5 143s73.833 72 124.5 96c33.333 16 70.666 27.833 111.999 35.5s85.333 11.5 132 11.5c55.333 0 105.666 -4.83301 150.999 -14.5s83.666 -23.834 114.999 -42.501
c41.333 -24.667 73.166 -56.334 95.499 -95.001s33.5 -81.334 33.5 -128.001c0 -33.333 -5.83301 -64.166 -17.5 -92.499s-28.167 -52.833 -49.5 -73.5c-18 -17.333 -39.667 -31.833 -65 -43.5s-53 -19.167 -83 -22.5v-4c32.667 -2.66699 65.167 -10.834 97.5 -24.501
s59.166 -32.167 80.499 -55.5c20 -20.667 36 -46.334 48 -77.001s18 -63.667 18 -99c0 -50 -11.5 -95.833 -34.5 -137.5s-55.167 -76.167 -96.5 -103.5c-35.333 -24 -77.666 -41.833 -126.999 -53.5s-109.333 -17.5 -180 -17.5c-78.667 0 -144.667 7.66699 -198 23
s-98.666 39.333 -135.999 72c-28.667 25.333 -52.667 56.166 -72 92.499s-33 73.833 -41 112.5l152 31c4 -23.333 11.167 -45.333 21.5 -66s22.833 -39 37.5 -55c25.333 -26.667 57.166 -47.334 95.499 -62.001s82.166 -22 131.499 -22c38.667 0 75 4.16699 109 12.5
s61.333 19.166 82 32.499c25.333 16.667 44.333 36.834 57 60.501s19 49.834 19 78.501c0 27.333 -4.33301 52 -13 74s-20.667 40.333 -36 55c-21.333 20 -47.833 35 -79.5 45s-74.167 15 -127.5 15h-117v127h117c26 0 52.5 2.5 79.5 7.5s48.833 11.167 65.5 18.5
c31.333 14.667 54.166 34.167 68.499 58.5s21.5 54.166 21.5 89.499c0 22 -4.5 42.5 -13.5 61.5s-23.5 35.833 -43.5 50.5c-18 14 -42.667 25 -74 33s-67.333 12 -108 12c-39.333 0 -75.333 -5.16699 -108 -15.5s-61.667 -26.166 -87 -47.499
c-20.667 -17.333 -37.834 -37.5 -51.501 -60.5s-23.167 -47.833 -28.5 -74.5z" />
    <glyph glyph-name="afii10073" unicode="&#x437;" horiz-adv-x="1038" 
d="M241 739l-144.993 39.0049c12.667 55.333 35.167 103 67.5 143s73.833 72 124.5 96c33.333 16 70.666 27.833 111.999 35.5s85.333 11.5 132 11.5c55.333 0 105.666 -4.83301 150.999 -14.5s83.666 -23.834 114.999 -42.501
c41.333 -24.667 73.166 -56.334 95.499 -95.001s33.5 -81.334 33.5 -128.001c0 -33.333 -5.83301 -64.166 -17.5 -92.499s-28.167 -52.833 -49.5 -73.5c-18 -17.333 -39.667 -31.833 -65 -43.5s-53 -19.167 -83 -22.5v-4c32.667 -2.66699 65.167 -10.834 97.5 -24.501
s59.166 -32.167 80.499 -55.5c20 -20.667 36 -46.334 48 -77.001s18 -63.667 18 -99c0 -50 -11.5 -95.833 -34.5 -137.5s-55.167 -76.167 -96.5 -103.5c-35.333 -24 -77.666 -41.833 -126.999 -53.5s-109.333 -17.5 -180 -17.5c-78.667 0 -144.667 7.66699 -198 23
s-98.666 39.333 -135.999 72c-28.667 25.333 -52.667 56.166 -72 92.499s-33 73.833 -41 112.5l152 31c4 -23.333 11.167 -45.333 21.5 -66s22.833 -39 37.5 -55c25.333 -26.667 57.166 -47.334 95.499 -62.001s82.166 -22 131.499 -22c38.667 0 75 4.16699 109 12.5
s61.333 19.166 82 32.499c25.333 16.667 44.333 36.834 57 60.501s19 49.834 19 78.501c0 27.333 -4.33301 52 -13 74s-20.667 40.333 -36 55c-21.333 20 -47.833 35 -79.5 45s-74.167 15 -127.5 15h-117v127h117c26 0 52.5 2.5 79.5 7.5s48.833 11.167 65.5 18.5
c31.333 14.667 54.166 34.167 68.499 58.5s21.5 54.166 21.5 89.499c0 22 -4.5 42.5 -13.5 61.5s-23.5 35.833 -43.5 50.5c-18 14 -42.667 25 -74 33s-67.333 12 -108 12c-39.333 0 -75.333 -5.16699 -108 -15.5s-61.667 -26.166 -87 -47.499
c-20.667 -17.333 -37.834 -37.5 -51.501 -60.5s-23.167 -47.833 -28.5 -74.5z" />
    <glyph glyph-name="afii10074" unicode="&#xe8;" horiz-adv-x="1126" 
d="M165 1044l155.999 -0.000976562v-627v-5.5c0 -0.333008 -2 -46.166 -6 -137.499c12 26.667 25.167 52.167 39.5 76.5s33.833 52.833 58.5 85.5l391 518v90h156v-1044h-156v616c0 25.333 0.833008 51.5 2.5 78.5s3.83398 50.5 6.50098 70.5
c-7.33301 -16 -18.5 -35.833 -33.5 -59.5s-35.5 -52.167 -61.5 -85.5l-397 -520v-100h-156v1044z" />
    <glyph glyph-name="afii10074" unicode="&#x438;" horiz-adv-x="1126" 
d="M165 1044l155.999 -0.000976562v-627v-5.5c0 -0.333008 -2 -46.166 -6 -137.499c12 26.667 25.167 52.167 39.5 76.5s33.833 52.833 58.5 85.5l391 518v90h156v-1044h-156v616c0 25.333 0.833008 51.5 2.5 78.5s3.83398 50.5 6.50098 70.5
c-7.33301 -16 -18.5 -35.833 -33.5 -59.5s-35.5 -52.167 -61.5 -85.5l-397 -520v-100h-156v1044z" />
    <glyph glyph-name="afii10075" unicode="&#xe9;" horiz-adv-x="1126" 
d="M165 1044l155.999 -0.000976562v-627v-5.5c0 -0.333008 -2 -46.166 -6 -137.499c12 26.667 25.167 52.167 39.5 76.5s33.833 52.833 58.5 85.5l391 518v90h156v-1044h-156v616c0 25.333 0.833008 51.5 2.5 78.5s3.83398 50.5 6.50098 70.5
c-7.33301 -16 -18.5 -35.833 -33.5 -59.5s-35.5 -52.167 -61.5 -85.5l-397 -520v-100h-156v1044zM695.999 1409h147.002c0 -29.333 -4.66699 -56 -14 -80s-22.333 -45.333 -39 -64c-24.667 -28 -56.167 -49.333 -94.5 -64s-82.5 -22 -132.5 -22
c-50.667 0 -95 7.33301 -133 22s-69.667 36 -95 64c-16 18.667 -28.833 40 -38.5 64s-14.5 50.667 -14.5 80h148c0.666992 -16 4 -31.667 10 -47s14 -28.333 24 -39c11.333 -12 24.833 -20.833 40.5 -26.5s35.167 -8.5 58.5 -8.5s42.666 2.83301 57.999 8.5
s28.666 14.5 39.999 26.5c10 10.667 18.167 23.667 24.5 39s9.83301 31 10.5 47z" />
    <glyph glyph-name="afii10075" unicode="&#x439;" horiz-adv-x="1126" 
d="M165 1044l155.999 -0.000976562v-627v-5.5c0 -0.333008 -2 -46.166 -6 -137.499c12 26.667 25.167 52.167 39.5 76.5s33.833 52.833 58.5 85.5l391 518v90h156v-1044h-156v616c0 25.333 0.833008 51.5 2.5 78.5s3.83398 50.5 6.50098 70.5
c-7.33301 -16 -18.5 -35.833 -33.5 -59.5s-35.5 -52.167 -61.5 -85.5l-397 -520v-100h-156v1044zM695.999 1409h147.002c0 -29.333 -4.66699 -56 -14 -80s-22.333 -45.333 -39 -64c-24.667 -28 -56.167 -49.333 -94.5 -64s-82.5 -22 -132.5 -22
c-50.667 0 -95 7.33301 -133 22s-69.667 36 -95 64c-16 18.667 -28.833 40 -38.5 64s-14.5 50.667 -14.5 80h148c0.666992 -16 4 -31.667 10 -47s14 -28.333 24 -39c11.333 -12 24.833 -20.833 40.5 -26.5s35.167 -8.5 58.5 -8.5s42.666 2.83301 57.999 8.5
s28.666 14.5 39.999 26.5c10 10.667 18.167 23.667 24.5 39s9.83301 31 10.5 47z" />
    <glyph glyph-name="glyph177" unicode="&#xea;" horiz-adv-x="1052" 
d="M321 608l139 -0.00195312c81.333 0 139 16.167 173 48.5s60.333 89.833 79 172.5c14 61.333 25.167 101.333 33.5 120s17.833 34 28.5 46c16 18.667 35.833 32.5 59.5 41.5s51.5 13.5 83.5 13.5c8 0 16.167 -0.333008 24.5 -1s16.5 -1.66699 24.5 -3v-123
c-4.66699 0.666992 -9.66699 1 -15 1s-11.333 -0.333008 -18 -1c-16.667 -1.33301 -30 -4.5 -40 -9.5s-18.333 -12.167 -25 -21.5c-6.66699 -8 -12.834 -20.333 -18.501 -37s-10.5 -35.667 -14.5 -57l-14 -74c-10 -48.667 -28.333 -88.5 -55 -119.5s-61 -49.833 -103 -56.5
v-4c41.333 -3.33301 74.833 -16.5 100.5 -39.5s46.834 -56.833 63.501 -101.5c12.667 -34 27 -78.5 43 -133.5s28.333 -90.5 37 -106.5c8 -16 17.167 -27.167 27.5 -33.5s27.166 -9.5 50.499 -9.5c9.33301 0 16.666 0.166992 21.999 0.5s10 0.833008 14 1.5v-124
c-9.33301 -1.33301 -19.166 -2.33301 -29.499 -3s-22.833 -1 -37.5 -1c-63.333 0 -109.833 10.833 -139.5 32.5s-58.167 76.834 -85.5 165.501c-26 84 -42.5 135.333 -49.5 154s-13.833 34.334 -20.5 47.001c-17.333 30 -40.166 52.167 -68.499 66.5s-67.5 21.5 -117.5 21.5
h-152v-481h-156v1044h156v-436z" />
    <glyph glyph-name="glyph177" unicode="&#x43a;" horiz-adv-x="1052" 
d="M321 608l139 -0.00195312c81.333 0 139 16.167 173 48.5s60.333 89.833 79 172.5c14 61.333 25.167 101.333 33.5 120s17.833 34 28.5 46c16 18.667 35.833 32.5 59.5 41.5s51.5 13.5 83.5 13.5c8 0 16.167 -0.333008 24.5 -1s16.5 -1.66699 24.5 -3v-123
c-4.66699 0.666992 -9.66699 1 -15 1s-11.333 -0.333008 -18 -1c-16.667 -1.33301 -30 -4.5 -40 -9.5s-18.333 -12.167 -25 -21.5c-6.66699 -8 -12.834 -20.333 -18.501 -37s-10.5 -35.667 -14.5 -57l-14 -74c-10 -48.667 -28.333 -88.5 -55 -119.5s-61 -49.833 -103 -56.5
v-4c41.333 -3.33301 74.833 -16.5 100.5 -39.5s46.834 -56.833 63.501 -101.5c12.667 -34 27 -78.5 43 -133.5s28.333 -90.5 37 -106.5c8 -16 17.167 -27.167 27.5 -33.5s27.166 -9.5 50.499 -9.5c9.33301 0 16.666 0.166992 21.999 0.5s10 0.833008 14 1.5v-124
c-9.33301 -1.33301 -19.166 -2.33301 -29.499 -3s-22.833 -1 -37.5 -1c-63.333 0 -109.833 10.833 -139.5 32.5s-58.167 76.834 -85.5 165.501c-26 84 -42.5 135.333 -49.5 154s-13.833 34.334 -20.5 47.001c-17.333 30 -40.166 52.167 -68.499 66.5s-67.5 21.5 -117.5 21.5
h-152v-481h-156v1044h156v-436z" />
    <glyph glyph-name="afii10077" unicode="&#xeb;" horiz-adv-x="1044" 
d="M249 1044l628.998 0.00195312v-1044h-156v917h-335c-7.33301 -202.667 -15.5 -356.334 -24.5 -461.001s-22.833 -183.667 -41.5 -237c-24.667 -73.333 -62.667 -128.166 -114 -164.499s-114.333 -54.5 -189 -54.5h-4h-4v135c2.66699 -0.666992 5.33398 -1 8.00098 -1
s5.33398 0.333008 8.00098 1c30 2 59.667 13.167 89 33.5s52.333 45.166 69 74.499c19.333 36 33.833 104.167 43.5 204.5s16.167 260.166 19.5 479.499z" />
    <glyph glyph-name="afii10077" unicode="&#x43b;" horiz-adv-x="1044" 
d="M249 1044l628.998 0.00195312v-1044h-156v917h-335c-7.33301 -202.667 -15.5 -356.334 -24.5 -461.001s-22.833 -183.667 -41.5 -237c-24.667 -73.333 -62.667 -128.166 -114 -164.499s-114.333 -54.5 -189 -54.5h-4h-4v135c2.66699 -0.666992 5.33398 -1 8.00098 -1
s5.33398 0.333008 8.00098 1c30 2 59.667 13.167 89 33.5s52.333 45.166 69 74.499c19.333 36 33.833 104.167 43.5 204.5s16.167 260.166 19.5 479.499z" />
    <glyph glyph-name="afii10078" unicode="&#xec;" horiz-adv-x="1400" 
d="M165 1044l217 0.00195312l326 -799l309 799h217v-1044h-155v716c0 30.667 1 59.5 3 86.5s3.66699 52.833 5 77.5c-12 -22 -24.833 -48.833 -38.5 -80.5s-27.5 -65.5 -41.5 -101.5l-270 -698h-80l-289 698l-32 80.5c-13.333 34.333 -27.333 68.166 -42 101.499
c0.666992 -18.667 2 -45.334 4 -80.001s3 -60.667 3 -78v-722h-136v1044z" />
    <glyph glyph-name="afii10078" unicode="&#x43c;" horiz-adv-x="1400" 
d="M165 1044l217 0.00195312l326 -799l309 799h217v-1044h-155v716c0 30.667 1 59.5 3 86.5s3.66699 52.833 5 77.5c-12 -22 -24.833 -48.833 -38.5 -80.5s-27.5 -65.5 -41.5 -101.5l-270 -698h-80l-289 698l-32 80.5c-13.333 34.333 -27.333 68.166 -42 101.499
c0.666992 -18.667 2 -45.334 4 -80.001s3 -60.667 3 -78v-722h-136v1044z" />
    <glyph glyph-name="afii10079" unicode="&#xed;" horiz-adv-x="1126" 
d="M165 1044h156v-436h483v436h156v-1044h-156v481h-483v-481h-156v1044z" />
    <glyph glyph-name="afii10079" unicode="&#x43d;" horiz-adv-x="1126" 
d="M165 1044h156v-436h483v436h156v-1044h-156v481h-483v-481h-156v1044z" />
    <glyph glyph-name="afii10080" unicode="&#xee;" horiz-adv-x="1105" 
d="M81 522c0 167.333 44 299.5 132 396.5s201 145.5 339 145.5c138.667 0 252 -48.5 340 -145.5s132 -229.167 132 -396.5s-44 -299.5 -132 -396.5s-201.333 -145.5 -340 -145.5c-138 0 -251 48.5 -339 145.5s-132 229.167 -132 396.5zM552 114
c89.333 0 160.166 33 212.499 99s78.5 169 78.5 309c0 139.333 -26.167 242 -78.5 308s-123.166 99 -212.499 99c-88.667 0 -159.167 -33 -211.5 -99s-78.5 -168.667 -78.5 -308c0 -140 26.167 -243 78.5 -309s122.833 -99 211.5 -99z" />
    <glyph glyph-name="afii10080" unicode="&#x43e;" horiz-adv-x="1105" 
d="M81 522c0 167.333 44 299.5 132 396.5s201 145.5 339 145.5c138.667 0 252 -48.5 340 -145.5s132 -229.167 132 -396.5s-44 -299.5 -132 -396.5s-201.333 -145.5 -340 -145.5c-138 0 -251 48.5 -339 145.5s-132 229.167 -132 396.5zM552 114
c89.333 0 160.166 33 212.499 99s78.5 169 78.5 309c0 139.333 -26.167 242 -78.5 308s-123.166 99 -212.499 99c-88.667 0 -159.167 -33 -211.5 -99s-78.5 -168.667 -78.5 -308c0 -140 26.167 -243 78.5 -309s122.833 -99 211.5 -99z" />
    <glyph glyph-name="afii10081" unicode="&#xef;" horiz-adv-x="1126" 
d="M165 1044h795v-1044h-156v917h-483v-917h-156v1044z" />
    <glyph glyph-name="afii10081" unicode="&#x43f;" horiz-adv-x="1126" 
d="M165 1044h795v-1044h-156v917h-483v-917h-156v1044z" />
    <glyph glyph-name="afii10082" unicode="&#xf0;" horiz-adv-x="1124" 
d="M321 -339h-155.999v1383h144v-197l2 2c28 66 69 118.333 123 157s116.667 58 188 58c62 0 117 -10.5 165 -31.5s89.333 -50.5 124 -88.5c42.667 -48.667 75.167 -110.334 97.5 -185.001s33.5 -151.667 33.5 -231c0 -72.667 -9.33301 -144.167 -28 -214.5
s-46.334 -129.833 -83.001 -178.5c-36.667 -50 -81 -88.333 -133 -115s-110.667 -40 -176 -40c-69.333 0 -129 15.333 -179 46s-88.667 76.334 -116 137.001h-6v-502zM321.001 632v-219c0 -44 6.33301 -83.5 19 -118.5s31 -65.833 55 -92.5c24 -27.333 53 -48.833 87 -64.5
s71 -23.5 111 -23.5c41.333 0 79.833 10.333 115.5 31s65.5 51.334 89.5 92.001c20.667 34 36.5 75.833 47.5 125.5s16.5 104.167 16.5 163.5c0 62 -5.5 117.5 -16.5 166.5s-26.167 89.167 -45.5 120.5c-24 38.667 -53.667 67.667 -89 87s-74 29 -116 29
c-36.667 0 -70.667 -6.66699 -102 -20s-60 -34 -86 -62c-28 -29.333 -49.333 -61.833 -64 -97.5s-22 -74.834 -22 -117.501z" />
    <glyph glyph-name="afii10082" unicode="&#x440;" horiz-adv-x="1124" 
d="M321 -339h-155.999v1383h144v-197l2 2c28 66 69 118.333 123 157s116.667 58 188 58c62 0 117 -10.5 165 -31.5s89.333 -50.5 124 -88.5c42.667 -48.667 75.167 -110.334 97.5 -185.001s33.5 -151.667 33.5 -231c0 -72.667 -9.33301 -144.167 -28 -214.5
s-46.334 -129.833 -83.001 -178.5c-36.667 -50 -81 -88.333 -133 -115s-110.667 -40 -176 -40c-69.333 0 -129 15.333 -179 46s-88.667 76.334 -116 137.001h-6v-502zM321.001 632v-219c0 -44 6.33301 -83.5 19 -118.5s31 -65.833 55 -92.5c24 -27.333 53 -48.833 87 -64.5
s71 -23.5 111 -23.5c41.333 0 79.833 10.333 115.5 31s65.5 51.334 89.5 92.001c20.667 34 36.5 75.833 47.5 125.5s16.5 104.167 16.5 163.5c0 62 -5.5 117.5 -16.5 166.5s-26.167 89.167 -45.5 120.5c-24 38.667 -53.667 67.667 -89 87s-74 29 -116 29
c-36.667 0 -70.667 -6.66699 -102 -20s-60 -34 -86 -62c-28 -29.333 -49.333 -61.833 -64 -97.5s-22 -74.834 -22 -117.501z" />
    <glyph glyph-name="afii10083" unicode="&#xf1;" horiz-adv-x="987" 
d="M925 706l-147.006 -27.0029c-4 29.333 -11.167 58.333 -21.5 87s-22.5 52.334 -36.5 71.001c-20 28.667 -46.167 51.167 -78.5 67.5s-69.5 24.5 -111.5 24.5c-44 0 -82.667 -10 -116 -30s-61.666 -48.667 -84.999 -86c-23.333 -38 -40.333 -82 -51 -132
s-16 -104.333 -16 -163c0 -61.333 5.66699 -118.5 17 -171.5s28 -95.5 50 -127.5c22.667 -33.333 50.834 -59.166 84.501 -77.499s71.834 -27.5 114.501 -27.5c38.667 0 72.834 7 102.501 21s56.167 35.667 79.5 65c18 22.667 32.833 49 44.5 79s19.5 60.333 23.5 91
l147 -26c-6.66699 -50 -20.5 -97.167 -41.5 -141.5s-46.833 -81.833 -77.5 -112.5c-36.667 -38 -78.5 -65.833 -125.5 -83.5s-99.167 -26.5 -156.5 -26.5c-55.333 0 -107.666 8.33301 -156.999 25s-92.666 42 -129.999 76c-50 46.667 -88.5 108.834 -115.5 186.501
s-40.5 161.834 -40.5 252.501c0 72.667 8.66699 140.167 26 202.5s45 119.5 83 171.5c42.667 59.333 92.667 102.5 150 129.5s122 40.5 194 40.5c58.667 0 111.834 -9.5 159.501 -28.5s89.5 -48.833 125.5 -89.5c24.667 -28.667 46.667 -64.334 66 -107.001
s32.666 -87 39.999 -133z" />
    <glyph glyph-name="afii10083" unicode="&#x441;" horiz-adv-x="987" 
d="M925 706l-147.006 -27.0029c-4 29.333 -11.167 58.333 -21.5 87s-22.5 52.334 -36.5 71.001c-20 28.667 -46.167 51.167 -78.5 67.5s-69.5 24.5 -111.5 24.5c-44 0 -82.667 -10 -116 -30s-61.666 -48.667 -84.999 -86c-23.333 -38 -40.333 -82 -51 -132
s-16 -104.333 -16 -163c0 -61.333 5.66699 -118.5 17 -171.5s28 -95.5 50 -127.5c22.667 -33.333 50.834 -59.166 84.501 -77.499s71.834 -27.5 114.501 -27.5c38.667 0 72.834 7 102.501 21s56.167 35.667 79.5 65c18 22.667 32.833 49 44.5 79s19.5 60.333 23.5 91
l147 -26c-6.66699 -50 -20.5 -97.167 -41.5 -141.5s-46.833 -81.833 -77.5 -112.5c-36.667 -38 -78.5 -65.833 -125.5 -83.5s-99.167 -26.5 -156.5 -26.5c-55.333 0 -107.666 8.33301 -156.999 25s-92.666 42 -129.999 76c-50 46.667 -88.5 108.834 -115.5 186.501
s-40.5 161.834 -40.5 252.501c0 72.667 8.66699 140.167 26 202.5s45 119.5 83 171.5c42.667 59.333 92.667 102.5 150 129.5s122 40.5 194 40.5c58.667 0 111.834 -9.5 159.501 -28.5s89.5 -48.833 125.5 -89.5c24.667 -28.667 46.667 -64.334 66 -107.001
s32.666 -87 39.999 -133z" />
    <glyph glyph-name="afii10084" unicode="&#xf2;" horiz-adv-x="811" 
d="M0 1044h811v-127h-328v-917h-156v917h-327v127z" />
    <glyph glyph-name="afii10084" unicode="&#x442;" horiz-adv-x="811" 
d="M0 1044h811v-127h-328v-917h-156v917h-327v127z" />
    <glyph glyph-name="glyph190" unicode="&#xf3;" horiz-adv-x="874" 
d="M894 1044l-411.003 -1142c-17.333 -48 -34.5 -85.833 -51.5 -113.5s-36.833 -51.834 -59.5 -72.501c-27.333 -26 -56.666 -45.167 -87.999 -57.5s-66.666 -18.5 -105.999 -18.5c-21.333 0 -43.5 1.83301 -66.5 5.5s-44.5 8.83398 -64.5 15.501v120
c18 -4.66699 35.333 -8.16699 52 -10.5s36.667 -3.5 60 -3.5c28.667 0 51.667 2.83301 69 8.5s33.333 14.5 48 26.5c16.667 14 32.334 34 47.001 60s31.667 66.667 51 122l13 34l-367 1026h180l271 -803l280 803h143z" />
    <glyph glyph-name="glyph190" unicode="&#x443;" horiz-adv-x="874" 
d="M894 1044l-411.003 -1142c-17.333 -48 -34.5 -85.833 -51.5 -113.5s-36.833 -51.834 -59.5 -72.501c-27.333 -26 -56.666 -45.167 -87.999 -57.5s-66.666 -18.5 -105.999 -18.5c-21.333 0 -43.5 1.83301 -66.5 5.5s-44.5 8.83398 -64.5 15.501v120
c18 -4.66699 35.333 -8.16699 52 -10.5s36.667 -3.5 60 -3.5c28.667 0 51.667 2.83301 69 8.5s33.333 14.5 48 26.5c16.667 14 32.334 34 47.001 60s31.667 66.667 51 122l13 34l-367 1026h180l271 -803l280 803h143z" />
    <glyph glyph-name="afii10086" unicode="&#xf4;" horiz-adv-x="1404" 
d="M624 1404h155.996v-360h20c56.667 0 116.834 -10.333 180.501 -31s116.834 -47.334 159.501 -80.001c62 -46.667 108 -106.334 138 -179.001s45 -152.667 45 -240c0 -82.667 -13.333 -157 -40 -223s-64 -121 -112 -165c-45.333 -41.333 -102.5 -72.833 -171.5 -94.5
s-142.167 -32.167 -219.5 -31.5v-339h-156v339c-77.333 -0.666992 -150.5 9.83301 -219.5 31.5s-126.167 53.167 -171.5 94.5c-48 44 -85.333 99 -112 165s-40 140.333 -40 223c0 87.333 15 167.333 45 240s76 132.334 138 179.001
c42.667 32.667 95.834 59.334 159.501 80.001s123.834 31 180.501 31h20v360zM629.996 126v790.997h-16c-51.333 0 -94 -4.66699 -128 -14s-65 -23.666 -93 -42.999c-44.667 -31.333 -79.167 -75.166 -103.5 -131.499s-36.5 -125.166 -36.5 -206.499
c0 -76 11.667 -142.667 35 -200s60.333 -103.333 111 -138c28 -20 57.5 -34.667 88.5 -44s70.5 -14 118.5 -14h24zM773.996 916.997v-790.997h24c48 0 87.5 4.66699 118.5 14s60.5 24 88.5 44c50 34.667 86.667 80.667 110 138s35 124 35 200
c0 81.333 -12 150.166 -36 206.499s-58.333 100.166 -103 131.499c-28 19.333 -59.167 33.666 -93.5 42.999s-76.833 14 -127.5 14h-16z" />
    <glyph glyph-name="afii10086" unicode="&#x444;" horiz-adv-x="1404" 
d="M624 1404h155.996v-360h20c56.667 0 116.834 -10.333 180.501 -31s116.834 -47.334 159.501 -80.001c62 -46.667 108 -106.334 138 -179.001s45 -152.667 45 -240c0 -82.667 -13.333 -157 -40 -223s-64 -121 -112 -165c-45.333 -41.333 -102.5 -72.833 -171.5 -94.5
s-142.167 -32.167 -219.5 -31.5v-339h-156v339c-77.333 -0.666992 -150.5 9.83301 -219.5 31.5s-126.167 53.167 -171.5 94.5c-48 44 -85.333 99 -112 165s-40 140.333 -40 223c0 87.333 15 167.333 45 240s76 132.334 138 179.001
c42.667 32.667 95.834 59.334 159.501 80.001s123.834 31 180.501 31h20v360zM629.996 126v790.997h-16c-51.333 0 -94 -4.66699 -128 -14s-65 -23.666 -93 -42.999c-44.667 -31.333 -79.167 -75.166 -103.5 -131.499s-36.5 -125.166 -36.5 -206.499
c0 -76 11.667 -142.667 35 -200s60.333 -103.333 111 -138c28 -20 57.5 -34.667 88.5 -44s70.5 -14 118.5 -14h24zM773.996 916.997v-790.997h24c48 0 87.5 4.66699 118.5 14s60.5 24 88.5 44c50 34.667 86.667 80.667 110 138s35 124 35 200
c0 81.333 -12 150.166 -36 206.499s-58.333 100.166 -103 131.499c-28 19.333 -59.167 33.666 -93.5 42.999s-76.833 14 -127.5 14h-16z" />
    <glyph glyph-name="afii10087" unicode="&#xf5;" horiz-adv-x="894" 
d="M40 1044h189l219 -360l227 360h156l-303 -471l358 -573h-188l-262 421l-273 -421h-155l348 538z" />
    <glyph glyph-name="afii10087" unicode="&#x445;" horiz-adv-x="894" 
d="M40 1044h189l219 -360l227 360h156l-303 -471l358 -573h-188l-262 421l-273 -421h-155l348 538z" />
    <glyph glyph-name="afii10088" unicode="&#xf6;" horiz-adv-x="1179" 
d="M165 1044h156v-918h508v918h156v-918h143v-406h-143v280h-820v1044z" />
    <glyph glyph-name="afii10088" unicode="&#x446;" horiz-adv-x="1179" 
d="M165 1044h156v-918h508v918h156v-918h143v-406h-143v280h-820v1044z" />
    <glyph glyph-name="afii10089" unicode="&#xf7;" horiz-adv-x="1021" 
d="M112 1044l156.001 0.000976562v-289c0 -60 2.16699 -98.5 6.5 -115.5s11.5 -31.833 21.5 -44.5c12.667 -14.667 30.167 -25.834 52.5 -33.501s64.5 -11.5 126.5 -11.5c29.333 0 64 1.33301 104 4s80.333 6.33398 121 11.001v479h156v-1044h-156v440
c-48.667 -6.66699 -90.334 -11.167 -125.001 -13.5s-76.334 -3.5 -125.001 -3.5c-70 0 -122.667 4.66699 -158 14s-64.666 22.666 -87.999 39.999c-33.333 24.667 -57 57.667 -71 99s-21 109.333 -21 204v264z" />
    <glyph glyph-name="afii10089" unicode="&#x447;" horiz-adv-x="1021" 
d="M112 1044l156.001 0.000976562v-289c0 -60 2.16699 -98.5 6.5 -115.5s11.5 -31.833 21.5 -44.5c12.667 -14.667 30.167 -25.834 52.5 -33.501s64.5 -11.5 126.5 -11.5c29.333 0 64 1.33301 104 4s80.333 6.33398 121 11.001v479h156v-1044h-156v440
c-48.667 -6.66699 -90.334 -11.167 -125.001 -13.5s-76.334 -3.5 -125.001 -3.5c-70 0 -122.667 4.66699 -158 14s-64.666 22.666 -87.999 39.999c-33.333 24.667 -57 57.667 -71 99s-21 109.333 -21 204v264z" />
    <glyph glyph-name="afii10090" unicode="&#xf8;" horiz-adv-x="1519" 
d="M165 1044h156v-918h360v918h156v-918h361v918h155v-1044h-1188v1044z" />
    <glyph glyph-name="afii10090" unicode="&#x448;" horiz-adv-x="1519" 
d="M165 1044h156v-918h360v918h156v-918h361v918h155v-1044h-1188v1044z" />
    <glyph glyph-name="afii10091" unicode="&#xf9;" horiz-adv-x="1548" 
d="M165 1044h156v-918h360v918h156v-918h361v918h155v-918h144v-406h-144v280h-1188v1044z" />
    <glyph glyph-name="afii10091" unicode="&#x449;" horiz-adv-x="1548" 
d="M165 1044h156v-918h360v918h156v-918h361v918h155v-918h144v-406h-144v280h-1188v1044z" />
    <glyph glyph-name="afii10092" unicode="&#xfa;" horiz-adv-x="1171" 
d="M-10 1044l465.999 -0.000976562v-412h291c64.667 0 117 -6.66699 157 -20s73.667 -33.333 101 -60c26 -24 46.5 -55.333 61.5 -94s22.5 -83.667 22.5 -135c0 -52 -8.33301 -99.167 -25 -141.5s-43 -79.166 -79 -110.499c-27.333 -23.333 -57.666 -41 -90.999 -53
s-73.333 -18 -120 -18h-473v917h-311v127zM455.999 504.999l0.00195312 -378.999h244c43.333 0 75.666 3.66699 96.999 11s40.333 18 57 32c19.333 17.333 34.666 39.166 45.999 65.499s17 56.5 17 90.5s-6.16699 63.5 -18.5 88.5s-29.5 44.833 -51.5 59.5
c-16 10 -36.5 17.833 -61.5 23.5s-51.5 8.5 -79.5 8.5h-250z" />
    <glyph glyph-name="afii10092" unicode="&#x44a;" horiz-adv-x="1171" 
d="M-10 1044l465.999 -0.000976562v-412h291c64.667 0 117 -6.66699 157 -20s73.667 -33.333 101 -60c26 -24 46.5 -55.333 61.5 -94s22.5 -83.667 22.5 -135c0 -52 -8.33301 -99.167 -25 -141.5s-43 -79.166 -79 -110.499c-27.333 -23.333 -57.666 -41 -90.999 -53
s-73.333 -18 -120 -18h-473v917h-311v127zM455.999 504.999l0.00195312 -378.999h244c43.333 0 75.666 3.66699 96.999 11s40.333 18 57 32c19.333 17.333 34.666 39.166 45.999 65.499s17 56.5 17 90.5s-6.16699 63.5 -18.5 88.5s-29.5 44.833 -51.5 59.5
c-16 10 -36.5 17.833 -61.5 23.5s-51.5 8.5 -79.5 8.5h-250z" />
    <glyph glyph-name="afii10093" unicode="&#xfb;" horiz-adv-x="1413" 
d="M165 1044l156.002 -0.000976562v-412h291c64 0 116.167 -6.66699 156.5 -20s74.166 -33.333 101.499 -60c25.333 -24 45.666 -55.333 60.999 -94s23 -83.667 23 -135c0 -52 -8.33301 -99.167 -25 -141.5s-43.334 -79.166 -80.001 -110.499
c-26.667 -23.333 -56.667 -41 -90 -53s-73.666 -18 -120.999 -18h-473v1044zM321.002 504.999l0.000976562 -378.999h244c43.333 0 75.666 3.66699 96.999 11s40 18 56 32c20 17.333 35.667 39.166 47 65.499s17 56.5 17 90.5s-6.16699 63.5 -18.5 88.5
s-29.5 44.833 -51.5 59.5c-16 10 -36.5 17.833 -61.5 23.5s-51.5 8.5 -79.5 8.5h-250zM1091 1044h156v-1044h-156v1044z" />
    <glyph glyph-name="afii10093" unicode="&#x44b;" horiz-adv-x="1413" 
d="M165 1044l156.002 -0.000976562v-412h291c64 0 116.167 -6.66699 156.5 -20s74.166 -33.333 101.499 -60c25.333 -24 45.666 -55.333 60.999 -94s23 -83.667 23 -135c0 -52 -8.33301 -99.167 -25 -141.5s-43.334 -79.166 -80.001 -110.499
c-26.667 -23.333 -56.667 -41 -90 -53s-73.666 -18 -120.999 -18h-473v1044zM321.002 504.999l0.000976562 -378.999h244c43.333 0 75.666 3.66699 96.999 11s40 18 56 32c20 17.333 35.667 39.166 47 65.499s17 56.5 17 90.5s-6.16699 63.5 -18.5 88.5
s-29.5 44.833 -51.5 59.5c-16 10 -36.5 17.833 -61.5 23.5s-51.5 8.5 -79.5 8.5h-250zM1091 1044h156v-1044h-156v1044z" />
    <glyph glyph-name="afii10094" unicode="&#xfc;" horiz-adv-x="1036" 
d="M165 1044l156.002 -0.000976562v-412h291c64 0 116.167 -6.66699 156.5 -20s74.166 -33.333 101.499 -60c25.333 -24 45.666 -55.333 60.999 -94s23 -83.667 23 -135c0 -52 -8.33301 -99.167 -25 -141.5s-43.334 -79.166 -80.001 -110.499
c-26.667 -23.333 -56.667 -41 -90 -53s-73.666 -18 -120.999 -18h-473v1044zM321.002 504.999l0.000976562 -378.999h244c43.333 0 75.666 3.66699 96.999 11s40 18 56 32c20 17.333 35.667 39.166 47 65.499s17 56.5 17 90.5s-6.16699 63.5 -18.5 88.5
s-29.5 44.833 -51.5 59.5c-16 10 -36.5 17.833 -61.5 23.5s-51.5 8.5 -79.5 8.5h-250z" />
    <glyph glyph-name="afii10094" unicode="&#x44c;" horiz-adv-x="1036" 
d="M165 1044l156.002 -0.000976562v-412h291c64 0 116.167 -6.66699 156.5 -20s74.166 -33.333 101.499 -60c25.333 -24 45.666 -55.333 60.999 -94s23 -83.667 23 -135c0 -52 -8.33301 -99.167 -25 -141.5s-43.334 -79.166 -80.001 -110.499
c-26.667 -23.333 -56.667 -41 -90 -53s-73.666 -18 -120.999 -18h-473v1044zM321.002 504.999l0.000976562 -378.999h244c43.333 0 75.666 3.66699 96.999 11s40 18 56 32c20 17.333 35.667 39.166 47 65.499s17 56.5 17 90.5s-6.16699 63.5 -18.5 88.5
s-29.5 44.833 -51.5 59.5c-16 10 -36.5 17.833 -61.5 23.5s-51.5 8.5 -79.5 8.5h-250z" />
    <glyph glyph-name="afii10095" unicode="&#xfd;" horiz-adv-x="1032" 
d="M241 737l-152.997 26.0049c11.333 44 29.5 84.167 54.5 120.5s55.167 67.833 90.5 94.5c38.667 29.333 81 51 127 65s100.667 21 164 21c68 0 126.667 -10.333 176 -31s93.666 -54.667 132.999 -102c38 -45.333 67 -101.333 87 -168s30 -138.334 30 -215.001
c0 -82.667 -9.5 -158.834 -28.5 -228.501s-46.5 -129.167 -82.5 -178.5c-41.333 -58 -88 -99.333 -140 -124s-118 -37 -198 -37c-50.667 0 -96.334 4.66699 -137.001 14s-79 24.666 -115 45.999c-40.667 25.333 -76.834 58.666 -108.501 99.999s-54.834 88 -69.501 140
l162 27c6.66699 -26.667 17.167 -50.5 31.5 -71.5s31.833 -40.167 52.5 -57.5c25.333 -21.333 52.333 -37.333 81 -48s62.334 -16 101.001 -16c49.333 0 90.833 9.16699 124.5 27.5s62.5 46.833 86.5 85.5c19.333 30 34.333 67.667 45 113s15.667 93 15 143h-379v127h379
c0 35.333 -4.33301 70.666 -13 105.999s-21 67 -37 95c-22 38.667 -50 68 -84 88s-75.333 30 -124 30c-38.667 0 -76.167 -7.16699 -112.5 -21.5s-67.833 -35.833 -94.5 -64.5c-13.333 -14 -25.5 -30 -36.5 -48s-20.167 -37.333 -27.5 -58z" />
    <glyph glyph-name="afii10095" unicode="&#x44d;" horiz-adv-x="1032" 
d="M241 737l-152.997 26.0049c11.333 44 29.5 84.167 54.5 120.5s55.167 67.833 90.5 94.5c38.667 29.333 81 51 127 65s100.667 21 164 21c68 0 126.667 -10.333 176 -31s93.666 -54.667 132.999 -102c38 -45.333 67 -101.333 87 -168s30 -138.334 30 -215.001
c0 -82.667 -9.5 -158.834 -28.5 -228.501s-46.5 -129.167 -82.5 -178.5c-41.333 -58 -88 -99.333 -140 -124s-118 -37 -198 -37c-50.667 0 -96.334 4.66699 -137.001 14s-79 24.666 -115 45.999c-40.667 25.333 -76.834 58.666 -108.501 99.999s-54.834 88 -69.501 140
l162 27c6.66699 -26.667 17.167 -50.5 31.5 -71.5s31.833 -40.167 52.5 -57.5c25.333 -21.333 52.333 -37.333 81 -48s62.334 -16 101.001 -16c49.333 0 90.833 9.16699 124.5 27.5s62.5 46.833 86.5 85.5c19.333 30 34.333 67.667 45 113s15.667 93 15 143h-379v127h379
c0 35.333 -4.33301 70.666 -13 105.999s-21 67 -37 95c-22 38.667 -50 68 -84 88s-75.333 30 -124 30c-38.667 0 -76.167 -7.16699 -112.5 -21.5s-67.833 -35.833 -94.5 -64.5c-13.333 -14 -25.5 -30 -36.5 -48s-20.167 -37.333 -27.5 -58z" />
    <glyph glyph-name="afii10096" unicode="&#xfe;" horiz-adv-x="1513" 
d="M165 1044h156v-440h168c6.66699 66 23.834 129.5 51.501 190.5s62.5 111.5 104.5 151.5c39.333 37.333 86.333 66.333 141 87s112.667 31 174 31c60.667 0 118 -10.167 172 -30.5s101 -49.5 141 -87.5c48.667 -46 87.167 -105.667 115.5 -179s42.5 -155 42.5 -245
c0 -90.667 -14.167 -172.5 -42.5 -245.5s-66.833 -132.5 -115.5 -178.5c-40 -38 -87 -67.167 -141 -87.5s-111.333 -30.5 -172 -30.5c-61.333 0 -119.333 10.333 -174 31s-101.667 49.667 -141 87c-44.667 42 -81.334 96.667 -110.001 164s-44 139 -46 215h-168v-477h-156
v1044zM960 114c38.667 0 74.334 6.66699 107.001 20s60.334 31.333 83.001 54c34 34 59.333 79.833 76 137.5s25 123.167 25 196.5c0 72.667 -8.33301 138 -25 196s-42 104 -76 138c-22.667 22.667 -50.334 40.5 -83.001 53.5s-68.334 19.5 -107.001 19.5
s-74.334 -6.5 -107.001 -19.5s-60.334 -30.833 -83.001 -53.5c-34 -34 -59.333 -80 -76 -138s-25 -123.333 -25 -196c0 -73.333 8.33301 -138.833 25 -196.5s42 -103.5 76 -137.5c22.667 -22.667 50.334 -40.667 83.001 -54s68.334 -20 107.001 -20z" />
    <glyph glyph-name="afii10096" unicode="&#x44e;" horiz-adv-x="1513" 
d="M165 1044h156v-440h168c6.66699 66 23.834 129.5 51.501 190.5s62.5 111.5 104.5 151.5c39.333 37.333 86.333 66.333 141 87s112.667 31 174 31c60.667 0 118 -10.167 172 -30.5s101 -49.5 141 -87.5c48.667 -46 87.167 -105.667 115.5 -179s42.5 -155 42.5 -245
c0 -90.667 -14.167 -172.5 -42.5 -245.5s-66.833 -132.5 -115.5 -178.5c-40 -38 -87 -67.167 -141 -87.5s-111.333 -30.5 -172 -30.5c-61.333 0 -119.333 10.333 -174 31s-101.667 49.667 -141 87c-44.667 42 -81.334 96.667 -110.001 164s-44 139 -46 215h-168v-477h-156
v1044zM960 114c38.667 0 74.334 6.66699 107.001 20s60.334 31.333 83.001 54c34 34 59.333 79.833 76 137.5s25 123.167 25 196.5c0 72.667 -8.33301 138 -25 196s-42 104 -76 138c-22.667 22.667 -50.334 40.5 -83.001 53.5s-68.334 19.5 -107.001 19.5
s-74.334 -6.5 -107.001 -19.5s-60.334 -30.833 -83.001 -53.5c-34 -34 -59.333 -80 -76 -138s-25 -123.333 -25 -196c0 -73.333 8.33301 -138.833 25 -196.5s42 -103.5 76 -137.5c22.667 -22.667 50.334 -40.667 83.001 -54s68.334 -20 107.001 -20z" />
    <glyph glyph-name="afii10097" unicode="&#xff;" horiz-adv-x="1050" 
d="M884 1044l0.000976562 -1044h-155v425h-226l-231 -425h-180l245 436c-30 7.33301 -58.833 18 -86.5 32s-50.5 30 -68.5 48c-28 26.667 -49 59.834 -63 99.501s-21 82.834 -21 129.501c0 34 4.66699 66.5 14 97.5s23.666 59.833 42.999 86.5
c30 42.667 67.5 72.5 112.5 89.5s107.167 25.5 186.5 25.5h430zM729.001 916.998h-213c-63.333 0 -108.333 -4.5 -135 -13.5s-49.334 -24.167 -68.001 -45.5c-14.667 -16.667 -25.5 -35.667 -32.5 -57s-10.5 -47 -10.5 -77c0 -27.333 4.33301 -51.833 13 -73.5
s21.334 -39.167 38.001 -52.5c17.333 -15.333 40.5 -26.833 69.5 -34.5s67.167 -11.5 114.5 -11.5h224v365z" />
    <glyph glyph-name="afii10097" unicode="&#x44f;" horiz-adv-x="1050" 
d="M884 1044l0.000976562 -1044h-155v425h-226l-231 -425h-180l245 436c-30 7.33301 -58.833 18 -86.5 32s-50.5 30 -68.5 48c-28 26.667 -49 59.834 -63 99.501s-21 82.834 -21 129.501c0 34 4.66699 66.5 14 97.5s23.666 59.833 42.999 86.5
c30 42.667 67.5 72.5 112.5 89.5s107.167 25.5 186.5 25.5h430zM729.001 916.998h-213c-63.333 0 -108.333 -4.5 -135 -13.5s-49.334 -24.167 -68.001 -45.5c-14.667 -16.667 -25.5 -35.667 -32.5 -57s-10.5 -47 -10.5 -77c0 -27.333 4.33301 -51.833 13 -73.5
s21.334 -39.167 38.001 -52.5c17.333 -15.333 40.5 -26.833 69.5 -34.5s67.167 -11.5 114.5 -11.5h224v365z" />
    <glyph glyph-name="afii10059" unicode="&#x152;" horiz-adv-x="2068" 
d="M180 1404h176v-589h655v589h176v-604h310c164.667 0 288.667 -32.333 372 -97s125 -166.667 125 -306c0 -125.333 -37 -222.833 -111 -292.5s-183 -104.5 -327 -104.5h-545v671h-655v-671h-176v1404zM1187 649l0.000976562 -498h355
c97.333 0 167.666 18.833 210.999 56.5s65 99.5 65 185.5c0 91.333 -26.5 156.833 -79.5 196.5s-129.5 59.5 -229.5 59.5h-322z" />
    <glyph glyph-name="afii10059" unicode="&#x40a;" horiz-adv-x="2068" 
d="M180 1404h176v-589h655v589h176v-604h310c164.667 0 288.667 -32.333 372 -97s125 -166.667 125 -306c0 -125.333 -37 -222.833 -111 -292.5s-183 -104.5 -327 -104.5h-545v671h-655v-671h-176v1404zM1187 649l0.000976562 -498h355
c97.333 0 167.666 18.833 210.999 56.5s65 99.5 65 185.5c0 91.333 -26.5 156.833 -79.5 196.5s-129.5 59.5 -229.5 59.5h-322z" />
    <glyph glyph-name="afii10107" unicode="&#x153;" horiz-adv-x="1675" 
d="M804 606l0.00195312 437.999h156v-412h291c64 0 116.167 -6.66699 156.5 -20s74.166 -33.333 101.499 -60c25.333 -24 45.666 -55.333 60.999 -94s23 -83.667 23 -135c0 -52 -8.33301 -99.167 -25 -141.5s-43.334 -79.166 -80.001 -110.499
c-26.667 -23.333 -56.667 -41 -90 -53s-73.666 -18 -120.999 -18h-473v479h-483v-479h-156v1044h156v-438h483zM960.002 504.999l0.000976562 -378.999h244c43.333 0 75.666 3.66699 96.999 11s40 18 56 32c20 17.333 35.667 39.166 47 65.499s17 56.5 17 90.5
s-6.16699 63.5 -18.5 88.5s-29.5 44.833 -51.5 59.5c-16 10 -36.5 17.833 -61.5 23.5s-51.5 8.5 -79.5 8.5h-250z" />
    <glyph glyph-name="afii10107" unicode="&#x45a;" horiz-adv-x="1675" 
d="M804 606l0.00195312 437.999h156v-412h291c64 0 116.167 -6.66699 156.5 -20s74.166 -33.333 101.499 -60c25.333 -24 45.666 -55.333 60.999 -94s23 -83.667 23 -135c0 -52 -8.33301 -99.167 -25 -141.5s-43.334 -79.166 -80.001 -110.499
c-26.667 -23.333 -56.667 -41 -90 -53s-73.666 -18 -120.999 -18h-473v479h-483v-479h-156v1044h156v-438h483zM960.002 504.999l0.000976562 -378.999h244c43.333 0 75.666 3.66699 96.999 11s40 18 56 32c20 17.333 35.667 39.166 47 65.499s17 56.5 17 90.5
s-6.16699 63.5 -18.5 88.5s-29.5 44.833 -51.5 59.5c-16 10 -36.5 17.833 -61.5 23.5s-51.5 8.5 -79.5 8.5h-250z" />
    <glyph glyph-name="afii10058" unicode="&#x160;" horiz-adv-x="2015" 
d="M317 1404l817 0.00195312v-604h309c164.667 0 288.834 -32.333 372.501 -97s125.5 -166.667 125.5 -306c0 -125.333 -37.167 -222.833 -111.5 -292.5s-183.166 -104.5 -326.499 -104.5h-545v1253h-479c-0.666992 -165.333 -5.5 -309.333 -14.5 -432
s-22.833 -239.334 -41.5 -350.001c-27.333 -170.667 -70.333 -292.834 -129 -366.501s-134.334 -110.5 -227.001 -110.5c-10.667 0 -21.334 0.5 -32.001 1.5s-21 2.5 -31 4.5v161l32 -4c92.667 -11.333 162.667 59.5 210 212.5s71 476.833 71 971.5v63zM1134 649.002v-498
h354c97.333 0 167.833 18.833 211.5 56.5s65.5 99.5 65.5 185.5c0 91.333 -26.5 156.833 -79.5 196.5s-129.5 59.5 -229.5 59.5h-322z" />
    <glyph glyph-name="afii10058" unicode="&#x409;" horiz-adv-x="2015" 
d="M317 1404l817 0.00195312v-604h309c164.667 0 288.834 -32.333 372.501 -97s125.5 -166.667 125.5 -306c0 -125.333 -37.167 -222.833 -111.5 -292.5s-183.166 -104.5 -326.499 -104.5h-545v1253h-479c-0.666992 -165.333 -5.5 -309.333 -14.5 -432
s-22.833 -239.334 -41.5 -350.001c-27.333 -170.667 -70.333 -292.834 -129 -366.501s-134.334 -110.5 -227.001 -110.5c-10.667 0 -21.334 0.5 -32.001 1.5s-21 2.5 -31 4.5v161l32 -4c92.667 -11.333 162.667 59.5 210 212.5s71 476.833 71 971.5v63zM1134 649.002v-498
h354c97.333 0 167.833 18.833 211.5 56.5s65.5 99.5 65.5 185.5c0 91.333 -26.5 156.833 -79.5 196.5s-129.5 59.5 -229.5 59.5h-322z" />
    <glyph glyph-name="afii10106" unicode="&#x161;" horiz-adv-x="1593" 
d="M249 1044l629.001 -0.00390625v-412h291c64 0 116.167 -6.66699 156.5 -20s74.166 -33.333 101.499 -60c25.333 -24 45.666 -55.333 60.999 -94s23 -83.667 23 -135c0 -52 -8.33301 -99.167 -25 -141.5s-43.334 -79.166 -80.001 -110.499
c-26.667 -23.333 -56.667 -41 -90 -53s-73.333 -18 -120 -18h-474v917h-335c-8.66699 -227.333 -17.667 -388.166 -27 -482.499s-22.333 -166.166 -39 -215.499c-24.667 -73.333 -62.667 -128.166 -114 -164.499s-114.333 -54.5 -189 -54.5h-4h-4v135
c2.66699 -0.666992 5.33398 -1 8.00098 -1s5.33398 0.333008 8.00098 1c56.667 3.33301 101.167 27.333 133.5 72s52.833 103 61.5 175c6 54 11.333 126.167 16 216.5s8 199.833 10 328.5zM878.001 504.996l0.000976562 -378.999h244c43.333 0 75.666 3.66699 96.999 11
s40 18 56 32c20 17.333 35.667 39.166 47 65.499s17 56.5 17 90.5s-6.16699 63.5 -18.5 88.5s-29.5 44.833 -51.5 59.5c-16 10 -36.5 17.833 -61.5 23.5s-51.5 8.5 -79.5 8.5h-250z" />
    <glyph glyph-name="afii10106" unicode="&#x459;" horiz-adv-x="1593" 
d="M249 1044l629.001 -0.00390625v-412h291c64 0 116.167 -6.66699 156.5 -20s74.166 -33.333 101.499 -60c25.333 -24 45.666 -55.333 60.999 -94s23 -83.667 23 -135c0 -52 -8.33301 -99.167 -25 -141.5s-43.334 -79.166 -80.001 -110.499
c-26.667 -23.333 -56.667 -41 -90 -53s-73.333 -18 -120 -18h-474v917h-335c-8.66699 -227.333 -17.667 -388.166 -27 -482.499s-22.333 -166.166 -39 -215.499c-24.667 -73.333 -62.667 -128.166 -114 -164.499s-114.333 -54.5 -189 -54.5h-4h-4v135
c2.66699 -0.666992 5.33398 -1 8.00098 -1s5.33398 0.333008 8.00098 1c56.667 3.33301 101.167 27.333 133.5 72s52.833 103 61.5 175c6 54 11.333 126.167 16 216.5s8 199.833 10 328.5zM878.001 504.996l0.000976562 -378.999h244c43.333 0 75.666 3.66699 96.999 11
s40 18 56 32c20 17.333 35.667 39.166 47 65.499s17 56.5 17 90.5s-6.16699 63.5 -18.5 88.5s-29.5 44.833 -51.5 59.5c-16 10 -36.5 17.833 -61.5 23.5s-51.5 8.5 -79.5 8.5h-250z" />
    <glyph glyph-name="afii10193" unicode="&#x178;" horiz-adv-x="1011" 
d="M96 1040h155v-914h508v914h156v-1040h-338v-280h-143v280h-338v1040z" />
    <glyph glyph-name="afii10193" unicode="&#x45f;" horiz-adv-x="1011" 
d="M96 1040h155v-914h508v914h156v-1040h-338v-280h-143v280h-338v1040z" />
    <glyph glyph-name="afii10100" unicode="&#x192;" horiz-adv-x="818" 
d="M165 1044h631v-127h-475v-917h-156v1044zM660 1511l70 -133l-440 -193l-41 82z" />
    <glyph glyph-name="afii10100" unicode="&#x453;" horiz-adv-x="818" 
d="M165 1044h631v-127h-475v-917h-156v1044zM660 1511l70 -133l-440 -193l-41 82z" />
    <glyph glyph-name="Accent" unicode="&#x2c6;" horiz-adv-x="778" 
d="M552 1511l70 -133l-440 -193l-41 82z" />
    <glyph glyph-name="accent" unicode="&#x2dc;" horiz-adv-x="778" 
d="M552 1841l70 -133l-440 -193l-41 82z" />
    <glyph glyph-name="endash" unicode="&#x2013;" horiz-adv-x="1445" 
d="M1234 589v-127h-1024v127h1024z" />
    <glyph glyph-name="emdash" unicode="&#x2014;" horiz-adv-x="2048" 
d="M1945 589v-127h-1843v127h1843z" />
    <glyph glyph-name="quoteleft" unicode="&#x2018;" horiz-adv-x="514" 
d="M362 1404l-102 -245h102v-209h-211v209l137 245h74z" />
    <glyph glyph-name="quoteright" unicode="&#x2019;" horiz-adv-x="514" 
d="M362 1404v-208l-137 -246h-74l102 246h-102v208h211z" />
    <glyph glyph-name="quotesinglbase" unicode="&#x201a;" horiz-adv-x="544" 
d="M393 202v-176l-164 -273h-78l121 247h-84v202h205z" />
    <glyph glyph-name="quotedblleft" unicode="&#x201c;" horiz-adv-x="854" 
d="M702 1404l-121 -245h84v-203h-205v176l164 272h78zM393 1404l-121 -245h84v-203h-205v176l164 272h78z" />
    <glyph glyph-name="quotedblright" unicode="&#x201d;" horiz-adv-x="856" 
d="M393 1404v-176l-164 -272h-78l121 246h-84v202h205zM704 1404v-176l-164 -274h-78l121 248h-84v202h205z" />
    <glyph glyph-name="quotedblbase" unicode="&#x201e;" horiz-adv-x="856" 
d="M393 202v-176l-164 -273h-78l121 247h-84v202h205zM704 202v-176l-164 -273h-78l121 247h-84v202h205z" />
    <glyph glyph-name="dagger" unicode="&#x2020;" horiz-adv-x="1224" 
d="M612 1380l119 24l-88 -440l434 76l-19 -92l19 -92l-434 51l43 -47l45 -47c-24 -82.667 -44.667 -238 -62 -466s-26 -429 -26 -603v-94h-62v94c0 174 -8.66699 375 -26 603s-38 383.333 -62 466l44.5 47l43.5 47l-434 -51l18 92l-18 92l434 -76l-88 440z" />
    <glyph glyph-name="daggerdbl" unicode="&#x2021;" horiz-adv-x="1224" 
d="M612 1372l101.996 32l-71 -387l434 76l-19 -96l19 -96l-434 59l45 -104l-45 -132l434 76l-19 -96l19 -96l-434 59c12.667 -12.667 25.834 -24.834 39.501 -36.501l50.5 -41.5c-27.333 -97.333 -49.166 -229.833 -65.499 -397.5s-24.5 -325.5 -24.5 -473.5v-68h-62v68
c0 148 -8.16699 305.833 -24.5 473.5s-38.166 300.167 -65.499 397.5l50.5 41.5c13.667 11.667 26.834 23.834 39.501 36.501l-434 -59l18 96l-18 96l434 -76l-45 132l45 104l-434 -59l18 96l-18 96l434 -76l-72 387z" />
    <glyph glyph-name="bullet" unicode="&#x2022;" 
d="M614 1050c95.333 0 177.166 -34.167 245.499 -102.5s102.5 -150.166 102.5 -245.499s-34.167 -177.166 -102.5 -245.499s-150.166 -102.5 -245.499 -102.5c-96 0 -178 34.167 -246 102.5s-102 150.166 -102 245.499s34 177.166 102 245.499s150 102.5 246 102.5z" />
    <glyph glyph-name="bullet" unicode="&#xf000;" 
d="M614 1050c95.333 0 177.166 -34.167 245.499 -102.5s102.5 -150.166 102.5 -245.499s-34.167 -177.166 -102.5 -245.499s-150.166 -102.5 -245.499 -102.5c-96 0 -178 34.167 -246 102.5s-102 150.166 -102 245.499s34 177.166 102 245.499s150 102.5 246 102.5z" />
    <glyph glyph-name="ellipsis" unicode="&#x2026;" horiz-adv-x="1892" 
d="M376 231v-231h-225v231h225zM1058 231v-231h-225v231h225zM1740 231v-231h-225v231h225z" />
    <glyph glyph-name="perthousand" unicode="&#x2030;" horiz-adv-x="2211" 
d="M366 1425c92 0 162.833 -34.333 212.5 -103s74.5 -157.334 74.5 -266.001s-24.833 -197.167 -74.5 -265.5s-120.5 -102.5 -212.5 -102.5s-162.833 34.167 -212.5 102.5s-74.5 156.833 -74.5 265.5s24.833 197.334 74.5 266.001s120.5 103 212.5 103zM366 794
c52 0 91.667 22.167 119 66.5s41 109.5 41 195.5c0 86.667 -13.667 152 -41 196s-67 66 -119 66s-91.667 -22 -119 -66s-41 -109.333 -41 -196c0 -86 13.667 -151.167 41 -195.5s67 -66.5 119 -66.5zM1243 1404l-850 -1404h-150l850 1404h150zM833 348
c0 108 24.833 196.333 74.5 265s120.5 103 212.5 103s162.667 -34.333 212 -103s74 -157 74 -265c0 -108.667 -24.667 -197.167 -74 -265.5s-120 -102.5 -212 -102.5s-162.833 34.167 -212.5 102.5s-74.5 156.833 -74.5 265.5zM960 348c0 -86.667 13.667 -152 41 -196
s67 -66 119 -66s91.667 22 119 66s41 109.333 41 196c0 86 -13.667 151.167 -41 195.5s-67 66.5 -119 66.5s-91.667 -22.167 -119 -66.5s-41 -109.5 -41 -195.5zM1558 348c0 108 24.833 196.333 74.5 265s120.5 103 212.5 103s162.667 -34.333 212 -103s74 -157 74 -265
c0 -108.667 -24.667 -197.167 -74 -265.5s-120 -102.5 -212 -102.5s-162.833 34.167 -212.5 102.5s-74.5 156.833 -74.5 265.5zM1685 348c0 -86.667 13.667 -152 41 -196s67 -66 119 -66s91.5 22 118.5 66s40.5 109.333 40.5 196c0 86 -13.5 151.167 -40.5 195.5
s-66.5 66.5 -118.5 66.5s-91.667 -22.167 -119 -66.5s-41 -109.5 -41 -195.5z" />
    <glyph glyph-name="guilsinglleft" unicode="&#x2039;" horiz-adv-x="454" 
d="M245 526l109 -299h-90l-178 299l178 291h90z" />
    <glyph glyph-name="guilsinglright" unicode="&#x203a;" horiz-adv-x="454" 
d="M208 526l-108 291h90l178 -291l-178 -299h-90z" />
    <glyph glyph-name="trademark" unicode="&#x2122;" horiz-adv-x="1685" 
d="M393 587h-127v715h-246v102h618v-102h-245v-715zM1589 587h-127v649l-260 -649h-90l-263 649v-649h-112v817h180l250 -620l244 620h178v-817z" />
    <glyph glyph-name="periodcentered" unicode="&#x2219;" horiz-adv-x="528" 
d="M376 706v-231h-225v231h225z" />
    <glyph glyph-name="fi" unicode="&#xf001;" horiz-adv-x="1036" 
d="M620 1411v-126.999l-18 4c-12.667 2.66699 -27.5 5 -44.5 7s-32.167 3 -45.5 3c-23.333 0 -44.833 -4 -64.5 -12s-35.834 -18.333 -48.501 -31c-14.667 -14.667 -25.834 -33.5 -33.501 -56.5s-11.5 -57.5 -11.5 -103.5v-51h246v-127h-246v-917h-156v917h-184v127h184v29
c0 74 7.83301 133.333 23.5 178s39.167 80.667 70.5 108c24.667 21.333 55.334 37.666 92.001 48.999s78.334 17 125.001 17c19.333 0 37.833 -1.16699 55.5 -3.5s36.167 -5.83301 55.5 -10.5zM868 1044v-1044h-156v1044h156zM876 1404v-180h-172v180h172z" />
    <glyph glyph-name="uniF002" unicode="&#xf002;" horiz-adv-x="1028" 
d="M620 1411l0.000976562 -126.999l-22 4c-20 3.33301 -36.5 5.83301 -49.5 7.5s-23.833 2.5 -32.5 2.5c-52 0 -92 -15.5 -120 -46.5s-42 -83.167 -42 -156.5v-51h246v-127h-246v-917h-156v917h-184v127h184v29c0 74 7.83301 133.333 23.5 178s39.167 80.667 70.5 108
c24 21.333 54 37.666 90 48.999s78.333 17 127 17c21.333 0 40.666 -1.16699 57.999 -3.5s35 -5.83301 53 -10.5zM868.001 1404v-1404h-156v1404h156z" />
    <glyph glyph-name="glyph1" horiz-adv-x="0" 
 />
    <glyph glyph-name="glyph2" horiz-adv-x="614" 
 />
    <glyph glyph-name="sterling" horiz-adv-x="1247" 
d="M1083 1234l-116.998 -87.999c-30.667 42 -64.834 73.667 -102.501 95s-75.167 32 -112.5 32c-58 0 -106.667 -20.167 -146 -60.5s-59 -96.5 -59 -168.5c0 -12.667 1 -35.167 3 -67.5s4 -57.5 6 -75.5l12 -117h301v-123h-291l8 -149c4 -72 -7.16699 -139 -33.5 -201
s-69.166 -115.333 -128.499 -160h304c66 0 119.5 4.16699 160.5 12.5s74.167 20.5 99.5 36.5c17.333 11.333 35.166 27.333 53.499 48s33.833 41.667 46.5 63l135 -86c-32 -70.667 -81 -125.834 -147 -165.501s-146.667 -59.5 -242 -59.5h-829v151h47
c55.333 0 101.666 4.66699 138.999 14s71.333 24.333 102 45c40 27.333 69.167 61.666 87.5 102.999s27.5 89 27.5 143v4l-10 144l-4 57h-226v123h213l-12 115c-3.33301 30.667 -5.5 53.834 -6.5 69.501s-1.5 30.5 -1.5 44.5c0 69.333 12 132 36 188s55.667 101.333 95 136
c32 28 68 49.667 108 65s81.667 23 125 23c72.667 0 140 -15.833 202 -47.5s114.333 -79.5 157 -143.5z" />
    <glyph glyph-name="NotEqual" horiz-adv-x="1282" 
d="M129 856h571l119 245h135l-119 -245h318v-134h-377l-117 -235h494v-133h-555l-136 -277h-135l135 277h-333v133h395l117 235h-512v134z" />
    <glyph glyph-name="glyph144" horiz-adv-x="778" 
d="M552 1841l70 -133l-440 -193l-41 82z" />
    <glyph glyph-name="glyph147" horiz-adv-x="778" 
d="M552 1511l70 -133l-440 -193l-41 82z" />
    <glyph glyph-name="infinity" horiz-adv-x="1417" 
d="M712 638c-57.333 -81.333 -114.333 -139.834 -171 -175.501s-117 -53.5 -181 -53.5c-94 0 -171.167 29.833 -231.5 89.5s-90.5 137.834 -90.5 234.501c0 91.333 29.833 167.333 89.5 228s137.167 91 232.5 91c68 0 132.167 -20.833 192.5 -62.5
s110.833 -96.5 151.5 -164.5c48 76 102.833 132.833 164.5 170.5s125.5 56.5 191.5 56.5c92.667 0 168.834 -29.667 228.501 -89s89.5 -137.333 89.5 -234c0 -94.667 -29.5 -171.667 -88.5 -231s-134.833 -89 -227.5 -89c-69.333 0 -133.833 19.667 -193.5 59
s-111.834 96 -156.501 170zM778 730.999c49.333 -71.333 93.999 -121.668 133.999 -151.001s83.333 -44 130 -44c50.667 0 94.334 17.833 131.001 53.5s55 82.834 55 141.501c0 57.333 -18.333 104 -55 140s-81 54 -133 54c-44.667 0 -87 -13.833 -127 -41.5
s-85 -78.5 -135 -152.5zM637.999 730.997c-53.333 75.333 -99.832 126.5 -139.499 153.5s-81.167 40.5 -124.5 40.5c-50.667 0 -94.334 -17.667 -131.001 -53s-55 -82.333 -55 -141c0 -58 18.333 -105 55 -141s81 -54 133 -54c46 0 88.833 14.5 128.5 43.5
s84.167 79.5 133.5 151.5z" />
    <glyph glyph-name="lessequal" horiz-adv-x="1208" 
d="M284 589l809 -331v-127l-1001 424v69l1001 424v-127zM92 288v127l1001 -423v-127z" />
    <glyph glyph-name="greaterequal" horiz-adv-x="1208" 
d="M923 589l-809 332v127l1002 -424v-69l-1002 -424v127zM1116 288l-1002 -423v127l1002 423v-127z" />
    <glyph glyph-name="radical" horiz-adv-x="1331" 
d="M40 1024h435l229 -793l223 1466h363v-135h-242l-283 -1766h-131l-338 1092h-256v136z" />
    <glyph glyph-name="florin" horiz-adv-x="1060" 
d="M1058 1579l-22 -134c-6 0.666992 -12.333 1.16699 -19 1.5s-20.334 0.5 -41.001 0.5c-79.333 0 -137.833 -22.833 -175.5 -68.5s-59.5 -111.5 -65.5 -197.5h252l-21 -123h-252l-172 -970c-23.333 -134 -66.5 -233.333 -129.5 -298s-151.5 -97 -265.5 -97h-7
c-2.66699 0 -29 1.33301 -79 4l22 131h25h31c86.667 4.66699 144 26.167 172 64.5s51.667 111.5 71 219.5l168 946h-190l20 123h193l2 17c15.333 124 58.333 219.167 129 285.5s156.667 99.5 258 99.5c6 0 17.833 -0.5 35.5 -1.5s37.834 -1.83301 60.501 -2.5z" />
    <glyph glyph-name="approxequal" horiz-adv-x="1292" 
d="M223 614l-93.998 60.998c13.333 36 30.833 70.667 52.5 104s44.167 60.333 67.5 81c23.333 19.333 50.5 35 81.5 47s61.833 18 92.5 18c26 0 55.167 -4.33301 87.5 -13s63.5 -20 93.5 -34l57 -27c70 -32 116.667 -50.833 140 -56.5s47 -8.5 71 -8.5
c23.333 0 44.333 3.33301 63 10s36.667 17 54 31c13.333 11.333 27.166 26.5 41.499 45.5s26.5 37.833 36.5 56.5l96 -57c-16 -34 -35 -66.667 -57 -98s-43.333 -56 -64 -74c-26.667 -23.333 -55.834 -41.166 -87.501 -53.499s-63.167 -18.5 -94.5 -18.5
c-30.667 0 -62.334 5 -95.001 15s-81 30.333 -145 61l-55 27c-26.667 12.667 -52.167 22.334 -76.5 29.001s-48.166 10 -71.499 10c-21.333 0 -41.333 -3.5 -60 -10.5s-36.667 -18.833 -54 -35.5c-12.667 -11.333 -26.5 -27.5 -41.5 -48.5s-27.833 -41.5 -38.5 -61.5z
M223.002 252.998l-93.998 62.002c13.333 35.333 30.833 69.833 52.5 103.5s44.167 60.5 67.5 80.5s50.5 36 81.5 48s61.833 18 92.5 18c26 0 55.167 -4.5 87.5 -13.5s63.5 -20.167 93.5 -33.5l57 -27c70 -32.667 116.667 -51.834 140 -57.501s47 -8.5 71 -8.5
c23.333 0 44.333 3.33301 63 10s36.667 17 54 31c13.333 12 27.166 27.5 41.499 46.5s26.5 37.833 36.5 56.5l96 -57c-16 -34.667 -35 -67.5 -57 -98.5s-43.333 -55.833 -64 -74.5c-26.667 -22.667 -55.834 -40.167 -87.501 -52.5s-63.167 -18.5 -94.5 -18.5
c-30.667 0 -62.334 4.83301 -95.001 14.5s-81 30.167 -145 61.5l-55 26c-26.667 13.333 -52.167 23.166 -76.5 29.499s-48.166 9.5 -71.499 9.5c-21.333 0 -41.333 -3.5 -60 -10.5s-36.667 -18.5 -54 -34.5c-12.667 -11.333 -26.5 -27.5 -41.5 -48.5
s-27.833 -41.833 -38.5 -62.5z" />
    <glyph glyph-name="Delta" horiz-adv-x="1249" 
d="M550 1433h148l559 -1433h-1265zM600 1234l-410 -1083h803z" />
    <glyph glyph-name="divide" horiz-adv-x="1316" 
d="M129 524v133h1058v-133h-1058zM757 292v-198h-198v198h198zM757 1087v-199h-198v199h198z" />
    <glyph glyph-name="glyph188" horiz-adv-x="1003" 
d="M667 1753h156.002c-3.33301 -34 -12.333 -66.833 -27 -98.5s-35 -59.167 -61 -82.5c-27.333 -24 -61 -42.5 -101 -55.5s-84.333 -19.5 -133 -19.5s-93 6.5 -133 19.5s-73.333 31.5 -100 55.5c-26 23.333 -46.5 50.833 -61.5 82.5s-23.833 64.5 -26.5 98.5h155
c1.33301 -42.667 17.666 -75.667 48.999 -99s70.333 -35 117 -35s85.667 11.667 117 35s47.666 56.333 48.999 99z" />
    <glyph glyph-name="glyph191" horiz-adv-x="864" 
d="M565 1409h147.003c0 -29.333 -4.66699 -56 -14 -80s-22.333 -45.333 -39 -64c-24.667 -28 -56.167 -49.333 -94.5 -64s-82.5 -22 -132.5 -22c-50.667 0 -95 7.33301 -133 22s-69.667 36 -95 64c-16 18.667 -28.833 40 -38.5 64s-14.5 50.667 -14.5 80h148
c0.666992 -16 4 -31.667 10 -47s14 -28.333 24 -39c11.333 -12 24.666 -20.833 39.999 -26.5s35 -8.5 59 -8.5c23.333 0 42.666 2.83301 57.999 8.5s28.666 14.5 39.999 26.5c10 10.667 18 23.667 24 39s9.66699 31 11 47z" />
    </font>
</defs>
</svg>
